<svg width="680" height="566" viewBox="0 0 680 566" fill="none" xmlns="http://www.w3.org/2000/svg">
<path d="M9.6781 18.9176C12.6079 17.4256 16.0003 17.724 18.1591 19.5144C20.6263 21.7524 21.2431 24.8856 20.3179 27.422C18.7759 30.406 16.0003 32.0472 13.0705 31.898C9.8323 31.4504 7.2109 29.3616 6.4399 26.676C5.9773 23.5428 7.2109 20.4096 9.6781 18.9176Z" fill="#3974AA"/>
<path d="M25.0981 59.3508C25.0981 62.3348 23.2477 64.8712 20.9347 65.7664C18.0049 66.6616 15.0751 65.7664 13.3789 63.8268C11.5285 61.4396 11.5285 58.4556 12.9163 56.3668C14.6125 53.9796 17.5423 52.9352 20.1637 53.532C22.9393 54.5764 24.9439 56.8144 25.0981 59.3508Z" fill="#3974AA"/>
<path d="M21.0889 65.0204C26.3317 63.6776 31.5745 65.468 34.3501 69.198C37.2799 73.674 37.1257 78.896 34.3501 82.626C30.9577 86.6544 25.5607 88.1464 21.0889 86.8036C16.1545 84.864 12.9163 80.388 12.9163 75.912C13.2247 70.69 16.6171 66.5124 21.0889 65.0204Z" fill="#3974AA"/>
<path d="M23.2477 96.3525C28.4905 95.0097 33.7333 96.8001 36.5089 100.53C39.4387 105.006 39.2845 110.228 36.5089 113.958C33.1165 117.986 27.7195 119.478 23.2477 118.136C18.3133 116.196 15.0751 111.72 15.0751 107.244C15.3835 102.022 18.7759 97.8445 23.2477 96.3525Z" fill="#3974AA"/>
<path d="M24.3271 176.92C21.0889 177.368 17.8507 176.174 16.3087 173.787C14.7667 170.952 15.0751 167.67 16.9255 165.581C19.2385 163.194 22.4767 162.597 25.0981 163.492C28.1821 164.984 29.8783 167.67 29.7241 170.505C29.2615 173.638 27.1027 176.174 24.3271 176.92Z" fill="#3974AA"/>
<path d="M21.8599 193.332C21.8599 196.316 20.0095 198.853 17.6965 199.748C14.7667 200.643 11.8369 199.748 10.1407 197.808C8.29032 195.421 8.29031 192.437 9.67812 190.348C11.3743 187.961 14.3041 186.917 16.9255 187.514C19.7011 188.558 21.7057 190.796 21.8599 193.332Z" fill="#3974AA"/>
<path d="M12.6079 220.039C17.8507 218.696 23.0935 220.487 25.8691 224.217C28.7989 228.693 28.6447 233.915 25.8691 237.645C22.4767 241.673 17.0797 243.165 12.6079 241.822C7.6735 239.883 4.4353 235.407 4.4353 230.931C4.7437 225.709 8.1361 221.531 12.6079 220.039Z" fill="#3974AA"/>
<path d="M18.7759 247.492C15.5377 247.94 12.2995 246.746 10.7575 244.359C9.21551 241.524 9.52391 238.242 11.3743 236.153C13.6873 233.766 16.9255 233.169 19.5469 234.064C22.6309 235.556 24.3271 238.242 24.1729 241.076C23.7103 244.21 21.5515 246.746 18.7759 247.492Z" fill="#3974AA"/>
<path d="M47.6113 286.284C44.3731 286.732 41.1349 285.538 39.5929 283.151C38.0509 280.316 38.3593 277.034 40.2097 274.945C42.5227 272.558 45.7609 271.961 48.3823 272.856C51.4663 274.348 53.1625 277.034 53.0083 279.868C52.5457 283.002 50.3869 285.538 47.6113 286.284Z" fill="#3974AA"/>
<path d="M31.1119 340.593C27.8737 341.04 24.6355 339.847 23.0935 337.46C21.5515 334.625 21.8599 331.343 23.7103 329.254C26.0233 326.867 29.2615 326.27 31.8829 327.165C34.9669 328.657 36.6631 331.343 36.5089 334.177C36.0463 337.311 33.8875 339.847 31.1119 340.593Z" fill="#3974AA"/>
<path d="M22.3225 346.859C27.5653 345.516 32.8081 347.307 35.5837 351.037C38.5135 355.513 38.3593 360.735 35.5837 364.465C32.1913 368.493 26.7943 369.985 22.3225 368.642C17.3881 366.703 14.1499 362.227 14.1499 357.751C14.4583 352.529 17.8507 348.351 22.3225 346.859Z" fill="#3974AA"/>
<path d="M38.2051 367.896C41.1349 366.404 44.5273 366.703 46.6861 368.493C49.1533 370.731 49.7701 373.864 48.8449 376.401C47.3029 379.385 44.5273 381.026 41.5975 380.877C38.3593 380.429 35.7379 378.34 34.9669 375.655C34.5043 372.522 35.7379 369.388 38.2051 367.896Z" fill="#3974AA"/>
<path d="M43.9105 418.326C43.9105 421.31 42.0601 423.846 39.7471 424.742C36.8173 425.637 33.8875 424.742 32.1913 422.802C30.3409 420.415 30.3409 417.431 31.7287 415.342C33.4249 412.955 36.3547 411.91 38.9761 412.507C41.7517 413.552 43.7563 415.79 43.9105 418.326Z" fill="#3974AA"/>
<path d="M32.3455 442.646C37.5883 441.303 42.8311 443.093 45.6067 446.823C48.5365 451.299 48.3823 456.521 45.6067 460.251C42.2143 464.28 36.8173 465.772 32.3455 464.429C27.4111 462.489 24.1729 458.013 24.1729 453.537C24.4813 448.315 27.8737 444.138 32.3455 442.646Z" fill="#3974AA"/>
<path d="M22.3225 489.196C19.8553 491.732 16.1545 492.628 13.2247 491.434C9.83231 489.942 7.9819 486.809 8.1361 483.825C8.5987 480.244 11.0659 477.558 14.1499 476.812C17.6965 476.066 21.2431 477.558 22.9393 480.095C24.6355 483.228 24.3271 486.809 22.3225 489.196Z" fill="#3974AA"/>
<path d="M30.0325 529.032C27.5653 531.569 23.8645 532.464 20.9347 531.27C17.5423 529.778 15.6919 526.645 15.8461 523.661C16.3087 520.08 18.7759 517.395 21.8599 516.649C25.4065 515.903 28.9531 517.395 30.6493 519.931C32.3455 523.064 32.0371 526.645 30.0325 529.032Z" fill="#3974AA"/>
<path d="M16.0003 571.256C12.7621 571.704 9.52391 570.51 7.98191 568.123C6.43991 565.288 6.74831 562.006 8.59871 559.917C10.9117 557.53 14.1499 556.933 16.7713 557.828C19.8553 559.32 21.5515 562.006 21.3973 564.841C20.9347 567.974 18.7759 570.51 16.0003 571.256Z" fill="#3974AA"/>
<path d="M65.4985 41.2977C62.2603 41.7453 59.0221 40.5517 57.4801 38.1645C55.9381 35.3297 56.2465 32.0473 58.0969 29.9585C60.4099 27.5713 63.6481 26.9745 66.2695 27.8697C69.3535 29.3617 71.0497 32.0473 70.8955 34.8821C70.4329 38.0153 68.2741 40.5517 65.4985 41.2977Z" fill="#3974AA"/>
<path d="M74.5963 40.7009C74.5963 43.6849 72.7459 46.2213 70.4329 47.1165C67.5031 48.0117 64.5733 47.1165 62.8771 45.1769C61.0267 42.7897 61.0267 39.8057 62.4145 37.7169C64.1107 35.3297 67.0405 34.2853 69.6619 34.8821C72.4375 35.9265 74.4421 38.1645 74.5963 40.7009Z" fill="#3974AA"/>
<path d="M69.1993 83.0737C72.7459 82.3277 76.2925 83.8197 77.9887 86.3561C79.6849 89.4893 79.3765 93.0701 77.3719 95.4573C74.9047 97.9937 71.2039 98.8889 68.2741 97.6953C64.8817 96.2033 63.0313 93.0701 63.1855 90.0861C63.6481 86.5053 66.1153 83.8197 69.1993 83.0737Z" fill="#3974AA"/>
<path d="M71.5123 120.523C68.2741 120.97 65.0359 119.777 63.4939 117.39C61.9519 114.555 62.2603 111.272 64.1107 109.184C66.4237 106.796 69.6619 106.2 72.2833 107.095C75.3673 108.587 77.0635 111.272 76.9093 114.107C76.4467 117.24 74.2879 119.777 71.5123 120.523Z" fill="#3974AA"/>
<path d="M70.8955 143.5C70.8955 146.484 69.0451 149.02 66.7321 149.915C63.8023 150.81 60.8725 149.915 59.1763 147.976C57.3259 145.588 57.3259 142.604 58.7137 140.516C60.4099 138.128 63.3397 137.084 65.9611 137.681C68.7367 138.725 70.7413 140.963 70.8955 143.5Z" fill="#3974AA"/>
<path d="M61.9519 182.142C59.4847 184.679 55.7839 185.574 52.8541 184.38C49.4617 182.888 47.6113 179.755 47.7655 176.771C48.2281 173.19 50.6953 170.505 53.7793 169.759C57.3259 169.013 60.8725 170.505 62.5687 173.041C64.2649 176.174 63.9565 179.755 61.9519 182.142Z" fill="#3974AA"/>
<path d="M76.6009 224.814C74.1337 227.35 70.4329 228.245 67.5031 227.052C64.1107 225.56 62.2603 222.426 62.4145 219.442C62.8771 215.862 65.3443 213.176 68.4283 212.43C71.9749 211.684 75.5215 213.176 77.2177 215.712C78.9139 218.846 78.6055 222.426 76.6009 224.814Z" fill="#3974AA"/>
<path d="M74.1337 259.279C71.6665 261.815 67.9657 262.71 65.0359 261.517C61.6435 260.025 59.7931 256.892 59.9473 253.908C60.4099 250.327 62.8771 247.641 65.9611 246.895C69.5077 246.149 73.0543 247.641 74.7505 250.178C76.4467 253.311 76.1383 256.892 74.1337 259.279Z" fill="#3974AA"/>
<path d="M47.1487 295.087C50.0785 293.595 53.4709 293.893 55.6297 295.684C58.0969 297.922 58.7137 301.055 57.7885 303.591C56.2465 306.575 53.4709 308.216 50.5411 308.067C47.3029 307.62 44.6815 305.531 43.9105 302.845C43.4479 299.712 44.6815 296.579 47.1487 295.087Z" fill="#3974AA"/>
<path d="M62.7229 317.019C60.2557 319.556 56.5549 320.451 53.6251 319.257C50.2327 317.765 48.3823 314.632 48.5365 311.648C48.9991 308.067 51.4663 305.382 54.5503 304.636C58.0969 303.89 61.6435 305.382 63.3397 307.918C65.0359 311.051 64.7275 314.632 62.7229 317.019Z" fill="#3974AA"/>
<path d="M61.4893 365.957C58.2511 366.404 55.0129 365.211 53.4709 362.824C51.9289 359.989 52.2373 356.706 54.0877 354.618C56.4007 352.23 59.6389 351.634 62.2603 352.529C65.3443 354.021 67.0405 356.706 66.8863 359.541C66.4237 362.674 64.2649 365.211 61.4893 365.957Z" fill="#3974AA"/>
<path d="M65.1901 404.898C62.7229 407.434 59.0221 408.33 56.0923 407.136C52.6999 405.644 50.8495 402.511 51.0037 399.527C51.4663 395.946 53.9335 393.26 57.0175 392.514C60.5641 391.768 64.1107 393.26 65.8069 395.797C67.5031 398.93 67.1947 402.511 65.1901 404.898Z" fill="#3974AA"/>
<path d="M70.2787 439.214C67.0405 439.662 63.8023 438.468 62.2603 436.081C60.7183 433.246 61.0267 429.964 62.8771 427.875C65.1901 425.488 68.4283 424.891 71.0497 425.786C74.1337 427.278 75.8299 429.964 75.6757 432.798C75.2131 435.932 73.0543 438.468 70.2787 439.214Z" fill="#3974AA"/>
<path d="M60.5641 472.336C58.0969 474.873 54.3961 475.768 51.4663 474.574C48.0739 473.082 46.2235 469.949 46.3777 466.965C46.8403 463.384 49.3075 460.699 52.3915 459.953C55.9381 459.207 59.4847 460.699 61.1809 463.235C62.8771 466.368 62.5687 469.949 60.5641 472.336Z" fill="#3974AA"/>
<path d="M55.4755 479.946C55.4755 482.93 53.6251 485.466 51.3121 486.361C48.3823 487.256 45.4525 486.361 43.7563 484.422C41.9059 482.034 41.9059 479.05 43.2937 476.962C44.9899 474.574 47.9197 473.53 50.5411 474.127C53.3167 475.171 55.3213 477.409 55.4755 479.946Z" fill="#3974AA"/>
<path d="M66.1153 505.906C69.0451 504.414 72.4375 504.713 74.5963 506.503C77.0635 508.741 77.6803 511.874 76.7551 514.411C75.2131 517.395 72.4375 519.036 69.5077 518.887C66.2695 518.439 63.6481 516.35 62.8771 513.665C62.4145 510.532 63.6481 507.398 66.1153 505.906Z" fill="#3974AA"/>
<path d="M56.0923 563.647C56.0923 566.631 54.2419 569.167 51.9289 570.062C48.9991 570.958 46.0693 570.062 44.3731 568.123C42.5227 565.736 42.5227 562.752 43.9105 560.663C45.6067 558.276 48.5365 557.231 51.1579 557.828C53.9335 558.872 55.9381 561.11 56.0923 563.647Z" fill="#3974AA"/>
<path d="M88.6285 21.0065C92.1751 20.2605 95.7217 21.7525 97.4179 24.2889C99.1141 27.4221 98.8057 31.0029 96.8011 33.3901C94.3339 35.9265 90.6331 36.8217 87.7033 35.6281C84.3109 34.1361 82.4605 31.0029 82.6147 28.0189C83.0773 24.4381 85.5445 21.7525 88.6285 21.0065Z" fill="#3974AA"/>
<path d="M107.749 66.0648C104.511 66.5124 101.273 65.3188 99.7309 62.9316C98.1889 60.0968 98.4973 56.8144 100.348 54.7256C102.661 52.3384 105.899 51.7416 108.52 52.6368C111.604 54.1288 113.301 56.8144 113.146 59.6492C112.684 62.7824 110.525 65.3188 107.749 66.0648Z" fill="#3974AA"/>
<path d="M109.291 86.2069C106.053 86.6545 102.815 85.4609 101.273 83.0737C99.7309 80.2389 100.039 76.9565 101.89 74.8677C104.203 72.4805 107.441 71.8837 110.062 72.7789C113.146 74.2709 114.843 76.9565 114.688 79.7913C114.226 82.9245 112.067 85.4609 109.291 86.2069Z" fill="#3974AA"/>
<path d="M96.0301 120.224C96.0301 123.208 94.1797 125.745 91.8667 126.64C88.9369 127.535 86.0071 126.64 84.3109 124.7C82.4605 122.313 82.4605 119.329 83.8483 117.24C85.5445 114.853 88.4743 113.809 91.0957 114.406C93.8713 115.45 95.8759 117.688 96.0301 120.224Z" fill="#3974AA"/>
<path d="M91.0957 150.363C87.8575 150.81 84.6193 149.617 83.0773 147.23C81.5353 144.395 81.8437 141.112 83.6941 139.024C86.0071 136.636 89.2453 136.04 91.8667 136.935C94.9507 138.427 96.6469 141.112 96.4927 143.947C96.0301 147.08 93.8713 149.617 91.0957 150.363Z" fill="#3974AA"/>
<path d="M96.3385 183.038C93.1003 183.485 89.8621 182.292 88.3201 179.904C86.7781 177.07 87.0865 173.787 88.9369 171.698C91.2499 169.311 94.4881 168.714 97.1095 169.61C100.194 171.102 101.89 173.787 101.736 176.622C101.273 179.755 99.1141 182.292 96.3385 183.038Z" fill="#3974AA"/>
<path d="M94.7965 216.906C100.039 215.563 105.282 217.354 108.058 221.084C110.988 225.56 110.833 230.782 108.058 234.512C104.665 238.54 99.2683 240.032 94.7965 238.689C89.8621 236.75 86.6239 232.274 86.6239 227.798C86.9323 222.576 90.3247 218.398 94.7965 216.906Z" fill="#3974AA"/>
<path d="M91.2499 250.625C88.7827 253.162 85.0819 254.057 82.1521 252.863C78.7597 251.371 76.9093 248.238 77.0635 245.254C77.5261 241.673 79.9933 238.988 83.0773 238.242C86.6239 237.496 90.1705 238.988 91.8667 241.524C93.5629 244.657 93.2545 248.238 91.2499 250.625Z" fill="#3974AA"/>
<path d="M99.7309 307.47C97.2637 310.007 93.5629 310.902 90.6331 309.708C87.2407 308.216 85.3903 305.083 85.5445 302.099C86.0071 298.518 88.4743 295.833 91.5583 295.087C95.1049 294.341 98.6515 295.833 100.348 298.369C102.044 301.502 101.736 305.083 99.7309 307.47Z" fill="#3974AA"/>
<path d="M90.7873 319.705C87.5491 320.152 84.3109 318.959 82.7689 316.572C81.2269 313.737 81.5353 310.454 83.3857 308.366C85.6987 305.978 88.9369 305.382 91.5583 306.277C94.6423 307.769 96.3385 310.454 96.1843 313.289C95.7217 316.422 93.5629 318.959 90.7873 319.705Z" fill="#3974AA"/>
<path d="M113.917 345.815C113.917 348.799 112.067 351.335 109.754 352.23C106.824 353.126 103.894 352.23 102.198 350.291C100.348 347.904 100.348 344.92 101.736 342.831C103.432 340.444 106.362 339.399 108.983 339.996C111.759 341.04 113.763 343.278 113.917 345.815Z" fill="#3974AA"/>
<path d="M100.502 394.454C104.049 393.708 107.595 395.2 109.291 397.736C110.988 400.87 110.679 404.45 108.675 406.838C106.207 409.374 102.507 410.269 99.5767 409.076C96.1843 407.584 94.3339 404.45 94.4881 401.466C94.9507 397.886 97.4179 395.2 100.502 394.454Z" fill="#3974AA"/>
<path d="M92.4835 419.669C92.4835 422.653 90.6331 425.189 88.3201 426.084C85.3903 426.98 82.4605 426.084 80.7643 424.145C78.9139 421.758 78.9139 418.774 80.3017 416.685C81.9979 414.298 84.9277 413.253 87.5491 413.85C90.3247 414.894 92.3293 417.132 92.4835 419.669Z" fill="#3974AA"/>
<path d="M95.7217 445.182C93.2545 447.718 89.5537 448.614 86.6239 447.42C83.2315 445.928 81.3811 442.795 81.5353 439.811C81.9979 436.23 84.4651 433.544 87.5491 432.798C91.0957 432.052 94.6423 433.544 96.3385 436.081C98.0347 439.214 97.7263 442.795 95.7217 445.182Z" fill="#3974AA"/>
<path d="M98.4973 504.564C95.2591 505.011 92.0209 503.818 90.4789 501.43C88.9369 498.596 89.2453 495.313 91.0957 493.224C93.4087 490.837 96.6469 490.24 99.2683 491.136C102.352 492.628 104.049 495.313 103.894 498.148C103.432 501.281 101.273 503.818 98.4973 504.564Z" fill="#3974AA"/>
<path d="M111.142 533.061C108.675 535.597 104.974 536.492 102.044 535.299C98.6515 533.807 96.8011 530.674 96.9553 527.69C97.4179 524.109 99.8851 521.423 102.969 520.677C106.516 519.931 110.062 521.423 111.759 523.96C113.455 527.093 113.146 530.674 111.142 533.061Z" fill="#3974AA"/>
<path d="M97.1095 557.977C102.352 556.634 107.595 558.425 110.371 562.155C113.3 566.631 113.146 571.853 110.371 575.583C106.978 579.611 101.581 581.103 97.1095 579.76C92.1751 577.821 88.9369 573.345 88.9369 568.869C89.2453 563.647 92.6377 559.469 97.1095 557.977Z" fill="#3974AA"/>
<path d="M140.44 23.8412C145.682 22.4984 150.925 24.2888 153.701 28.0188C156.631 32.4948 156.476 37.7168 153.701 41.4468C150.308 45.4752 144.911 46.9672 140.44 45.6244C135.505 43.6848 132.267 39.2088 132.267 34.7328C132.575 29.5108 135.968 25.3332 140.44 23.8412Z" fill="#3974AA"/>
<path d="M123.324 40.85C128.566 39.5072 133.809 41.2976 136.585 45.0276C139.515 49.5036 139.36 54.7256 136.585 58.4556C133.192 62.484 127.795 63.976 123.324 62.6332C118.389 60.6936 115.151 56.2176 115.151 51.7416C115.459 46.5196 118.852 42.342 123.324 40.85Z" fill="#3974AA"/>
<path d="M135.66 82.4768C138.589 80.9848 141.982 81.2832 144.141 83.0736C146.608 85.3116 147.225 88.4448 146.299 90.9812C144.757 93.9652 141.982 95.6064 139.052 95.4572C135.814 95.0096 133.192 92.9208 132.421 90.2352C131.959 87.102 133.192 83.9688 135.66 82.4768Z" fill="#3974AA"/>
<path d="M146.454 118.434C149.383 116.942 152.776 117.24 154.935 119.031C157.402 121.269 158.019 124.402 157.093 126.938C155.551 129.922 152.776 131.564 149.846 131.414C146.608 130.967 143.986 128.878 143.215 126.192C142.753 123.059 143.986 119.926 146.454 118.434Z" fill="#3974AA"/>
<path d="M147.687 163.791C147.687 166.775 145.837 169.311 143.524 170.206C140.594 171.102 137.664 170.206 135.968 168.267C134.117 165.88 134.117 162.896 135.505 160.807C137.201 158.42 140.131 157.375 142.753 157.972C145.528 159.016 147.533 161.254 147.687 163.791Z" fill="#3974AA"/>
<path d="M155.089 190.498C155.089 193.482 153.238 196.018 150.925 196.913C147.996 197.808 145.066 196.913 143.37 194.974C141.519 192.586 141.519 189.602 142.907 187.514C144.603 185.126 147.533 184.082 150.154 184.679C152.93 185.723 154.935 187.961 155.089 190.498Z" fill="#3974AA"/>
<path d="M139.669 233.766C137.202 236.302 133.501 237.197 130.571 236.004C127.179 234.512 125.328 231.378 125.482 228.394C125.945 224.814 128.412 222.128 131.496 221.382C135.043 220.636 138.589 222.128 140.286 224.664C141.982 227.798 141.673 231.378 139.669 233.766Z" fill="#3974AA"/>
<path d="M148.921 276.138C145.682 276.586 142.444 275.392 140.902 273.005C139.36 270.17 139.669 266.888 141.519 264.799C143.832 262.412 147.07 261.815 149.692 262.71C152.776 264.202 154.472 266.888 154.318 269.723C153.855 272.856 151.696 275.392 148.921 276.138Z" fill="#3974AA"/>
<path d="M129.492 292.252C126.253 292.7 123.015 291.506 121.473 289.119C119.931 286.284 120.24 283.002 122.09 280.913C124.403 278.526 127.641 277.929 130.263 278.824C133.347 280.316 135.043 283.002 134.889 285.836C134.426 288.97 132.267 291.506 129.492 292.252Z" fill="#3974AA"/>
<path d="M141.365 319.556C146.608 318.213 151.85 320.003 154.626 323.733C157.556 328.209 157.402 333.431 154.626 337.161C151.234 341.19 145.837 342.682 141.365 341.339C136.43 339.399 133.192 334.923 133.192 330.447C133.501 325.225 136.893 321.048 141.365 319.556Z" fill="#3974AA"/>
<path d="M135.043 354.021C132.576 356.557 128.875 357.452 125.945 356.259C122.553 354.767 120.702 351.634 120.856 348.65C121.319 345.069 123.786 342.383 126.87 341.637C130.417 340.891 133.963 342.383 135.66 344.92C137.356 348.053 137.047 351.634 135.043 354.021Z" fill="#3974AA"/>
<path d="M122.398 382.369C125.328 380.877 128.721 381.175 130.879 382.966C133.347 385.204 133.963 388.337 133.038 390.873C131.496 393.857 128.721 395.498 125.791 395.349C122.553 394.902 119.931 392.813 119.16 390.127C118.697 386.994 119.931 383.861 122.398 382.369Z" fill="#3974AA"/>
<path d="M154.472 418.177C151.234 418.624 147.995 417.431 146.453 415.044C144.911 412.209 145.22 408.926 147.07 406.838C149.383 404.45 152.621 403.854 155.243 404.749C158.327 406.241 160.023 408.926 159.869 411.761C159.406 414.894 157.247 417.431 154.472 418.177Z" fill="#3974AA"/>
<path d="M121.627 456.223C126.87 454.88 132.113 456.671 134.889 460.401C137.818 464.877 137.664 470.099 134.889 473.829C131.496 477.857 126.099 479.349 121.627 478.006C116.693 476.067 113.455 471.591 113.455 467.115C113.763 461.893 117.156 457.715 121.627 456.223Z" fill="#3974AA"/>
<path d="M148.612 495.91C146.145 498.446 142.444 499.342 139.515 498.148C136.122 496.656 134.272 493.523 134.426 490.539C134.889 486.958 137.356 484.272 140.44 483.526C143.986 482.78 147.533 484.272 149.229 486.809C150.925 489.942 150.617 493.523 148.612 495.91Z" fill="#3974AA"/>
<path d="M126.253 518.738C126.253 521.722 124.403 524.258 122.09 525.153C119.16 526.048 116.23 525.153 114.534 523.214C112.684 520.826 112.684 517.842 114.072 515.754C115.768 513.366 118.698 512.322 121.319 512.919C124.095 513.963 126.099 516.201 126.253 518.738Z" fill="#3974AA"/>
<path d="M135.814 564.244C132.576 564.691 129.337 563.498 127.795 561.111C126.253 558.276 126.562 554.993 128.412 552.905C130.725 550.517 133.963 549.921 136.585 550.816C139.669 552.308 141.365 554.993 141.211 557.828C140.748 560.961 138.589 563.498 135.814 564.244Z" fill="#3974AA"/>
<path d="M165.112 44.8785C162.645 47.4149 158.944 48.3101 156.014 47.1165C152.622 45.6245 150.771 42.4913 150.925 39.5073C151.388 35.9265 153.855 33.2409 156.939 32.4949C160.486 31.7489 164.032 33.2409 165.729 35.7773C167.425 38.9105 167.116 42.4913 165.112 44.8785Z" fill="#3974AA"/>
<path d="M166.654 68.8997C166.654 71.8837 164.803 74.4201 162.49 75.3153C159.561 76.2105 156.631 75.3153 154.935 73.3757C153.084 70.9885 153.084 68.0045 154.472 65.9157C156.168 63.5285 159.098 62.4841 161.719 63.0809C164.495 64.1253 166.5 66.3633 166.654 68.8997Z" fill="#3974AA"/>
<path d="M152.776 66.6617C156.322 65.9157 159.869 67.4077 161.565 69.9441C163.261 73.0773 162.953 76.6581 160.948 79.0453C158.481 81.5817 154.78 82.4769 151.851 81.2833C148.458 79.7913 146.608 76.6581 146.762 73.6741C147.225 70.0933 149.692 67.4077 152.776 66.6617Z" fill="#3974AA"/>
<path d="M159.715 122.612C156.476 123.059 153.238 121.866 151.696 119.478C150.154 116.644 150.463 113.361 152.313 111.272C154.626 108.885 157.864 108.288 160.486 109.184C163.57 110.676 165.266 113.361 165.112 116.196C164.649 119.329 162.49 121.866 159.715 122.612Z" fill="#3974AA"/>
<path d="M164.957 153.794C161.719 154.242 158.481 153.048 156.939 150.661C155.397 147.826 155.705 144.544 157.556 142.455C159.869 140.068 163.107 139.471 165.728 140.366C168.812 141.858 170.509 144.544 170.354 147.379C169.892 150.512 167.733 153.048 164.957 153.794Z" fill="#3974AA"/>
<path d="M160.486 186.32C164.032 185.574 167.579 187.066 169.275 189.602C170.971 192.736 170.663 196.316 168.658 198.704C166.191 201.24 162.49 202.135 159.561 200.942C156.168 199.45 154.318 196.316 154.472 193.332C154.935 189.752 157.402 187.066 160.486 186.32Z" fill="#3974AA"/>
<path d="M176.06 218.398C178.99 216.906 182.382 217.204 184.541 218.995C187.008 221.233 187.625 224.366 186.7 226.902C185.158 229.886 182.382 231.528 179.452 231.378C176.214 230.931 173.593 228.842 172.822 226.156C172.359 223.023 173.593 219.89 176.06 218.398Z" fill="#3974AA"/>
<path d="M173.284 263.606C170.817 266.142 167.116 267.037 164.187 265.844C160.794 264.352 158.944 261.218 159.098 258.234C159.561 254.654 162.028 251.968 165.112 251.222C168.658 250.476 172.205 251.968 173.901 254.504C175.597 257.638 175.289 261.218 173.284 263.606Z" fill="#3974AA"/>
<path d="M177.139 302.248C177.139 305.232 175.289 307.769 172.976 308.664C170.046 309.559 167.116 308.664 165.42 306.724C163.57 304.337 163.57 301.353 164.958 299.264C166.654 296.877 169.584 295.833 172.205 296.43C174.981 297.474 176.985 299.712 177.139 302.248Z" fill="#3974AA"/>
<path d="M183.153 308.664C186.7 307.918 190.246 309.41 191.942 311.946C193.639 315.08 193.33 318.66 191.326 321.048C188.858 323.584 185.158 324.479 182.228 323.286C178.835 321.794 176.985 318.66 177.139 315.676C177.602 312.096 180.069 309.41 183.153 308.664Z" fill="#3974AA"/>
<path d="M162.49 350.888C166.037 350.142 169.584 351.634 171.28 354.17C172.976 357.303 172.668 360.884 170.663 363.271C168.196 365.808 164.495 366.703 161.565 365.509C158.173 364.017 156.322 360.884 156.477 357.9C156.939 354.319 159.406 351.634 162.49 350.888Z" fill="#3974AA"/>
<path d="M164.341 385.651C161.874 388.188 158.173 389.083 155.243 387.889C151.851 386.397 150 383.264 150.154 380.28C150.617 376.699 153.084 374.014 156.168 373.268C159.715 372.522 163.261 374.014 164.958 376.55C166.654 379.683 166.345 383.264 164.341 385.651Z" fill="#3974AA"/>
<path d="M161.565 418.177C165.112 417.431 168.658 418.923 170.355 421.459C172.051 424.592 171.742 428.173 169.738 430.56C167.271 433.097 163.57 433.992 160.64 432.798C157.248 431.306 155.397 428.173 155.551 425.189C156.014 421.608 158.481 418.923 161.565 418.177Z" fill="#3974AA"/>
<path d="M181.611 464.877C179.144 467.413 175.443 468.308 172.513 467.115C169.121 465.623 167.27 462.489 167.425 459.505C167.887 455.925 170.354 453.239 173.438 452.493C176.985 451.747 180.532 453.239 182.228 455.775C183.924 458.909 183.616 462.489 181.611 464.877Z" fill="#3974AA"/>
<path d="M170.663 495.015C174.21 494.269 177.756 495.761 179.452 498.297C181.149 501.43 180.84 505.011 178.836 507.398C176.368 509.935 172.668 510.83 169.738 509.636C166.345 508.144 164.495 505.011 164.649 502.027C165.112 498.446 167.579 495.761 170.663 495.015Z" fill="#3974AA"/>
<path d="M188.55 530.525C186.083 533.061 182.382 533.956 179.452 532.763C176.06 531.271 174.21 528.137 174.364 525.153C174.826 521.573 177.294 518.887 180.378 518.141C183.924 517.395 187.471 518.887 189.167 521.423C190.863 524.557 190.555 528.137 188.55 530.525Z" fill="#3974AA"/>
<path d="M185.004 546.041C185.004 549.025 183.153 551.562 180.84 552.457C177.91 553.352 174.981 552.457 173.284 550.517C171.434 548.13 171.434 545.146 172.822 543.057C174.518 540.67 177.448 539.626 180.069 540.222C182.845 541.267 184.849 543.505 185.004 546.041Z" fill="#3974AA"/>
<path d="M204.124 1.90885C207.054 0.416847 210.447 0.715247 212.605 2.50565C215.073 4.74365 215.689 7.87685 214.764 10.4132C213.222 13.3972 210.447 15.0384 207.517 14.8892C204.279 14.4416 201.657 12.3528 200.886 9.66725C200.424 6.53405 201.657 3.40085 204.124 1.90885Z" fill="#3974AA"/>
<path d="M188.242 52.6368C191.171 51.1448 194.564 51.4432 196.723 53.2336C199.19 55.4716 199.807 58.6048 198.881 61.1412C197.339 64.1252 194.564 65.7664 191.634 65.6172C188.396 65.1696 185.774 63.0808 185.003 60.3952C184.541 57.262 185.774 54.1288 188.242 52.6368Z" fill="#3974AA"/>
<path d="M218.311 71.436C223.554 70.0932 228.796 71.8836 231.572 75.6136C234.502 80.0896 234.348 85.3116 231.572 89.0416C228.18 93.07 222.783 94.562 218.311 93.2192C213.376 91.2796 210.138 86.8036 210.138 82.3276C210.447 77.1056 213.839 72.928 218.311 71.436Z" fill="#3974AA"/>
<path d="M197.339 105.901C200.886 105.155 204.433 106.647 206.129 109.184C207.825 112.317 207.517 115.898 205.512 118.285C203.045 120.821 199.344 121.716 196.414 120.523C193.022 119.031 191.171 115.898 191.326 112.914C191.788 109.333 194.255 106.647 197.339 105.901Z" fill="#3974AA"/>
<path d="M194.872 144.842C192.405 147.379 188.704 148.274 185.775 147.08C182.382 145.588 180.532 142.455 180.686 139.471C181.149 135.89 183.616 133.205 186.7 132.459C190.246 131.713 193.793 133.205 195.489 135.741C197.185 138.874 196.877 142.455 194.872 144.842Z" fill="#3974AA"/>
<path d="M209.059 176.622C209.059 179.606 207.208 182.142 204.895 183.038C201.965 183.933 199.036 183.038 197.339 181.098C195.489 178.711 195.489 175.727 196.877 173.638C198.573 171.251 201.503 170.206 204.124 170.803C206.9 171.848 208.904 174.086 209.059 176.622Z" fill="#3974AA"/>
<path d="M224.479 212.878C224.479 215.862 222.628 218.398 220.315 219.293C217.386 220.188 214.456 219.293 212.76 217.354C210.909 214.966 210.909 211.982 212.297 209.894C213.993 207.506 216.923 206.462 219.544 207.059C222.32 208.103 224.325 210.341 224.479 212.878Z" fill="#3974AA"/>
<path d="M206.129 264.799C203.662 267.336 199.961 268.231 197.031 267.037C193.639 265.545 191.788 262.412 191.943 259.428C192.405 255.847 194.872 253.162 197.956 252.416C201.503 251.67 205.05 253.162 206.746 255.698C208.442 258.831 208.134 262.412 206.129 264.799Z" fill="#3974AA"/>
<path d="M216.152 266.44C221.395 265.098 226.638 266.888 229.413 270.618C232.343 275.094 232.189 280.316 229.413 284.046C226.021 288.074 220.624 289.566 216.152 288.224C211.218 286.284 207.979 281.808 207.979 277.332C208.288 272.11 211.68 267.932 216.152 266.44Z" fill="#3974AA"/>
<path d="M189.475 312.096C194.718 310.753 199.961 312.543 202.737 316.273C205.666 320.749 205.512 325.971 202.737 329.701C199.344 333.73 193.947 335.222 189.475 333.879C184.541 331.939 181.303 327.463 181.303 322.987C181.611 317.765 185.004 313.588 189.475 312.096Z" fill="#3974AA"/>
<path d="M218.002 338.206C220.932 336.714 224.325 337.012 226.483 338.802C228.951 341.04 229.567 344.174 228.642 346.71C227.1 349.694 224.325 351.335 221.395 351.186C218.157 350.738 215.535 348.65 214.764 345.964C214.302 342.831 215.535 339.698 218.002 338.206Z" fill="#3974AA"/>
<path d="M218.619 375.506C222.166 374.76 225.712 376.252 227.408 378.788C229.105 381.921 228.796 385.502 226.792 387.889C224.324 390.426 220.624 391.321 217.694 390.127C214.301 388.635 212.451 385.502 212.605 382.518C213.068 378.937 215.535 376.252 218.619 375.506Z" fill="#3974AA"/>
<path d="M220.007 414.596C216.769 415.044 213.53 413.85 211.988 411.463C210.446 408.628 210.755 405.346 212.605 403.257C214.918 400.87 218.157 400.273 220.778 401.168C223.862 402.66 225.558 405.346 225.404 408.18C224.941 411.314 222.783 413.85 220.007 414.596Z" fill="#3974AA"/>
<path d="M201.811 457.864C204.741 456.372 208.134 456.67 210.292 458.461C212.76 460.699 213.376 463.832 212.451 466.368C210.909 469.352 208.134 470.994 205.204 470.844C201.966 470.397 199.344 468.308 198.573 465.622C198.111 462.489 199.344 459.356 201.811 457.864Z" fill="#3974AA"/>
<path d="M208.904 482.184C212.451 481.438 215.998 482.93 217.694 485.466C219.39 488.599 219.082 492.18 217.077 494.567C214.61 497.104 210.909 497.999 207.979 496.805C204.587 495.313 202.736 492.18 202.891 489.196C203.353 485.615 205.82 482.93 208.904 482.184Z" fill="#3974AA"/>
<path d="M209.059 500.983C212.605 500.237 216.152 501.729 217.848 504.265C219.544 507.398 219.236 510.979 217.231 513.366C214.764 515.903 211.063 516.798 208.134 515.604C204.741 514.112 202.891 510.979 203.045 507.995C203.508 504.414 205.975 501.729 209.059 500.983Z" fill="#3974AA"/>
<path d="M207.979 544.848C207.979 547.832 206.129 550.368 203.816 551.263C200.886 552.158 197.956 551.263 196.26 549.324C194.41 546.936 194.41 543.952 195.797 541.864C197.494 539.476 200.424 538.432 203.045 539.029C205.821 540.073 207.825 542.311 207.979 544.848Z" fill="#3974AA"/>
<path d="M247.3 22.3492C250.23 20.8572 253.622 21.1556 255.781 22.946C258.248 25.184 258.865 28.3172 257.94 30.8536C256.398 33.8376 253.622 35.4788 250.693 35.3296C247.454 34.882 244.833 32.7932 244.062 30.1076C243.599 26.9744 244.833 23.8412 247.3 22.3492Z" fill="#3974AA"/>
<path d="M244.062 51.8909C247.609 51.1449 251.155 52.6369 252.851 55.1733C254.548 58.3065 254.239 61.8873 252.235 64.2745C249.767 66.8109 246.067 67.7061 243.137 66.5125C239.744 65.0205 237.894 61.8873 238.048 58.9033C238.511 55.3225 240.978 52.6369 244.062 51.8909Z" fill="#3974AA"/>
<path d="M253.314 78.896C256.861 78.15 260.407 79.642 262.104 82.1784C263.8 85.3116 263.491 88.8924 261.487 91.2796C259.02 93.816 255.319 94.7112 252.389 93.5176C248.997 92.0256 247.146 88.8924 247.3 85.9084C247.763 82.3276 250.23 79.642 253.314 78.896Z" fill="#3974AA"/>
<path d="M225.712 124.104C222.474 124.551 219.236 123.358 217.694 120.97C216.152 118.136 216.46 114.853 218.311 112.764C220.624 110.377 223.862 109.78 226.483 110.676C229.567 112.168 231.263 114.853 231.109 117.688C230.647 120.821 228.488 123.358 225.712 124.104Z" fill="#3974AA"/>
<path d="M237.123 135.89C240.67 135.144 244.216 136.636 245.913 139.173C247.609 142.306 247.3 145.887 245.296 148.274C242.829 150.81 239.128 151.706 236.198 150.512C232.806 149.02 230.955 145.887 231.109 142.903C231.572 139.322 234.039 136.636 237.123 135.89Z" fill="#3974AA"/>
<path d="M241.749 203.926C239.282 206.462 235.581 207.357 232.651 206.164C229.259 204.672 227.408 201.538 227.563 198.554C228.025 194.974 230.492 192.288 233.576 191.542C237.123 190.796 240.67 192.288 242.366 194.824C244.062 197.958 243.754 201.538 241.749 203.926Z" fill="#3974AA"/>
<path d="M246.838 215.414C244.371 217.95 240.67 218.846 237.74 217.652C234.348 216.16 232.497 213.027 232.651 210.043C233.114 206.462 235.581 203.776 238.665 203.03C242.212 202.284 245.758 203.776 247.455 206.313C249.151 209.446 248.842 213.027 246.838 215.414Z" fill="#3974AA"/>
<path d="M237.586 268.38C235.119 270.916 231.418 271.812 228.488 270.618C225.096 269.126 223.245 265.993 223.399 263.009C223.862 259.428 226.329 256.742 229.413 255.996C232.96 255.25 236.506 256.742 238.203 259.279C239.899 262.412 239.59 265.993 237.586 268.38Z" fill="#3974AA"/>
<path d="M254.085 292.103C259.328 290.76 264.571 292.55 267.346 296.28C270.276 300.756 270.122 305.978 267.346 309.708C263.954 313.737 258.557 315.229 254.085 313.886C249.151 311.946 245.912 307.47 245.912 302.994C246.221 297.772 249.613 293.595 254.085 292.103Z" fill="#3974AA"/>
<path d="M243.291 307.918C248.534 306.575 253.777 308.366 256.552 312.096C259.482 316.572 259.328 321.794 256.552 325.524C253.16 329.552 247.763 331.044 243.291 329.701C238.357 327.762 235.118 323.286 235.118 318.81C235.427 313.588 238.819 309.41 243.291 307.918Z" fill="#3974AA"/>
<path d="M247.763 369.538C247.763 372.522 245.913 375.058 243.6 375.953C240.67 376.848 237.74 375.953 236.044 374.014C234.193 371.626 234.193 368.642 235.581 366.554C237.277 364.166 240.207 363.122 242.829 363.719C245.604 364.763 247.609 367.001 247.763 369.538Z" fill="#3974AA"/>
<path d="M259.791 399.079C257.323 401.616 253.623 402.511 250.693 401.317C247.3 399.825 245.45 396.692 245.604 393.708C246.067 390.127 248.534 387.442 251.618 386.696C255.165 385.95 258.711 387.442 260.407 389.978C262.104 393.111 261.795 396.692 259.791 399.079Z" fill="#3974AA"/>
<path d="M238.203 421.758C243.445 420.415 248.688 422.205 251.464 425.935C254.394 430.411 254.239 435.633 251.464 439.363C248.071 443.392 242.674 444.884 238.203 443.541C233.268 441.601 230.03 437.125 230.03 432.649C230.338 427.427 233.731 423.25 238.203 421.758Z" fill="#3974AA"/>
<path d="M242.983 461.296C240.515 463.832 236.815 464.727 233.885 463.534C230.492 462.042 228.642 458.908 228.796 455.924C229.259 452.344 231.726 449.658 234.81 448.912C238.357 448.166 241.903 449.658 243.599 452.194C245.296 455.328 244.987 458.908 242.983 461.296Z" fill="#3974AA"/>
<path d="M225.096 463.981C230.338 462.638 235.581 464.429 238.357 468.159C241.287 472.635 241.132 477.857 238.357 481.587C234.964 485.615 229.567 487.107 225.096 485.764C220.161 483.825 216.923 479.349 216.923 474.873C217.231 469.651 220.624 465.473 225.096 463.981Z" fill="#3974AA"/>
<path d="M242.058 518.29C239.59 520.826 235.89 521.722 232.96 520.528C229.567 519.036 227.717 515.903 227.871 512.919C228.334 509.338 230.801 506.652 233.885 505.906C237.432 505.16 240.978 506.652 242.674 509.189C244.371 512.322 244.062 515.903 242.058 518.29Z" fill="#3974AA"/>
<path d="M234.964 550.219C237.894 548.727 241.287 549.025 243.445 550.816C245.913 553.054 246.529 556.187 245.604 558.723C244.062 561.707 241.287 563.348 238.357 563.199C235.119 562.752 232.497 560.663 231.726 557.977C231.264 554.844 232.497 551.711 234.964 550.219Z" fill="#3974AA"/>
<path d="M290.476 6.98163C293.406 5.48963 296.799 5.78803 298.957 7.57843C301.425 9.81643 302.041 12.9496 301.116 15.486C299.574 18.47 296.799 20.1112 293.869 19.962C290.631 19.5144 288.009 17.4256 287.238 14.74C286.776 11.6068 288.009 8.47363 290.476 6.98163Z" fill="#3974AA"/>
<path d="M286.005 66.5124C288.934 65.0204 292.327 65.3188 294.486 67.1092C296.953 69.3472 297.57 72.4804 296.644 75.0168C295.102 78.0008 292.327 79.642 289.397 79.4928C286.159 79.0452 283.537 76.9564 282.766 74.2708C282.304 71.1376 283.537 68.0044 286.005 66.5124Z" fill="#3974AA"/>
<path d="M285.079 96.054C285.079 99.038 283.229 101.574 280.916 102.47C277.986 103.365 275.056 102.47 273.36 100.53C271.51 98.1428 271.51 95.1588 272.898 93.07C274.594 90.6828 277.524 89.6384 280.145 90.2352C282.921 91.2796 284.925 93.5176 285.079 96.054Z" fill="#3974AA"/>
<path d="M279.991 122.612C277.524 125.148 273.823 126.043 270.893 124.85C267.501 123.358 265.65 120.224 265.804 117.24C266.267 113.66 268.734 110.974 271.818 110.228C275.365 109.482 278.911 110.974 280.608 113.51C282.304 116.644 281.995 120.224 279.991 122.612Z" fill="#3974AA"/>
<path d="M255.781 142.604C261.024 141.262 266.267 143.052 269.043 146.782C271.972 151.258 271.818 156.48 269.043 160.21C265.65 164.238 260.253 165.73 255.781 164.388C250.847 162.448 247.609 157.972 247.609 153.496C247.917 148.274 251.31 144.096 255.781 142.604Z" fill="#3974AA"/>
<path d="M280.762 197.51C284.308 196.764 287.855 198.256 289.551 200.792C291.247 203.926 290.939 207.506 288.934 209.894C286.467 212.43 282.766 213.325 279.836 212.132C276.444 210.64 274.594 207.506 274.748 204.522C275.21 200.942 277.678 198.256 280.762 197.51Z" fill="#3974AA"/>
<path d="M263.029 208.7C266.575 207.954 270.122 209.446 271.818 211.982C273.514 215.116 273.206 218.696 271.201 221.084C268.734 223.62 265.033 224.515 262.104 223.322C258.711 221.83 256.861 218.696 257.015 215.712C257.478 212.132 259.945 209.446 263.029 208.7Z" fill="#3974AA"/>
<path d="M282.766 248.238C279.528 248.686 276.29 247.492 274.748 245.105C273.206 242.27 273.514 238.988 275.365 236.899C277.678 234.512 280.916 233.915 283.537 234.81C286.621 236.302 288.317 238.988 288.163 241.822C287.701 244.956 285.542 247.492 282.766 248.238Z" fill="#3974AA"/>
<path d="M270.739 286.881C270.739 289.865 268.888 292.401 266.575 293.296C263.646 294.192 260.716 293.296 259.02 291.357C257.169 288.97 257.169 285.986 258.557 283.897C260.253 281.51 263.183 280.465 265.804 281.062C268.58 282.106 270.585 284.344 270.739 286.881Z" fill="#3974AA"/>
<path d="M287.701 342.831C284.462 343.278 281.224 342.085 279.682 339.698C278.14 336.863 278.449 333.58 280.299 331.492C282.612 329.104 285.85 328.508 288.472 329.403C291.556 330.895 293.252 333.58 293.098 336.415C292.635 339.548 290.476 342.085 287.701 342.831Z" fill="#3974AA"/>
<path d="M271.664 329.254C276.907 327.911 282.15 329.701 284.925 333.431C287.855 337.907 287.701 343.129 284.925 346.859C281.533 350.888 276.136 352.38 271.664 351.037C266.73 349.097 263.491 344.621 263.491 340.145C263.8 334.923 267.192 330.746 271.664 329.254Z" fill="#3974AA"/>
<path d="M262.875 377.893C268.117 376.55 273.36 378.34 276.136 382.07C279.066 386.546 278.911 391.768 276.136 395.498C272.743 399.527 267.346 401.019 262.875 399.676C257.94 397.736 254.702 393.26 254.702 388.784C255.01 383.562 258.403 379.385 262.875 377.893Z" fill="#3974AA"/>
<path d="M259.636 412.209C262.566 410.717 265.959 411.015 268.117 412.806C270.585 415.044 271.201 418.177 270.276 420.713C268.734 423.697 265.959 425.338 263.029 425.189C259.791 424.742 257.169 422.653 256.398 419.967C255.936 416.834 257.169 413.701 259.636 412.209Z" fill="#3974AA"/>
<path d="M293.098 451.299C293.098 454.283 291.247 456.82 288.934 457.715C286.004 458.61 283.075 457.715 281.378 455.775C279.528 453.388 279.528 450.404 280.916 448.315C282.612 445.928 285.542 444.884 288.163 445.48C290.939 446.525 292.943 448.763 293.098 451.299Z" fill="#3974AA"/>
<path d="M281.995 488.45C285.542 487.704 289.089 489.196 290.785 491.732C292.481 494.866 292.173 498.446 290.168 500.834C287.701 503.37 284 504.265 281.07 503.072C277.678 501.58 275.827 498.446 275.982 495.462C276.444 491.882 278.911 489.196 281.995 488.45Z" fill="#3974AA"/>
<path d="M258.711 508.741C261.641 507.249 265.033 507.548 267.192 509.338C269.659 511.576 270.276 514.709 269.351 517.246C267.809 520.23 265.033 521.871 262.104 521.722C258.865 521.274 256.244 519.185 255.473 516.5C255.01 513.367 256.244 510.233 258.711 508.741Z" fill="#3974AA"/>
<path d="M263.8 547.981C266.729 546.489 270.122 546.787 272.281 548.578C274.748 550.816 275.365 553.949 274.439 556.485C272.897 559.469 270.122 561.111 267.192 560.961C263.954 560.514 261.332 558.425 260.561 555.739C260.099 552.606 261.332 549.473 263.8 547.981Z" fill="#3974AA"/>
<path d="M330.106 42.7897C327.639 45.3261 323.938 46.2213 321.008 45.0277C317.616 43.5357 315.765 40.4025 315.919 37.4185C316.382 33.8377 318.849 31.1521 321.933 30.4061C325.48 29.6601 329.026 31.1521 330.723 33.6885C332.419 36.8217 332.11 40.4025 330.106 42.7897Z" fill="#3974AA"/>
<path d="M304.971 43.3864C307.901 41.8944 311.293 42.1928 313.452 43.9832C315.919 46.2212 316.536 49.3544 315.611 51.8908C314.069 54.8748 311.293 56.516 308.364 56.3668C305.125 55.9192 302.504 53.8304 301.733 51.1448C301.27 48.0116 302.504 44.8784 304.971 43.3864Z" fill="#3974AA"/>
<path d="M311.602 96.5017C308.363 96.9493 305.125 95.7557 303.583 93.3685C302.041 90.5337 302.35 87.2513 304.2 85.1625C306.513 82.7753 309.751 82.1785 312.373 83.0737C315.457 84.5657 317.153 87.2513 316.999 90.0861C316.536 93.2193 314.377 95.7557 311.602 96.5017Z" fill="#3974AA"/>
<path d="M305.434 96.2032C310.677 94.8604 315.919 96.6508 318.695 100.381C321.625 104.857 321.471 110.079 318.695 113.809C315.303 117.837 309.906 119.329 305.434 117.986C300.499 116.047 297.261 111.571 297.261 107.095C297.57 101.873 300.962 97.6952 305.434 96.2032Z" fill="#3974AA"/>
<path d="M292.172 131.862C297.415 130.519 302.658 132.31 305.434 136.04C308.363 140.516 308.209 145.738 305.434 149.468C302.041 153.496 296.644 154.988 292.172 153.645C287.238 151.706 284 147.23 284 142.754C284.308 137.532 287.701 133.354 292.172 131.862Z" fill="#3974AA"/>
<path d="M325.171 196.466C322.704 199.002 319.003 199.897 316.074 198.704C312.681 197.212 310.831 194.078 310.985 191.094C311.448 187.514 313.915 184.828 316.999 184.082C320.545 183.336 324.092 184.828 325.788 187.364C327.484 190.498 327.176 194.078 325.171 196.466Z" fill="#3974AA"/>
<path d="M315.457 210.192C319.003 209.446 322.55 210.938 324.246 213.474C325.942 216.608 325.634 220.188 323.629 222.576C321.162 225.112 317.461 226.007 314.531 224.814C311.139 223.322 309.289 220.188 309.443 217.204C309.905 213.624 312.373 210.938 315.457 210.192Z" fill="#3974AA"/>
<path d="M317.616 257.488C317.616 260.472 315.765 263.009 313.452 263.904C310.522 264.799 307.593 263.904 305.896 261.964C304.046 259.577 304.046 256.593 305.434 254.504C307.13 252.117 310.06 251.073 312.681 251.67C315.457 252.714 317.461 254.952 317.616 257.488Z" fill="#3974AA"/>
<path d="M329.797 284.494C326.559 284.941 323.321 283.748 321.779 281.36C320.237 278.526 320.545 275.243 322.396 273.154C324.709 270.767 327.947 270.17 330.568 271.066C333.652 272.558 335.349 275.243 335.194 278.078C334.732 281.211 332.573 283.748 329.797 284.494Z" fill="#3974AA"/>
<path d="M330.106 333.431C327.639 335.968 323.938 336.863 321.008 335.669C317.616 334.177 315.765 331.044 315.919 328.06C316.382 324.479 318.849 321.794 321.933 321.048C325.48 320.302 329.026 321.794 330.723 324.33C332.419 327.463 332.11 331.044 330.106 333.431Z" fill="#3974AA"/>
<path d="M297.878 354.021C303.121 352.678 308.364 354.468 311.139 358.198C314.069 362.674 313.915 367.896 311.139 371.626C307.747 375.655 302.35 377.147 297.878 375.804C292.944 373.864 289.705 369.388 289.705 364.912C290.014 359.69 293.406 355.513 297.878 354.021Z" fill="#3974AA"/>
<path d="M303.429 396.841C306.976 396.095 310.522 397.587 312.218 400.124C313.915 403.257 313.606 406.838 311.602 409.225C309.134 411.761 305.434 412.656 302.504 411.463C299.111 409.971 297.261 406.838 297.415 403.854C297.878 400.273 300.345 397.587 303.429 396.841Z" fill="#3974AA"/>
<path d="M313.452 425.488C318.695 424.145 323.938 425.935 326.713 429.665C329.643 434.141 329.489 439.363 326.713 443.093C323.321 447.122 317.924 448.614 313.452 447.271C308.518 445.331 305.279 440.855 305.279 436.379C305.588 431.157 308.98 426.98 313.452 425.488Z" fill="#3974AA"/>
<path d="M298.649 453.09C302.195 452.344 305.742 453.836 307.438 456.372C309.134 459.505 308.826 463.086 306.821 465.473C304.354 468.01 300.653 468.905 297.724 467.711C294.331 466.219 292.481 463.086 292.635 460.102C293.098 456.521 295.565 453.836 298.649 453.09Z" fill="#3974AA"/>
<path d="M322.704 480.542C326.251 479.796 329.797 481.288 331.494 483.825C333.19 486.958 332.881 490.539 330.877 492.926C328.41 495.462 324.709 496.358 321.779 495.164C318.387 493.672 316.536 490.539 316.69 487.555C317.153 483.974 319.62 481.288 322.704 480.542Z" fill="#3974AA"/>
<path d="M308.98 539.626C305.742 540.073 302.504 538.88 300.962 536.493C299.42 533.658 299.728 530.375 301.579 528.287C303.892 525.899 307.13 525.303 309.751 526.198C312.835 527.69 314.532 530.375 314.377 533.21C313.915 536.343 311.756 538.88 308.98 539.626Z" fill="#3974AA"/>
<path d="M302.504 545.892C302.504 548.876 300.654 551.412 298.341 552.308C295.411 553.203 292.481 552.308 290.785 550.368C288.934 547.981 288.934 544.997 290.322 542.908C292.018 540.521 294.948 539.476 297.57 540.073C300.345 541.118 302.35 543.356 302.504 545.892Z" fill="#3974AA"/>
<path d="M335.04 27.4221C331.802 27.8697 328.564 26.6761 327.022 24.2889C325.48 21.4541 325.788 18.1717 327.639 16.0829C329.952 13.6957 333.19 13.0989 335.811 13.9941C338.895 15.4861 340.591 18.1717 340.437 21.0065C339.975 24.1397 337.816 26.6761 335.04 27.4221Z" fill="#3974AA"/>
<path d="M341.054 42.342C341.054 45.326 339.204 47.8624 336.891 48.7576C333.961 49.6528 331.031 48.7576 329.335 46.818C327.484 44.4308 327.484 41.4468 328.872 39.358C330.568 36.9708 333.498 35.9264 336.12 36.5232C338.895 37.5676 340.9 39.8056 341.054 42.342Z" fill="#3974AA"/>
<path d="M358.324 85.3117C358.324 88.2957 356.474 90.8321 354.161 91.7273C351.231 92.6225 348.301 91.7273 346.605 89.7877C344.755 87.4005 344.755 84.4165 346.143 82.3277C347.839 79.9405 350.769 78.8961 353.39 79.4929C356.166 80.5373 358.17 82.7753 358.324 85.3117Z" fill="#3974AA"/>
<path d="M352.156 122.761C355.703 122.015 359.249 123.507 360.946 126.043C362.642 129.176 362.333 132.757 360.329 135.144C357.862 137.681 354.161 138.576 351.231 137.382C347.839 135.89 345.988 132.757 346.142 129.773C346.605 126.192 349.072 123.507 352.156 122.761Z" fill="#3974AA"/>
<path d="M352.927 163.492C355.857 162 359.249 162.299 361.408 164.089C363.875 166.327 364.492 169.46 363.567 171.997C362.025 174.981 359.249 176.622 356.32 176.473C353.081 176.025 350.46 173.936 349.689 171.251C349.226 168.118 350.46 164.984 352.927 163.492Z" fill="#3974AA"/>
<path d="M344.292 191.542C347.222 190.05 350.614 190.348 352.773 192.139C355.24 194.377 355.857 197.51 354.932 200.046C353.39 203.03 350.614 204.672 347.684 204.522C344.446 204.075 341.825 201.986 341.054 199.3C340.591 196.167 341.825 193.034 344.292 191.542Z" fill="#3974AA"/>
<path d="M341.208 219.89C338.741 222.426 335.04 223.322 332.11 222.128C328.718 220.636 326.867 217.503 327.022 214.519C327.484 210.938 329.951 208.252 333.035 207.506C336.582 206.76 340.129 208.252 341.825 210.789C343.521 213.922 343.213 217.503 341.208 219.89Z" fill="#3974AA"/>
<path d="M345.834 240.629C351.077 239.286 356.32 241.076 359.095 244.806C362.025 249.282 361.871 254.504 359.095 258.234C355.703 262.263 350.306 263.755 345.834 262.412C340.9 260.472 337.661 255.996 337.661 251.52C337.97 246.298 341.362 242.121 345.834 240.629Z" fill="#3974AA"/>
<path d="M356.011 292.103C359.558 291.357 363.104 292.849 364.801 295.385C366.497 298.518 366.188 302.099 364.184 304.486C361.717 307.023 358.016 307.918 355.086 306.724C351.694 305.232 349.843 302.099 349.997 299.115C350.46 295.534 352.927 292.849 356.011 292.103Z" fill="#3974AA"/>
<path d="M326.251 307.172C329.18 305.68 332.573 305.978 334.732 307.769C337.199 310.007 337.816 313.14 336.89 315.676C335.348 318.66 332.573 320.302 329.643 320.152C326.405 319.705 323.783 317.616 323.012 314.93C322.55 311.797 323.783 308.664 326.251 307.172Z" fill="#3974AA"/>
<path d="M362.642 360.884C362.642 363.868 360.791 366.404 358.478 367.3C355.549 368.195 352.619 367.3 350.923 365.36C349.072 362.973 349.072 359.989 350.46 357.9C352.156 355.513 355.086 354.468 357.707 355.065C360.483 356.11 362.488 358.348 362.642 360.884Z" fill="#3974AA"/>
<path d="M349.997 381.175C352.927 379.683 356.32 379.982 358.478 381.772C360.946 384.01 361.562 387.143 360.637 389.68C359.095 392.664 356.32 394.305 353.39 394.156C350.152 393.708 347.53 391.619 346.759 388.934C346.297 385.8 347.53 382.667 349.997 381.175Z" fill="#3974AA"/>
<path d="M357.399 412.358C354.161 412.806 350.923 411.612 349.381 409.225C347.839 406.39 348.147 403.108 349.997 401.019C352.31 398.632 355.549 398.035 358.17 398.93C361.254 400.422 362.95 403.108 362.796 405.942C362.333 409.076 360.175 411.612 357.399 412.358Z" fill="#3974AA"/>
<path d="M336.736 436.678C340.283 435.932 343.83 437.424 345.526 439.96C347.222 443.093 346.914 446.674 344.909 449.061C342.442 451.598 338.741 452.493 335.811 451.299C332.419 449.807 330.568 446.674 330.723 443.69C331.185 440.109 333.652 437.424 336.736 436.678Z" fill="#3974AA"/>
<path d="M356.937 464.578C362.179 463.235 367.422 465.026 370.198 468.756C373.128 473.232 372.973 478.454 370.198 482.184C366.805 486.212 361.408 487.704 356.937 486.361C352.002 484.422 348.764 479.946 348.764 475.47C349.072 470.248 352.465 466.07 356.937 464.578Z" fill="#3974AA"/>
<path d="M367.268 519.782C364.801 522.318 361.1 523.214 358.17 522.02C354.778 520.528 352.927 517.395 353.081 514.411C353.544 510.83 356.011 508.144 359.095 507.398C362.642 506.652 366.188 508.144 367.885 510.681C369.581 513.814 369.272 517.395 367.268 519.782Z" fill="#3974AA"/>
<path d="M328.718 552.755C333.961 551.412 339.203 553.203 341.979 556.933C344.909 561.409 344.755 566.631 341.979 570.361C338.587 574.389 333.19 575.881 328.718 574.538C323.783 572.599 320.545 568.123 320.545 563.647C320.854 558.425 324.246 554.247 328.718 552.755Z" fill="#3974AA"/>
<path d="M405.664 44.2817C403.197 46.8181 399.496 47.7133 396.566 46.5197C393.174 45.0277 391.323 41.8945 391.477 38.9105C391.94 35.3297 394.407 32.6441 397.491 31.8981C401.038 31.1521 404.584 32.6441 406.281 35.1805C407.977 38.3137 407.668 41.8945 405.664 44.2817Z" fill="#3974AA"/>
<path d="M391.631 41.5961C396.874 40.2533 402.117 42.0437 404.893 45.7737C407.822 50.2497 407.668 55.4717 404.893 59.2017C401.5 63.2301 396.103 64.7221 391.631 63.3793C386.697 61.4397 383.459 56.9637 383.459 52.4877C383.767 47.2657 387.16 43.0881 391.631 41.5961Z" fill="#3974AA"/>
<path d="M373.127 80.2389C376.057 78.7469 379.45 79.0453 381.608 80.8357C384.076 83.0737 384.692 86.2069 383.767 88.7433C382.225 91.7273 379.45 93.3685 376.52 93.2193C373.282 92.7717 370.66 90.6829 369.889 87.9973C369.427 84.8641 370.66 81.7309 373.127 80.2389Z" fill="#3974AA"/>
<path d="M378.062 104.26C383.305 102.917 388.547 104.708 391.323 108.438C394.253 112.914 394.099 118.136 391.323 121.866C387.931 125.894 382.534 127.386 378.062 126.043C373.127 124.104 369.889 119.628 369.889 115.152C370.198 109.93 373.59 105.752 378.062 104.26Z" fill="#3974AA"/>
<path d="M383.613 168.565C380.375 169.013 377.137 167.819 375.595 165.432C374.053 162.597 374.361 159.315 376.211 157.226C378.524 154.839 381.763 154.242 384.384 155.137C387.468 156.629 389.164 159.315 389.01 162.15C388.547 165.283 386.389 167.819 383.613 168.565Z" fill="#3974AA"/>
<path d="M392.248 183.187C395.795 182.441 399.342 183.933 401.038 186.469C402.734 189.602 402.426 193.183 400.421 195.57C397.954 198.107 394.253 199.002 391.323 197.808C387.931 196.316 386.08 193.183 386.235 190.199C386.697 186.618 389.164 183.933 392.248 183.187Z" fill="#3974AA"/>
<path d="M392.557 227.499C389.319 227.947 386.08 226.753 384.538 224.366C382.996 221.531 383.305 218.249 385.155 216.16C387.468 213.773 390.706 213.176 393.328 214.071C396.412 215.563 398.108 218.249 397.954 221.084C397.491 224.217 395.332 226.753 392.557 227.499Z" fill="#3974AA"/>
<path d="M364.03 246.895C366.96 245.403 370.352 245.702 372.511 247.492C374.978 249.73 375.595 252.863 374.67 255.4C373.128 258.384 370.352 260.025 367.422 259.876C364.184 259.428 361.563 257.339 360.792 254.654C360.329 251.52 361.563 248.387 364.03 246.895Z" fill="#3974AA"/>
<path d="M383.305 294.042C388.547 292.7 393.79 294.49 396.566 298.22C399.496 302.696 399.341 307.918 396.566 311.648C393.173 315.676 387.776 317.168 383.305 315.826C378.37 313.886 375.132 309.41 375.132 304.934C375.44 299.712 378.833 295.534 383.305 294.042Z" fill="#3974AA"/>
<path d="M386.389 307.769C391.631 306.426 396.874 308.216 399.65 311.946C402.58 316.422 402.425 321.644 399.65 325.374C396.257 329.403 390.86 330.895 386.389 329.552C381.454 327.612 378.216 323.136 378.216 318.66C378.524 313.438 381.917 309.261 386.389 307.769Z" fill="#3974AA"/>
<path d="M391.169 343.577C394.715 342.831 398.262 344.323 399.958 346.859C401.654 349.992 401.346 353.573 399.341 355.96C396.874 358.497 393.173 359.392 390.244 358.198C386.851 356.706 385.001 353.573 385.155 350.589C385.618 347.008 388.085 344.323 391.169 343.577Z" fill="#3974AA"/>
<path d="M402.271 387.74C399.804 390.276 396.103 391.172 393.174 389.978C389.781 388.486 387.931 385.353 388.085 382.369C388.548 378.788 391.015 376.102 394.099 375.356C397.645 374.61 401.192 376.102 402.888 378.639C404.584 381.772 404.276 385.353 402.271 387.74Z" fill="#3974AA"/>
<path d="M385.464 404.898C385.464 407.882 383.613 410.418 381.3 411.314C378.37 412.209 375.441 411.314 373.744 409.374C371.894 406.987 371.894 404.003 373.282 401.914C374.978 399.527 377.908 398.482 380.529 399.079C383.305 400.124 385.309 402.362 385.464 404.898Z" fill="#3974AA"/>
<path d="M388.702 462.788C392.248 462.042 395.795 463.534 397.491 466.07C399.187 469.203 398.879 472.784 396.874 475.171C394.407 477.708 390.706 478.603 387.777 477.409C384.384 475.917 382.534 472.784 382.688 469.8C383.151 466.219 385.618 463.534 388.702 462.788Z" fill="#3974AA"/>
<path d="M387.777 506.354C384.538 506.802 381.3 505.608 379.758 503.221C378.216 500.386 378.525 497.104 380.375 495.015C382.688 492.628 385.926 492.031 388.548 492.926C391.632 494.418 393.328 497.104 393.174 499.939C392.711 503.072 390.552 505.608 387.777 506.354Z" fill="#3974AA"/>
<path d="M380.683 502.922C384.23 502.176 387.777 503.668 389.473 506.205C391.169 509.338 390.861 512.919 388.856 515.306C386.389 517.842 382.688 518.738 379.758 517.544C376.366 516.052 374.515 512.919 374.67 509.935C375.132 506.354 377.599 503.668 380.683 502.922Z" fill="#3974AA"/>
<path d="M401.192 541.864C401.192 544.848 399.342 547.384 397.029 548.279C394.099 549.174 391.169 548.279 389.473 546.34C387.622 543.952 387.622 540.968 389.01 538.88C390.706 536.492 393.636 535.448 396.258 536.045C399.033 537.089 401.038 539.327 401.192 541.864Z" fill="#3974AA"/>
<path d="M418 12.3528C421.546 11.6068 425.093 13.0988 426.789 15.6352C428.485 18.7684 428.177 22.3492 426.172 24.7364C423.705 27.2728 420.004 28.168 417.075 26.9744C413.682 25.4824 411.832 22.3492 411.986 19.3652C412.449 15.7844 414.916 13.0988 418 12.3528Z" fill="#3974AA"/>
<path d="M401.963 59.6492C407.206 58.3064 412.448 60.0968 415.224 63.8268C418.154 68.3028 418 73.5248 415.224 77.2548C411.832 81.2832 406.435 82.7752 401.963 81.4324C397.028 79.4928 393.79 75.0168 393.79 70.5408C394.099 65.3188 397.491 61.1412 401.963 59.6492Z" fill="#3974AA"/>
<path d="M403.659 83.2229C406.589 81.7309 409.981 82.0293 412.14 83.8197C414.607 86.0577 415.224 89.1909 414.299 91.7273C412.757 94.7113 409.981 96.3525 407.051 96.2033C403.813 95.7557 401.192 93.6669 400.421 90.9813C399.958 87.8481 401.192 84.7149 403.659 83.2229Z" fill="#3974AA"/>
<path d="M431.107 116.644C427.868 117.091 424.63 115.898 423.088 113.51C421.546 110.676 421.855 107.393 423.705 105.304C426.018 102.917 429.256 102.32 431.878 103.216C434.962 104.708 436.658 107.393 436.504 110.228C436.041 113.361 433.882 115.898 431.107 116.644Z" fill="#3974AA"/>
<path d="M417.691 170.952C415.224 173.489 411.523 174.384 408.594 173.19C405.201 171.698 403.351 168.565 403.505 165.581C403.968 162 406.435 159.315 409.519 158.569C413.065 157.823 416.612 159.315 418.308 161.851C420.004 164.984 419.696 168.565 417.691 170.952Z" fill="#3974AA"/>
<path d="M426.172 194.974C426.172 197.958 424.322 200.494 422.009 201.389C419.079 202.284 416.149 201.389 414.453 199.45C412.603 197.062 412.603 194.078 413.99 191.99C415.687 189.602 418.616 188.558 421.238 189.155C424.013 190.199 426.018 192.437 426.172 194.974Z" fill="#3974AA"/>
<path d="M411.061 221.83C416.304 220.487 421.546 222.277 424.322 226.007C427.252 230.483 427.098 235.705 424.322 239.435C420.93 243.464 415.533 244.956 411.061 243.613C406.126 241.673 402.888 237.197 402.888 232.721C403.197 227.499 406.589 223.322 411.061 221.83Z" fill="#3974AA"/>
<path d="M409.519 267.186C407.051 269.723 403.351 270.618 400.421 269.424C397.028 267.932 395.178 264.799 395.332 261.815C395.795 258.234 398.262 255.549 401.346 254.803C404.893 254.057 408.439 255.549 410.135 258.085C411.832 261.218 411.523 264.799 409.519 267.186Z" fill="#3974AA"/>
<path d="M422.163 272.856C425.71 272.11 429.256 273.602 430.953 276.138C432.649 279.272 432.34 282.852 430.336 285.24C427.869 287.776 424.168 288.671 421.238 287.478C417.846 285.986 415.995 282.852 416.149 279.868C416.612 276.288 419.079 273.602 422.163 272.856Z" fill="#3974AA"/>
<path d="M401.192 310.156C404.739 309.41 408.285 310.902 409.981 313.438C411.678 316.572 411.369 320.152 409.365 322.54C406.897 325.076 403.197 325.971 400.267 324.778C396.874 323.286 395.024 320.152 395.178 317.168C395.641 313.588 398.108 310.902 401.192 310.156Z" fill="#3974AA"/>
<path d="M400.729 362.078C403.659 360.586 407.052 360.884 409.21 362.674C411.678 364.912 412.294 368.046 411.369 370.582C409.827 373.566 407.052 375.207 404.122 375.058C400.884 374.61 398.262 372.522 397.491 369.836C397.029 366.703 398.262 363.57 400.729 362.078Z" fill="#3974AA"/>
<path d="M405.355 402.212C402.117 402.66 398.879 401.466 397.337 399.079C395.795 396.244 396.103 392.962 397.954 390.873C400.267 388.486 403.505 387.889 406.126 388.784C409.21 390.276 410.907 392.962 410.752 395.797C410.29 398.93 408.131 401.466 405.355 402.212Z" fill="#3974AA"/>
<path d="M435.116 421.012C435.116 423.996 433.265 426.532 430.952 427.427C428.023 428.323 425.093 427.427 423.397 425.488C421.546 423.101 421.546 420.117 422.934 418.028C424.63 415.641 427.56 414.596 430.181 415.193C432.957 416.237 434.962 418.475 435.116 421.012Z" fill="#3974AA"/>
<path d="M412.294 445.928C412.294 448.912 410.444 451.448 408.131 452.344C405.201 453.239 402.271 452.344 400.575 450.404C398.725 448.017 398.725 445.033 400.113 442.944C401.809 440.557 404.739 439.512 407.36 440.109C410.136 441.154 412.14 443.392 412.294 445.928Z" fill="#3974AA"/>
<path d="M435.579 500.834C432.34 501.281 429.102 500.088 427.56 497.7C426.018 494.866 426.327 491.583 428.177 489.494C430.49 487.107 433.728 486.51 436.35 487.406C439.434 488.898 441.13 491.583 440.976 494.418C440.513 497.551 438.354 500.088 435.579 500.834Z" fill="#3974AA"/>
<path d="M419.542 520.23C423.088 519.484 426.635 520.976 428.331 523.512C430.027 526.645 429.719 530.226 427.714 532.613C425.247 535.15 421.546 536.045 418.617 534.851C415.224 533.359 413.374 530.226 413.528 527.242C413.991 523.661 416.458 520.976 419.542 520.23Z" fill="#3974AA"/>
<path d="M419.542 549.92C423.088 549.174 426.635 550.666 428.331 553.203C430.027 556.336 429.719 559.917 427.714 562.304C425.247 564.84 421.546 565.736 418.617 564.542C415.224 563.05 413.374 559.917 413.528 556.933C413.991 553.352 416.458 550.666 419.542 549.92Z" fill="#3974AA"/>
<path d="M468.732 23.3937C472.278 22.6477 475.825 24.1397 477.521 26.6761C479.217 29.8093 478.909 33.3901 476.904 35.7773C474.437 38.3137 470.736 39.2089 467.806 38.0153C464.414 36.5233 462.564 33.3901 462.718 30.4061C463.18 26.8253 465.648 24.1397 468.732 23.3937Z" fill="#3974AA"/>
<path d="M457.629 53.0844C460.559 51.5924 463.951 51.8908 466.11 53.6812C468.577 55.9192 469.194 59.0524 468.269 61.5888C466.727 64.5728 463.951 66.214 461.021 66.0648C457.783 65.6172 455.162 63.5284 454.391 60.8428C453.928 57.7096 455.162 54.5764 457.629 53.0844Z" fill="#3974AA"/>
<path d="M440.667 88.4449C444.214 87.6989 447.76 89.1909 449.457 91.7273C451.153 94.8605 450.844 98.4413 448.84 100.828C446.373 103.365 442.672 104.26 439.742 103.066C436.35 101.574 434.499 98.4413 434.653 95.4573C435.116 91.8765 437.583 89.1909 440.667 88.4449Z" fill="#3974AA"/>
<path d="M448.531 139.322C448.531 142.306 446.681 144.842 444.368 145.738C441.438 146.633 438.508 145.738 436.812 143.798C434.962 141.411 434.962 138.427 436.35 136.338C438.046 133.951 440.976 132.906 443.597 133.503C446.373 134.548 448.377 136.786 448.531 139.322Z" fill="#3974AA"/>
<path d="M459.171 133.354C462.718 132.608 466.264 134.1 467.96 136.636C469.657 139.77 469.348 143.35 467.344 145.738C464.876 148.274 461.176 149.169 458.246 147.976C454.853 146.484 453.003 143.35 453.157 140.366C453.62 136.786 456.087 134.1 459.171 133.354Z" fill="#3974AA"/>
<path d="M440.513 194.974C444.059 194.228 447.606 195.72 449.302 198.256C450.998 201.389 450.69 204.97 448.685 207.357C446.218 209.894 442.517 210.789 439.588 209.595C436.195 208.103 434.345 204.97 434.499 201.986C434.962 198.405 437.429 195.72 440.513 194.974Z" fill="#3974AA"/>
<path d="M474.129 222.576C474.129 225.56 472.278 228.096 469.965 228.991C467.035 229.886 464.106 228.991 462.409 227.052C460.559 224.664 460.559 221.68 461.947 219.592C463.643 217.204 466.573 216.16 469.194 216.757C471.97 217.801 473.974 220.039 474.129 222.576Z" fill="#3974AA"/>
<path d="M471.353 271.662C468.115 272.11 464.876 270.916 463.334 268.529C461.792 265.694 462.101 262.412 463.951 260.323C466.264 257.936 469.502 257.339 472.124 258.234C475.208 259.726 476.904 262.412 476.75 265.247C476.287 268.38 474.128 270.916 471.353 271.662Z" fill="#3974AA"/>
<path d="M473.358 284.643C473.358 287.627 471.507 290.163 469.194 291.058C466.264 291.954 463.335 291.058 461.638 289.119C459.788 286.732 459.788 283.748 461.176 281.659C462.872 279.272 465.802 278.227 468.423 278.824C471.199 279.868 473.203 282.106 473.358 284.643Z" fill="#3974AA"/>
<path d="M448.223 324.181C448.223 327.165 446.373 329.701 444.06 330.596C441.13 331.492 438.2 330.596 436.504 328.657C434.653 326.27 434.653 323.286 436.041 321.197C437.737 318.81 440.667 317.765 443.289 318.362C446.064 319.406 448.069 321.644 448.223 324.181Z" fill="#3974AA"/>
<path d="M457.167 340.742C460.713 339.996 464.26 341.488 465.956 344.024C467.652 347.158 467.344 350.738 465.339 353.126C462.872 355.662 459.171 356.557 456.241 355.364C452.849 353.872 450.999 350.738 451.153 347.754C451.615 344.174 454.083 341.488 457.167 340.742Z" fill="#3974AA"/>
<path d="M458.554 399.825C458.554 402.809 456.704 405.346 454.391 406.241C451.461 407.136 448.531 406.241 446.835 404.301C444.985 401.914 444.985 398.93 446.373 396.841C448.069 394.454 450.999 393.41 453.62 394.006C456.396 395.051 458.4 397.289 458.554 399.825Z" fill="#3974AA"/>
<path d="M456.55 427.278C459.48 425.786 462.872 426.084 465.031 427.875C467.498 430.113 468.115 433.246 467.19 435.782C465.648 438.766 462.872 440.408 459.942 440.258C456.704 439.811 454.083 437.722 453.312 435.036C452.849 431.903 454.083 428.77 456.55 427.278Z" fill="#3974AA"/>
<path d="M448.994 452.195C454.237 450.852 459.479 452.642 462.255 456.372C465.185 460.848 465.031 466.07 462.255 469.8C458.863 473.829 453.466 475.321 448.994 473.978C444.059 472.038 440.821 467.562 440.821 463.086C441.13 457.864 444.522 453.687 448.994 452.195Z" fill="#3974AA"/>
<path d="M473.049 500.983C470.582 503.519 466.881 504.414 463.951 503.221C460.559 501.729 458.709 498.596 458.863 495.612C459.325 492.031 461.793 489.345 464.877 488.599C468.423 487.853 471.97 489.345 473.666 491.882C475.362 495.015 475.054 498.596 473.049 500.983Z" fill="#3974AA"/>
<path d="M469.194 517.395C465.956 517.843 462.718 516.649 461.176 514.262C459.634 511.427 459.942 508.145 461.793 506.056C464.106 503.669 467.344 503.072 469.965 503.967C473.049 505.459 474.745 508.145 474.591 510.979C474.129 514.113 471.97 516.649 469.194 517.395Z" fill="#3974AA"/>
<path d="M444.214 558.425C441.747 560.961 438.046 561.857 435.116 560.663C431.724 559.171 429.873 556.038 430.027 553.054C430.49 549.473 432.957 546.787 436.041 546.041C439.588 545.295 443.134 546.787 444.831 549.324C446.527 552.457 446.218 556.038 444.214 558.425Z" fill="#3974AA"/>
<path d="M491.707 11.756C496.95 10.4132 502.193 12.2036 504.969 15.9336C507.898 20.4096 507.744 25.6316 504.969 29.3616C501.576 33.39 496.179 34.882 491.707 33.5392C486.773 31.5996 483.535 27.1236 483.535 22.6476C483.843 17.4256 487.236 13.248 491.707 11.756Z" fill="#3974AA"/>
<path d="M490.474 46.3704C494.02 45.6244 497.567 47.1164 499.263 49.6528C500.959 52.786 500.651 56.3668 498.646 58.754C496.179 61.2904 492.478 62.1856 489.549 60.992C486.156 59.5 484.306 56.3668 484.46 53.3828C484.923 49.802 487.39 47.1164 490.474 46.3704Z" fill="#3974AA"/>
<path d="M478.138 84.1181C481.068 82.6261 484.46 82.9245 486.619 84.7149C489.086 86.9529 489.703 90.0861 488.778 92.6225C487.236 95.6065 484.46 97.2477 481.53 97.0985C478.292 96.6509 475.671 94.5621 474.9 91.8765C474.437 88.7433 475.671 85.6101 478.138 84.1181Z" fill="#3974AA"/>
<path d="M498.029 133.503C500.959 132.011 504.352 132.31 506.51 134.1C508.978 136.338 509.594 139.471 508.669 142.008C507.127 144.992 504.352 146.633 501.422 146.484C498.184 146.036 495.562 143.947 494.791 141.262C494.329 138.128 495.562 134.995 498.029 133.503Z" fill="#3974AA"/>
<path d="M467.652 134.398C472.895 133.056 478.138 134.846 480.913 138.576C483.843 143.052 483.689 148.274 480.913 152.004C477.521 156.032 472.124 157.524 467.652 156.182C462.718 154.242 459.48 149.766 459.48 145.29C459.788 140.068 463.18 135.89 467.652 134.398Z" fill="#3974AA"/>
<path d="M468.269 193.631C473.512 192.288 478.755 194.078 481.53 197.808C484.46 202.284 484.306 207.506 481.53 211.236C478.138 215.265 472.741 216.757 468.269 215.414C463.335 213.474 460.096 208.998 460.096 204.522C460.405 199.3 463.797 195.123 468.269 193.631Z" fill="#3974AA"/>
<path d="M489.703 219.293C487.235 221.83 483.535 222.725 480.605 221.531C477.212 220.039 475.362 216.906 475.516 213.922C475.979 210.341 478.446 207.656 481.53 206.91C485.077 206.164 488.623 207.656 490.319 210.192C492.016 213.325 491.707 216.906 489.703 219.293Z" fill="#3974AA"/>
<path d="M482.918 238.838C482.918 241.822 481.067 244.359 478.754 245.254C475.825 246.149 472.895 245.254 471.199 243.314C469.348 240.927 469.348 237.943 470.736 235.854C472.432 233.467 475.362 232.423 477.983 233.02C480.759 234.064 482.764 236.302 482.918 238.838Z" fill="#3974AA"/>
<path d="M482.61 272.856C486.156 272.11 489.703 273.602 491.399 276.138C493.095 279.272 492.787 282.852 490.782 285.24C488.315 287.776 484.614 288.671 481.684 287.478C478.292 285.986 476.442 282.852 476.596 279.868C477.058 276.288 479.526 273.602 482.61 272.856Z" fill="#3974AA"/>
<path d="M494.637 302.696C498.184 301.95 501.73 303.442 503.427 305.978C505.123 309.112 504.814 312.692 502.81 315.08C500.343 317.616 496.642 318.511 493.712 317.318C490.32 315.826 488.469 312.692 488.623 309.708C489.086 306.128 491.553 303.442 494.637 302.696Z" fill="#3974AA"/>
<path d="M509.286 353.722C509.286 356.706 507.436 359.243 505.123 360.138C502.193 361.033 499.263 360.138 497.567 358.198C495.716 355.811 495.716 352.827 497.104 350.738C498.8 348.351 501.73 347.307 504.352 347.904C507.127 348.948 509.132 351.186 509.286 353.722Z" fill="#3974AA"/>
<path d="M498.646 393.41C495.408 393.857 492.17 392.664 490.628 390.276C489.086 387.442 489.394 384.159 491.245 382.07C493.558 379.683 496.796 379.086 499.417 379.982C502.501 381.474 504.197 384.159 504.043 386.994C503.581 390.127 501.422 392.664 498.646 393.41Z" fill="#3974AA"/>
<path d="M489.24 423.996C494.483 422.653 499.726 424.443 502.501 428.173C505.431 432.649 505.277 437.871 502.501 441.601C499.109 445.63 493.712 447.122 489.24 445.779C484.306 443.839 481.068 439.363 481.068 434.887C481.376 429.665 484.768 425.488 489.24 423.996Z" fill="#3974AA"/>
<path d="M493.095 453.985C489.857 454.432 486.619 453.239 485.077 450.852C483.535 448.017 483.843 444.734 485.693 442.646C488.006 440.258 491.245 439.662 493.866 440.557C496.95 442.049 498.646 444.734 498.492 447.569C498.029 450.702 495.871 453.239 493.095 453.985Z" fill="#3974AA"/>
<path d="M471.507 496.208C475.054 495.462 478.6 496.954 480.296 499.491C481.993 502.624 481.684 506.205 479.68 508.592C477.212 511.128 473.512 512.024 470.582 510.83C467.189 509.338 465.339 506.205 465.493 503.221C465.956 499.64 468.423 496.954 471.507 496.208Z" fill="#3974AA"/>
<path d="M476.442 535C473.203 535.448 469.965 534.254 468.423 531.867C466.881 529.032 467.189 525.75 469.04 523.661C471.353 521.274 474.591 520.677 477.213 521.572C480.297 523.064 481.993 525.75 481.839 528.585C481.376 531.718 479.217 534.254 476.442 535Z" fill="#3974AA"/>
<path d="M490.011 536.343C495.254 535.001 500.497 536.791 503.272 540.521C506.202 544.997 506.048 550.219 503.272 553.949C499.88 557.977 494.483 559.469 490.011 558.127C485.077 556.187 481.839 551.711 481.839 547.235C482.147 542.013 485.539 537.835 490.011 536.343Z" fill="#3974AA"/>
<path d="M483.38 565.139C488.623 563.796 493.866 565.586 496.642 569.316C499.571 573.792 499.417 579.014 496.642 582.744C493.249 586.773 487.852 588.265 483.38 586.922C478.446 584.982 475.208 580.506 475.208 576.03C475.516 570.808 478.909 566.631 483.38 565.139Z" fill="#3974AA"/>
<path d="M515.146 10.1148C518.076 8.62284 521.468 8.92124 523.627 10.7116C526.094 12.9496 526.711 16.0828 525.786 18.6192C524.244 21.6032 521.468 23.2444 518.538 23.0952C515.3 22.6476 512.679 20.5588 511.908 17.8732C511.445 14.74 512.679 11.6068 515.146 10.1148Z" fill="#3974AA"/>
<path d="M514.837 52.3384C511.599 52.786 508.361 51.5924 506.819 49.2052C505.277 46.3704 505.585 43.088 507.436 40.9992C509.749 38.612 512.987 38.0152 515.608 38.9104C518.692 40.4024 520.388 43.088 520.234 45.9228C519.772 49.056 517.613 51.5924 514.837 52.3384Z" fill="#3974AA"/>
<path d="M529.332 73.5249C532.262 72.0329 535.654 72.3313 537.813 74.1217C540.28 76.3597 540.897 79.4929 539.972 82.0293C538.43 85.0133 535.654 86.6545 532.724 86.5053C529.486 86.0577 526.865 83.9689 526.094 81.2833C525.631 78.1501 526.865 75.0169 529.332 73.5249Z" fill="#3974AA"/>
<path d="M535.038 129.922C538.584 129.176 542.131 130.668 543.827 133.205C545.523 136.338 545.215 139.919 543.21 142.306C540.743 144.842 537.042 145.738 534.112 144.544C530.72 143.052 528.87 139.919 529.024 136.935C529.486 133.354 531.954 130.668 535.038 129.922Z" fill="#3974AA"/>
<path d="M526.094 153.048C526.094 156.032 524.243 158.569 521.93 159.464C519.001 160.359 516.071 159.464 514.375 157.524C512.524 155.137 512.524 152.153 513.912 150.064C515.608 147.677 518.538 146.633 521.159 147.23C523.935 148.274 525.94 150.512 526.094 153.048Z" fill="#3974AA"/>
<path d="M532.108 166.178C535.654 165.432 539.201 166.924 540.897 169.46C542.593 172.594 542.285 176.174 540.28 178.562C537.813 181.098 534.112 181.993 531.183 180.8C527.79 179.308 525.94 176.174 526.094 173.19C526.557 169.61 529.024 166.924 532.108 166.178Z" fill="#3974AA"/>
<path d="M520.543 220.338C525.786 218.995 531.028 220.785 533.804 224.515C536.734 228.991 536.58 234.213 533.804 237.943C530.412 241.972 525.015 243.464 520.543 242.121C515.608 240.181 512.37 235.705 512.37 231.229C512.679 226.007 516.071 221.83 520.543 220.338Z" fill="#3974AA"/>
<path d="M536.271 254.355C541.514 253.012 546.757 254.803 549.532 258.533C552.462 263.009 552.308 268.231 549.532 271.961C546.14 275.989 540.743 277.481 536.271 276.138C531.337 274.199 528.099 269.723 528.099 265.247C528.407 260.025 531.799 255.847 536.271 254.355Z" fill="#3974AA"/>
<path d="M514.991 297.922C511.753 298.369 508.515 297.176 506.973 294.788C505.431 291.954 505.739 288.671 507.59 286.582C509.903 284.195 513.141 283.598 515.762 284.494C518.846 285.986 520.543 288.671 520.388 291.506C519.926 294.639 517.767 297.176 514.991 297.922Z" fill="#3974AA"/>
<path d="M535.346 328.209C532.108 328.657 528.87 327.463 527.328 325.076C525.786 322.241 526.094 318.959 527.944 316.87C530.257 314.483 533.496 313.886 536.117 314.781C539.201 316.273 540.897 318.959 540.743 321.794C540.28 324.927 538.122 327.463 535.346 328.209Z" fill="#3974AA"/>
<path d="M524.398 363.271C527.944 362.525 531.491 364.017 533.187 366.554C534.883 369.687 534.575 373.268 532.57 375.655C530.103 378.191 526.402 379.086 523.472 377.893C520.08 376.401 518.23 373.268 518.384 370.284C518.846 366.703 521.314 364.017 524.398 363.271Z" fill="#3974AA"/>
<path d="M515.3 386.994C518.846 386.248 522.393 387.74 524.089 390.276C525.785 393.41 525.477 396.99 523.472 399.378C521.005 401.914 517.304 402.809 514.375 401.616C510.982 400.124 509.132 396.99 509.286 394.006C509.749 390.426 512.216 387.74 515.3 386.994Z" fill="#3974AA"/>
<path d="M527.482 415.64C532.725 414.298 537.967 416.088 540.743 419.818C543.673 424.294 543.519 429.516 540.743 433.246C537.351 437.274 531.954 438.766 527.482 437.424C522.547 435.484 519.309 431.008 519.309 426.532C519.618 421.31 523.01 417.132 527.482 415.64Z" fill="#3974AA"/>
<path d="M503.426 447.122C506.356 445.63 509.749 445.928 511.907 447.718C514.375 449.956 514.992 453.09 514.066 455.626C512.524 458.61 509.749 460.251 506.819 460.102C503.581 459.654 500.959 457.566 500.188 454.88C499.726 451.747 500.959 448.614 503.426 447.122Z" fill="#3974AA"/>
<path d="M529.795 481.288C535.038 479.946 540.28 481.736 543.056 485.466C545.986 489.942 545.832 495.164 543.056 498.894C539.664 502.922 534.267 504.414 529.795 503.072C524.86 501.132 521.622 496.656 521.622 492.18C521.931 486.958 525.323 482.78 529.795 481.288Z" fill="#3974AA"/>
<path d="M531.645 511.427C531.645 514.411 529.795 516.947 527.482 517.842C524.552 518.738 521.622 517.842 519.926 515.903C518.075 513.516 518.075 510.532 519.463 508.443C521.159 506.056 524.089 505.011 526.711 505.608C529.486 506.652 531.491 508.89 531.645 511.427Z" fill="#3974AA"/>
<path d="M533.804 532.016C539.047 530.674 544.29 532.464 547.065 536.194C549.995 540.67 549.841 545.892 547.065 549.622C543.673 553.65 538.276 555.142 533.804 553.8C528.87 551.86 525.631 547.384 525.631 542.908C525.94 537.686 529.332 533.508 533.804 532.016Z" fill="#3974AA"/>
<path d="M506.819 564.095C512.062 562.752 517.305 564.542 520.08 568.272C523.01 572.748 522.856 577.97 520.08 581.7C516.688 585.729 511.291 587.221 506.819 585.878C501.885 583.938 498.646 579.462 498.646 574.986C498.955 569.764 502.347 565.587 506.819 564.095Z" fill="#3974AA"/>
<path d="M544.29 22.0508C549.532 20.708 554.775 22.4984 557.551 26.2284C560.481 30.7044 560.326 35.9264 557.551 39.6564C554.158 43.6848 548.761 45.1768 544.29 43.834C539.355 41.8944 536.117 37.4184 536.117 32.9424C536.425 27.7204 539.818 23.5428 544.29 22.0508Z" fill="#3974AA"/>
<path d="M566.649 60.8428C571.891 59.5 577.134 61.2904 579.91 65.0204C582.84 69.4964 582.685 74.7184 579.91 78.4484C576.517 82.4768 571.12 83.9688 566.649 82.626C561.714 80.6864 558.476 76.2104 558.476 71.7344C558.784 66.5124 562.177 62.3348 566.649 60.8428Z" fill="#3974AA"/>
<path d="M563.565 76.5088C567.111 75.7628 570.658 77.2548 572.354 79.7912C574.05 82.9244 573.742 86.5052 571.737 88.8924C569.27 91.4288 565.569 92.324 562.639 91.1304C559.247 89.6384 557.397 86.5052 557.551 83.5212C558.013 79.9404 560.481 77.2548 563.565 76.5088Z" fill="#3974AA"/>
<path d="M545.677 122.761C548.607 121.269 551.999 121.567 554.158 123.358C556.625 125.596 557.242 128.729 556.317 131.265C554.775 134.249 551.999 135.89 549.07 135.741C545.831 135.294 543.21 133.205 542.439 130.519C541.976 127.386 543.21 124.253 545.677 122.761Z" fill="#3974AA"/>
<path d="M569.116 164.388C572.045 162.896 575.438 163.194 577.597 164.984C580.064 167.222 580.681 170.356 579.755 172.892C578.213 175.876 575.438 177.517 572.508 177.368C569.27 176.92 566.648 174.832 565.877 172.146C565.415 169.013 566.648 165.88 569.116 164.388Z" fill="#3974AA"/>
<path d="M563.256 186.917C566.803 186.171 570.349 187.663 572.046 190.199C573.742 193.332 573.433 196.913 571.429 199.3C568.962 201.837 565.261 202.732 562.331 201.538C558.939 200.046 557.088 196.913 557.242 193.929C557.705 190.348 560.172 187.663 563.256 186.917Z" fill="#3974AA"/>
<path d="M559.247 218.846C564.49 217.503 569.732 219.293 572.508 223.023C575.438 227.499 575.284 232.721 572.508 236.451C569.116 240.48 563.719 241.972 559.247 240.629C554.312 238.689 551.074 234.213 551.074 229.737C551.383 224.515 554.775 220.338 559.247 218.846Z" fill="#3974AA"/>
<path d="M550.92 256.742C548.453 259.279 544.752 260.174 541.822 258.98C538.43 257.488 536.579 254.355 536.734 251.371C537.196 247.79 539.663 245.105 542.747 244.359C546.294 243.613 549.841 245.105 551.537 247.641C553.233 250.774 552.925 254.355 550.92 256.742Z" fill="#3974AA"/>
<path d="M573.279 286.881C570.812 289.417 567.111 290.312 564.181 289.119C560.789 287.627 558.939 284.494 559.093 281.51C559.555 277.929 562.023 275.243 565.107 274.497C568.653 273.751 572.2 275.243 573.896 277.78C575.592 280.913 575.284 284.494 573.279 286.881Z" fill="#3974AA"/>
<path d="M550.457 325.971C554.004 325.225 557.551 326.717 559.247 329.254C560.943 332.387 560.635 335.968 558.63 338.355C556.163 340.891 552.462 341.786 549.532 340.593C546.14 339.101 544.289 335.968 544.444 332.984C544.906 329.403 547.373 326.717 550.457 325.971Z" fill="#3974AA"/>
<path d="M540.28 357.751C543.827 357.005 547.373 358.497 549.07 361.033C550.766 364.166 550.457 367.747 548.453 370.134C545.986 372.671 542.285 373.566 539.355 372.372C535.963 370.88 534.112 367.747 534.266 364.763C534.729 361.182 537.196 358.497 540.28 357.751Z" fill="#3974AA"/>
<path d="M555.238 370.582C558.784 369.836 562.331 371.328 564.027 373.864C565.723 376.998 565.415 380.578 563.41 382.966C560.943 385.502 557.242 386.397 554.312 385.204C550.92 383.712 549.07 380.578 549.224 377.594C549.686 374.014 552.154 371.328 555.238 370.582Z" fill="#3974AA"/>
<path d="M547.682 425.04C551.228 424.294 554.775 425.786 556.471 428.322C558.167 431.456 557.859 435.036 555.854 437.424C553.387 439.96 549.686 440.855 546.757 439.662C543.364 438.17 541.514 435.036 541.668 432.052C542.131 428.472 544.598 425.786 547.682 425.04Z" fill="#3974AA"/>
<path d="M565.723 436.976C568.653 435.484 572.045 435.782 574.204 437.573C576.671 439.811 577.288 442.944 576.363 445.48C574.821 448.464 572.045 450.106 569.116 449.956C565.877 449.509 563.256 447.42 562.485 444.734C562.022 441.601 563.256 438.468 565.723 436.976Z" fill="#3974AA"/>
<path d="M549.841 460.4C555.084 459.058 560.326 460.848 563.102 464.578C566.032 469.054 565.878 474.276 563.102 478.006C559.71 482.034 554.313 483.526 549.841 482.184C544.906 480.244 541.668 475.768 541.668 471.292C541.977 466.07 545.369 461.892 549.841 460.4Z" fill="#3974AA"/>
<path d="M545.832 506.802C549.378 506.056 552.925 507.548 554.621 510.084C556.317 513.217 556.009 516.798 554.004 519.185C551.537 521.722 547.836 522.617 544.906 521.423C541.514 519.931 539.664 516.798 539.818 513.814C540.28 510.233 542.748 507.548 545.832 506.802Z" fill="#3974AA"/>
<path d="M583.148 562.155C580.681 564.691 576.98 565.586 574.05 564.393C570.658 562.901 568.807 559.768 568.962 556.784C569.424 553.203 571.891 550.517 574.975 549.771C578.522 549.025 582.069 550.517 583.765 553.054C585.461 556.187 585.153 559.768 583.148 562.155Z" fill="#3974AA"/>
<path d="M585.153 27.5712C585.153 30.5552 583.302 33.0916 580.989 33.9868C578.059 34.882 575.13 33.9868 573.433 32.0472C571.583 29.66 571.583 26.676 572.971 24.5872C574.667 22.2 577.597 21.1556 580.218 21.7524C582.994 22.7968 584.998 25.0348 585.153 27.5712Z" fill="#3974AA"/>
<path d="M610.133 53.2336C606.895 53.6812 603.657 52.4876 602.115 50.1004C600.573 47.2656 600.881 43.9832 602.731 41.8944C605.044 39.5072 608.283 38.9104 610.904 39.8056C613.988 41.2976 615.684 43.9832 615.53 46.818C615.067 49.9512 612.909 52.4876 610.133 53.2336Z" fill="#3974AA"/>
<path d="M577.597 71.2869C582.84 69.9441 588.082 71.7345 590.858 75.4645C593.788 79.9405 593.634 85.1625 590.858 88.8925C587.466 92.9209 582.069 94.4129 577.597 93.0701C572.662 91.1305 569.424 86.6545 569.424 82.1785C569.733 76.9565 573.125 72.7789 577.597 71.2869Z" fill="#3974AA"/>
<path d="M602.577 115.748C602.577 118.732 600.727 121.269 598.414 122.164C595.484 123.059 592.554 122.164 590.858 120.224C589.008 117.837 589.008 114.853 590.395 112.764C592.092 110.377 595.021 109.333 597.643 109.93C600.418 110.974 602.423 113.212 602.577 115.748Z" fill="#3974AA"/>
<path d="M599.031 162.746C601.96 161.254 605.353 161.553 607.512 163.343C609.979 165.581 610.596 168.714 609.67 171.251C608.128 174.235 605.353 175.876 602.423 175.727C599.185 175.279 596.563 173.19 595.792 170.505C595.33 167.372 596.563 164.238 599.031 162.746Z" fill="#3974AA"/>
<path d="M607.203 200.643C603.965 201.091 600.727 199.897 599.185 197.51C597.643 194.675 597.951 191.393 599.801 189.304C602.114 186.917 605.353 186.32 607.974 187.215C611.058 188.707 612.754 191.393 612.6 194.228C612.137 197.361 609.979 199.897 607.203 200.643Z" fill="#3974AA"/>
<path d="M593.942 242.419C590.704 242.867 587.465 241.673 585.923 239.286C584.381 236.451 584.69 233.169 586.54 231.08C588.853 228.693 592.091 228.096 594.713 228.991C597.797 230.483 599.493 233.169 599.339 236.004C598.876 239.137 596.717 241.673 593.942 242.419Z" fill="#3974AA"/>
<path d="M616.301 257.041C613.834 259.577 610.133 260.472 607.203 259.279C603.811 257.787 601.96 254.654 602.115 251.67C602.577 248.089 605.044 245.403 608.128 244.657C611.675 243.911 615.222 245.403 616.918 247.94C618.614 251.073 618.306 254.654 616.301 257.041Z" fill="#3974AA"/>
<path d="M595.792 289.417C595.792 292.401 593.942 294.938 591.629 295.833C588.699 296.728 585.769 295.833 584.073 293.893C582.223 291.506 582.223 288.522 583.611 286.433C585.307 284.046 588.237 283.002 590.858 283.598C593.634 284.643 595.638 286.881 595.792 289.417Z" fill="#3974AA"/>
<path d="M587.311 314.035C584.073 314.483 580.835 313.289 579.293 310.902C577.751 308.067 578.059 304.785 579.91 302.696C582.223 300.309 585.461 299.712 588.082 300.607C591.166 302.099 592.862 304.785 592.708 307.62C592.246 310.753 590.087 313.289 587.311 314.035Z" fill="#3974AA"/>
<path d="M598.568 376.998C595.33 377.445 592.092 376.252 590.55 373.864C589.008 371.03 589.316 367.747 591.166 365.658C593.479 363.271 596.718 362.674 599.339 363.57C602.423 365.062 604.119 367.747 603.965 370.582C603.502 373.715 601.344 376.252 598.568 376.998Z" fill="#3974AA"/>
<path d="M575.438 385.95C580.681 384.607 585.923 386.397 588.699 390.127C591.629 394.603 591.475 399.825 588.699 403.555C585.307 407.584 579.91 409.076 575.438 407.733C570.503 405.793 567.265 401.317 567.265 396.841C567.574 391.619 570.966 387.442 575.438 385.95Z" fill="#3974AA"/>
<path d="M597.488 430.859C597.488 433.843 595.638 436.379 593.325 437.274C590.395 438.17 587.465 437.274 585.769 435.335C583.919 432.948 583.919 429.964 585.307 427.875C587.003 425.488 589.933 424.443 592.554 425.04C595.33 426.084 597.334 428.322 597.488 430.859Z" fill="#3974AA"/>
<path d="M584.073 459.953C587.003 458.461 590.395 458.759 592.554 460.55C595.021 462.788 595.638 465.921 594.713 468.457C593.171 471.441 590.395 473.082 587.466 472.933C584.227 472.486 581.606 470.397 580.835 467.711C580.372 464.578 581.606 461.445 584.073 459.953Z" fill="#3974AA"/>
<path d="M586.54 476.365C589.47 474.873 592.862 475.171 595.021 476.962C597.488 479.2 598.105 482.333 597.18 484.869C595.638 487.853 592.862 489.494 589.933 489.345C586.694 488.898 584.073 486.809 583.302 484.123C582.839 480.99 584.073 477.857 586.54 476.365Z" fill="#3974AA"/>
<path d="M588.853 517.842C594.096 516.5 599.339 518.29 602.114 522.02C605.044 526.496 604.89 531.718 602.114 535.448C598.722 539.476 593.325 540.968 588.853 539.626C583.919 537.686 580.681 533.21 580.681 528.734C580.989 523.512 584.381 519.334 588.853 517.842Z" fill="#3974AA"/>
<path d="M611.212 565.139C607.974 565.586 604.736 564.393 603.194 562.006C601.652 559.171 601.96 555.888 603.811 553.8C606.124 551.412 609.362 550.816 611.983 551.711C615.067 553.203 616.764 555.888 616.609 558.723C616.147 561.856 613.988 564.393 611.212 565.139Z" fill="#3974AA"/>
<path d="M623.548 43.0881C621.081 45.6245 617.38 46.5197 614.45 45.3261C611.058 43.8341 609.208 40.7009 609.362 37.7169C609.824 34.1361 612.292 31.4505 615.376 30.7045C618.922 29.9585 622.469 31.4505 624.165 33.9869C625.861 37.1201 625.553 40.7009 623.548 43.0881Z" fill="#3974AA"/>
<path d="M626.478 63.0808C629.408 61.5888 632.8 61.8872 634.959 63.6776C637.426 65.9156 638.043 69.0488 637.118 71.5852C635.576 74.5692 632.8 76.2104 629.871 76.0612C626.632 75.6136 624.011 73.5248 623.24 70.8392C622.777 67.706 624.011 64.5728 626.478 63.0808Z" fill="#3974AA"/>
<path d="M635.73 72.7789C640.973 71.4361 646.216 73.2265 648.991 76.9565C651.921 81.4325 651.767 86.6545 648.991 90.3845C645.599 94.4129 640.202 95.9049 635.73 94.5621C630.796 92.6225 627.557 88.1465 627.557 83.6705C627.866 78.4485 631.258 74.2709 635.73 72.7789Z" fill="#3974AA"/>
<path d="M634.342 144.096C631.875 146.633 628.174 147.528 625.245 146.334C621.852 144.842 620.002 141.709 620.156 138.725C620.619 135.144 623.086 132.459 626.17 131.713C629.716 130.967 633.263 132.459 634.959 134.995C636.655 138.128 636.347 141.709 634.342 144.096Z" fill="#3974AA"/>
<path d="M634.805 146.931C640.048 145.588 645.29 147.379 648.066 151.109C650.996 155.585 650.842 160.807 648.066 164.537C644.674 168.565 639.277 170.057 634.805 168.714C629.87 166.775 626.632 162.299 626.632 157.823C626.941 152.601 630.333 148.423 634.805 146.931Z" fill="#3974AA"/>
<path d="M642.515 183.933C647.758 182.59 653.001 184.38 655.776 188.11C658.706 192.586 658.552 197.808 655.776 201.538C652.384 205.567 646.987 207.059 642.515 205.716C637.581 203.776 634.342 199.3 634.342 194.824C634.651 189.602 638.043 185.425 642.515 183.933Z" fill="#3974AA"/>
<path d="M644.982 204.821C648.529 204.075 652.075 205.567 653.772 208.103C655.468 211.236 655.159 214.817 653.155 217.204C650.688 219.741 646.987 220.636 644.057 219.442C640.665 217.95 638.814 214.817 638.968 211.833C639.431 208.252 641.898 205.567 644.982 204.821Z" fill="#3974AA"/>
<path d="M633.725 257.936C637.272 257.19 640.819 258.682 642.515 261.218C644.211 264.352 643.903 267.932 641.898 270.32C639.431 272.856 635.73 273.751 632.8 272.558C629.408 271.066 627.557 267.932 627.712 264.948C628.174 261.368 630.641 258.682 633.725 257.936Z" fill="#3974AA"/>
<path d="M620.156 298.668C620.156 301.652 618.306 304.188 615.993 305.083C613.063 305.978 610.133 305.083 608.437 303.144C606.586 300.756 606.586 297.772 607.974 295.684C609.67 293.296 612.6 292.252 615.222 292.849C617.997 293.893 620.002 296.131 620.156 298.668Z" fill="#3974AA"/>
<path d="M619.693 311.35C624.936 310.007 630.179 311.797 632.955 315.527C635.884 320.003 635.73 325.225 632.955 328.955C629.562 332.984 624.165 334.476 619.693 333.133C614.759 331.193 611.521 326.717 611.521 322.241C611.829 317.019 615.222 312.842 619.693 311.35Z" fill="#3974AA"/>
<path d="M617.689 376.102C614.45 376.55 611.212 375.356 609.67 372.969C608.128 370.134 608.437 366.852 610.287 364.763C612.6 362.376 615.838 361.779 618.46 362.674C621.544 364.166 623.24 366.852 623.086 369.687C622.623 372.82 620.464 375.356 617.689 376.102Z" fill="#3974AA"/>
<path d="M636.81 372.82C642.052 371.477 647.295 373.268 650.071 376.998C653.001 381.474 652.846 386.696 650.071 390.426C646.678 394.454 641.281 395.946 636.81 394.603C631.875 392.664 628.637 388.188 628.637 383.712C628.945 378.49 632.338 374.312 636.81 372.82Z" fill="#3974AA"/>
<path d="M652.23 424.742C652.23 427.726 650.379 430.262 648.066 431.157C645.136 432.052 642.207 431.157 640.51 429.218C638.66 426.83 638.66 423.846 640.048 421.758C641.744 419.37 644.674 418.326 647.295 418.923C650.071 419.967 652.075 422.205 652.23 424.742Z" fill="#3974AA"/>
<path d="M651.15 465.324C648.683 467.86 644.982 468.756 642.052 467.562C638.66 466.07 636.81 462.937 636.964 459.953C637.426 456.372 639.894 453.686 642.978 452.94C646.524 452.194 650.071 453.686 651.767 456.223C653.463 459.356 653.155 462.937 651.15 465.324Z" fill="#3974AA"/>
<path d="M633.417 486.809C636.347 485.317 639.739 485.615 641.898 487.406C644.365 489.644 644.982 492.777 644.057 495.313C642.515 498.297 639.739 499.938 636.809 499.789C633.571 499.342 630.95 497.253 630.179 494.567C629.716 491.434 630.95 488.301 633.417 486.809Z" fill="#3974AA"/>
<path d="M619.539 502.326C624.782 500.983 630.025 502.773 632.8 506.503C635.73 510.979 635.576 516.201 632.8 519.931C629.408 523.96 624.011 525.452 619.539 524.109C614.605 522.169 611.367 517.693 611.367 513.217C611.675 507.995 615.067 503.818 619.539 502.326Z" fill="#3974AA"/>
<path d="M644.365 571.704C641.127 572.151 637.889 570.958 636.347 568.57C634.805 565.736 635.113 562.453 636.964 560.364C639.277 557.977 642.515 557.38 645.136 558.276C648.22 559.768 649.917 562.453 649.762 565.288C649.3 568.421 647.141 570.958 644.365 571.704Z" fill="#3974AA"/>
<path d="M666.416 14.2925C666.416 17.2765 664.565 19.8129 662.252 20.7081C659.323 21.6033 656.393 20.7081 654.697 18.7685C652.846 16.3813 652.846 13.3973 654.234 11.3085C655.93 8.92125 658.86 7.87685 661.481 8.47365C664.257 9.51805 666.262 11.7561 666.416 14.2925Z" fill="#3974AA"/>
<path d="M651.458 57.1128C654.388 55.6208 657.781 55.9192 659.939 57.7096C662.407 59.9476 663.023 63.0808 662.098 65.6172C660.556 68.6012 657.781 70.2424 654.851 70.0932C651.613 69.6456 648.991 67.5568 648.22 64.8712C647.758 61.738 648.991 58.6048 651.458 57.1128Z" fill="#3974AA"/>
<path d="M680.294 83.9689C680.294 86.9529 678.443 89.4893 676.13 90.3845C673.201 91.2797 670.271 90.3845 668.575 88.4449C666.724 86.0577 666.724 83.0737 668.112 80.9849C669.808 78.5977 672.738 77.5533 675.359 78.1501C678.135 79.1945 680.14 81.4325 680.294 83.9689Z" fill="#3974AA"/>
<path d="M688.466 129.176C688.466 132.16 686.616 134.697 684.303 135.592C681.373 136.487 678.443 135.592 676.747 133.652C674.897 131.265 674.897 128.281 676.285 126.192C677.981 123.805 680.911 122.761 683.532 123.358C686.308 124.402 688.312 126.64 688.466 129.176Z" fill="#3974AA"/>
<path d="M670.579 146.484C670.579 149.468 668.729 152.004 666.416 152.899C663.486 153.794 660.556 152.899 658.86 150.96C657.01 148.572 657.01 145.588 658.398 143.5C660.094 141.112 663.024 140.068 665.645 140.665C668.421 141.709 670.425 143.947 670.579 146.484Z" fill="#3974AA"/>
<path d="M679.369 190.05C684.611 188.707 689.854 190.498 692.63 194.228C695.56 198.704 695.405 203.926 692.63 207.656C689.237 211.684 683.84 213.176 679.369 211.833C674.434 209.894 671.196 205.418 671.196 200.942C671.504 195.72 674.897 191.542 679.369 190.05Z" fill="#3974AA"/>
<path d="M675.051 238.988C671.813 239.435 668.575 238.242 667.033 235.854C665.491 233.02 665.799 229.737 667.65 227.648C669.963 225.261 673.201 224.664 675.822 225.56C678.906 227.052 680.602 229.737 680.448 232.572C679.986 235.705 677.827 238.242 675.051 238.988Z" fill="#3974AA"/>
<path d="M655.005 257.041C652.538 259.577 648.837 260.472 645.907 259.279C642.515 257.787 640.665 254.654 640.819 251.67C641.281 248.089 643.749 245.403 646.833 244.657C650.379 243.911 653.926 245.403 655.622 247.94C657.318 251.073 657.01 254.654 655.005 257.041Z" fill="#3974AA"/>
<path d="M654.388 297.026C651.921 299.563 648.22 300.458 645.291 299.264C641.898 297.772 640.048 294.639 640.202 291.655C640.665 288.074 643.132 285.389 646.216 284.643C649.762 283.897 653.309 285.389 655.005 287.925C656.701 291.058 656.393 294.639 654.388 297.026Z" fill="#3974AA"/>
<path d="M675.822 315.975C675.822 318.959 673.972 321.495 671.659 322.39C668.729 323.286 665.799 322.39 664.103 320.451C662.253 318.064 662.253 315.08 663.64 312.991C665.337 310.604 668.266 309.559 670.888 310.156C673.663 311.2 675.668 313.438 675.822 315.975Z" fill="#3974AA"/>
<path d="M669.037 334.625C672.584 333.879 676.131 335.371 677.827 337.907C679.523 341.041 679.215 344.621 677.21 347.009C674.743 349.545 671.042 350.44 668.112 349.247C664.72 347.755 662.869 344.621 663.024 341.637C663.486 338.057 665.953 335.371 669.037 334.625Z" fill="#3974AA"/>
<path d="M655.468 398.632C653.001 401.168 649.3 402.063 646.37 400.87C642.978 399.378 641.127 396.244 641.281 393.26C641.744 389.68 644.211 386.994 647.295 386.248C650.842 385.502 654.388 386.994 656.085 389.53C657.781 392.664 657.472 396.244 655.468 398.632Z" fill="#3974AA"/>
<path d="M664.257 429.814C664.257 432.798 662.407 435.335 660.094 436.23C657.164 437.125 654.234 436.23 652.538 434.29C650.688 431.903 650.688 428.919 652.075 426.83C653.772 424.443 656.701 423.399 659.323 423.996C662.098 425.04 664.103 427.278 664.257 429.814Z" fill="#3974AA"/>
<path d="M660.248 449.807C665.491 448.465 670.734 450.255 673.509 453.985C676.439 458.461 676.285 463.683 673.509 467.413C670.117 471.441 664.72 472.933 660.248 471.59C655.314 469.651 652.075 465.175 652.075 460.699C652.384 455.477 655.776 451.299 660.248 449.807Z" fill="#3974AA"/>
<path d="M680.757 480.095C678.289 482.631 674.589 483.526 671.659 482.333C668.266 480.841 666.416 477.708 666.57 474.724C667.033 471.143 669.5 468.457 672.584 467.711C676.131 466.965 679.677 468.457 681.373 470.994C683.07 474.127 682.761 477.708 680.757 480.095Z" fill="#3974AA"/>
<path d="M667.804 515.306C664.565 515.754 661.327 514.56 659.785 512.173C658.243 509.338 658.552 506.056 660.402 503.967C662.715 501.58 665.953 500.983 668.575 501.878C671.659 503.37 673.355 506.056 673.201 508.89C672.738 512.024 670.579 514.56 667.804 515.306Z" fill="#3974AA"/>
<path d="M645.29 547.235C650.533 545.892 655.776 547.682 658.552 551.412C661.481 555.888 661.327 561.11 658.552 564.84C655.159 568.869 649.762 570.361 645.29 569.018C640.356 567.078 637.118 562.602 637.118 558.126C637.426 552.904 640.819 548.727 645.29 547.235Z" fill="#3974AA"/>
<path d="M656.393 566.631C659.94 565.885 663.486 567.377 665.182 569.913C666.879 573.047 666.57 576.627 664.566 579.015C662.098 581.551 658.398 582.446 655.468 581.253C652.075 579.761 650.225 576.627 650.379 573.643C650.842 570.063 653.309 567.377 656.393 566.631Z" fill="#3974AA"/>
<path d="M690.625 344.621C690.625 347.605 688.775 350.142 686.462 351.037C683.532 351.932 680.602 351.037 678.906 349.097C677.056 346.71 677.056 343.726 678.444 341.637C680.14 339.25 683.07 338.206 685.691 338.802C688.467 339.847 690.471 342.085 690.625 344.621Z" fill="#3974AA"/>
<path d="M685.382 393.26C690.625 391.918 695.868 393.708 698.644 397.438C701.573 401.914 701.419 407.136 698.644 410.866C695.251 414.894 689.854 416.386 685.382 415.044C680.448 413.104 677.21 408.628 677.21 404.152C677.518 398.93 680.911 394.752 685.382 393.26Z" fill="#3974AA"/>
<path d="M682.915 496.208C688.158 494.866 693.401 496.656 696.176 500.386C699.106 504.862 698.952 510.084 696.176 513.814C692.784 517.842 687.387 519.334 682.915 517.992C677.981 516.052 674.743 511.576 674.743 507.1C675.051 501.878 678.443 497.7 682.915 496.208Z" fill="#3974AA"/>
</svg>
