<svg width="670" height="566" viewBox="0 0 670 566" fill="none" xmlns="http://www.w3.org/2000/svg">
<path d="M-3.32191 18.9176C-0.392115 17.4256 3.00029 17.724 5.15909 19.5144C7.62629 21.7524 8.24309 24.8856 7.31789 27.422C5.77589 30.406 3.00029 32.0472 0.0704856 31.898C-3.16771 31.4504 -5.78912 29.3616 -6.56012 26.676C-7.02272 23.5428 -5.78912 20.4096 -3.32191 18.9176Z" fill="#FFC107"/>
<path d="M12.0981 59.3508C12.0981 62.3348 10.2477 64.8712 7.93471 65.7664C5.00491 66.6616 2.07511 65.7664 0.378905 63.8268C-1.4715 61.4396 -1.4715 58.4556 -0.0836952 56.3668C1.6125 53.9796 4.54231 52.9352 7.16371 53.532C9.93931 54.5764 11.9439 56.8144 12.0981 59.3508Z" fill="#FFC107"/>
<path d="M8.08892 65.0204C13.3317 63.6776 18.5745 65.468 21.3501 69.198C24.2799 73.674 24.1257 78.896 21.3501 82.626C17.9577 86.6544 12.5607 88.1464 8.08892 86.8036C3.15452 84.864 -0.0836792 80.388 -0.0836792 75.912C0.224721 70.69 3.61712 66.5124 8.08892 65.0204Z" fill="#FFC107"/>
<path d="M10.2477 96.3524C15.4905 95.0096 20.7333 96.8 23.5089 100.53C26.4387 105.006 26.2845 110.228 23.5089 113.958C20.1165 117.986 14.7195 119.478 10.2477 118.136C5.31327 116.196 2.07507 111.72 2.07507 107.244C2.38347 102.022 5.77587 97.8444 10.2477 96.3524Z" fill="#FFC107"/>
<path d="M11.3271 176.92C8.08892 177.368 4.85072 176.174 3.30872 173.787C1.76672 170.952 2.07512 167.67 3.92552 165.581C6.23852 163.194 9.47672 162.597 12.0981 163.492C15.1821 164.984 16.8783 167.67 16.7241 170.505C16.2615 173.638 14.1027 176.174 11.3271 176.92Z" fill="#FFC107"/>
<path d="M8.85989 193.332C8.85989 196.316 7.00949 198.853 4.69649 199.748C1.76669 200.643 -1.16312 199.748 -2.85932 197.808C-4.70972 195.421 -4.70972 192.437 -3.32192 190.348C-1.62572 187.961 1.30409 186.917 3.92549 187.514C6.70109 188.558 8.70569 190.796 8.85989 193.332Z" fill="#FFC107"/>
<path d="M-0.392097 220.039C4.8507 218.696 10.0935 220.487 12.8691 224.217C15.7989 228.693 15.6447 233.915 12.8691 237.645C9.4767 241.673 4.0797 243.165 -0.392097 241.822C-5.3265 239.883 -8.5647 235.407 -8.5647 230.931C-8.2563 225.709 -4.8639 221.531 -0.392097 220.039Z" fill="#FFC107"/>
<path d="M5.77591 247.492C2.53771 247.94 -0.700488 246.746 -2.24249 244.359C-3.78449 241.524 -3.47609 238.242 -1.62569 236.153C0.687312 233.766 3.92551 233.169 6.54691 234.064C9.63091 235.556 11.3271 238.242 11.1729 241.076C10.7103 244.21 8.55151 246.746 5.77591 247.492Z" fill="#FFC107"/>
<path d="M34.6113 286.284C31.3731 286.732 28.1349 285.538 26.5929 283.151C25.0509 280.316 25.3593 277.034 27.2097 274.945C29.5227 272.558 32.7609 271.961 35.3823 272.856C38.4663 274.348 40.1625 277.034 40.0083 279.868C39.5457 283.002 37.3869 285.538 34.6113 286.284Z" fill="#FFC107"/>
<path d="M18.1119 340.593C14.8737 341.04 11.6355 339.847 10.0935 337.46C8.55151 334.625 8.85991 331.342 10.7103 329.254C13.0233 326.866 16.2615 326.27 18.8829 327.165C21.9669 328.657 23.6631 331.342 23.5089 334.177C23.0463 337.31 20.8875 339.847 18.1119 340.593Z" fill="#FFC107"/>
<path d="M9.3225 346.859C14.5653 345.516 19.8081 347.307 22.5837 351.037C25.5135 355.513 25.3593 360.735 22.5837 364.465C19.1913 368.493 13.7943 369.985 9.3225 368.642C4.3881 366.703 1.1499 362.227 1.1499 357.751C1.4583 352.529 4.8507 348.351 9.3225 346.859Z" fill="#FFC107"/>
<path d="M25.2051 367.896C28.1349 366.404 31.5273 366.703 33.6861 368.493C36.1533 370.731 36.7701 373.864 35.8449 376.401C34.3029 379.385 31.5273 381.026 28.5975 380.877C25.3593 380.429 22.7379 378.34 21.9669 375.655C21.5043 372.522 22.7379 369.388 25.2051 367.896Z" fill="#FFC107"/>
<path d="M30.9105 418.326C30.9105 421.31 29.0601 423.846 26.7471 424.742C23.8173 425.637 20.8875 424.742 19.1913 422.802C17.3409 420.415 17.3409 417.431 18.7287 415.342C20.4249 412.955 23.3547 411.91 25.9761 412.507C28.7517 413.552 30.7563 415.79 30.9105 418.326Z" fill="#FFC107"/>
<path d="M19.3455 442.646C24.5883 441.303 29.8311 443.093 32.6067 446.823C35.5365 451.299 35.3823 456.521 32.6067 460.251C29.2143 464.28 23.8173 465.772 19.3455 464.429C14.4111 462.489 11.1729 458.013 11.1729 453.537C11.4813 448.315 14.8737 444.138 19.3455 442.646Z" fill="#FFC107"/>
<path d="M9.32252 489.196C6.85532 491.732 3.15452 492.628 0.22472 491.434C-3.16768 489.942 -5.01808 486.809 -4.86388 483.825C-4.40128 480.244 -1.93408 477.558 1.14992 476.812C4.69652 476.066 8.24312 477.558 9.93932 480.095C11.6355 483.228 11.3271 486.809 9.32252 489.196Z" fill="#FFC107"/>
<path d="M17.0325 529.032C14.5653 531.569 10.8645 532.464 7.93468 531.27C4.54228 529.778 2.69188 526.645 2.84608 523.661C3.30868 520.08 5.77588 517.395 8.85988 516.649C12.4065 515.903 15.9531 517.395 17.6493 519.931C19.3455 523.064 19.0371 526.645 17.0325 529.032Z" fill="#FFC107"/>
<path d="M3.00028 571.256C-0.237922 571.704 -3.47612 570.51 -5.01812 568.123C-6.56012 565.288 -6.25172 562.006 -4.40132 559.917C-2.08832 557.53 1.14988 556.933 3.77128 557.828C6.85528 559.32 8.55148 562.006 8.39728 564.841C7.93468 567.974 5.77588 570.51 3.00028 571.256Z" fill="#FFC107"/>
<path d="M52.4985 41.2976C49.2603 41.7452 46.0221 40.5516 44.4801 38.1644C42.9381 35.3296 43.2465 32.0472 45.0969 29.9584C47.4099 27.5712 50.6481 26.9744 53.2695 27.8696C56.3535 29.3616 58.0497 32.0472 57.8955 34.882C57.4329 38.0152 55.2741 40.5516 52.4985 41.2976Z" fill="#FFC107"/>
<path d="M61.5963 40.7008C61.5963 43.6848 59.7459 46.2212 57.4329 47.1164C54.5031 48.0116 51.5733 47.1164 49.8771 45.1768C48.0267 42.7896 48.0267 39.8056 49.4145 37.7168C51.1107 35.3296 54.0405 34.2852 56.6619 34.882C59.4375 35.9264 61.4421 38.1644 61.5963 40.7008Z" fill="#FFC107"/>
<path d="M56.1993 83.0736C59.7459 82.3276 63.2925 83.8196 64.9887 86.356C66.6849 89.4892 66.3765 93.07 64.3719 95.4572C61.9047 97.9936 58.2039 98.8888 55.2741 97.6952C51.8817 96.2032 50.0313 93.07 50.1855 90.086C50.6481 86.5052 53.1153 83.8196 56.1993 83.0736Z" fill="#FFC107"/>
<path d="M58.5123 120.523C55.2741 120.97 52.0359 119.777 50.4939 117.39C48.9519 114.555 49.2603 111.272 51.1107 109.184C53.4237 106.796 56.6619 106.2 59.2833 107.095C62.3673 108.587 64.0635 111.272 63.9093 114.107C63.4467 117.24 61.2879 119.777 58.5123 120.523Z" fill="#FFC107"/>
<path d="M57.8955 143.5C57.8955 146.484 56.0451 149.02 53.7321 149.915C50.8023 150.81 47.8725 149.915 46.1763 147.976C44.3259 145.588 44.3259 142.604 45.7137 140.516C47.4099 138.128 50.3397 137.084 52.9611 137.681C55.7367 138.725 57.7413 140.963 57.8955 143.5Z" fill="#FFC107"/>
<path d="M48.9519 182.142C46.4847 184.679 42.7839 185.574 39.8541 184.38C36.4617 182.888 34.6113 179.755 34.7655 176.771C35.2281 173.19 37.6953 170.505 40.7793 169.759C44.3259 169.013 47.8725 170.505 49.5687 173.041C51.2649 176.174 50.9565 179.755 48.9519 182.142Z" fill="#FFC107"/>
<path d="M63.6009 224.814C61.1337 227.35 57.4329 228.245 54.5031 227.052C51.1107 225.56 49.2603 222.426 49.4145 219.442C49.8771 215.862 52.3443 213.176 55.4283 212.43C58.9749 211.684 62.5215 213.176 64.2177 215.712C65.9139 218.846 65.6055 222.426 63.6009 224.814Z" fill="#FFC107"/>
<path d="M61.1337 259.279C58.6665 261.815 54.9657 262.71 52.0359 261.517C48.6435 260.025 46.7931 256.892 46.9473 253.908C47.4099 250.327 49.8771 247.641 52.9611 246.895C56.5077 246.149 60.0543 247.641 61.7505 250.178C63.4467 253.311 63.1383 256.892 61.1337 259.279Z" fill="#FFC107"/>
<path d="M34.1487 295.087C37.0785 293.595 40.4709 293.893 42.6297 295.684C45.0969 297.922 45.7137 301.055 44.7885 303.591C43.2465 306.575 40.4709 308.216 37.5411 308.067C34.3029 307.62 31.6815 305.531 30.9105 302.845C30.4479 299.712 31.6815 296.579 34.1487 295.087Z" fill="#FFC107"/>
<path d="M49.7229 317.019C47.2557 319.556 43.5549 320.451 40.6251 319.257C37.2327 317.765 35.3823 314.632 35.5365 311.648C35.9991 308.067 38.4663 305.382 41.5503 304.636C45.0969 303.89 48.6435 305.382 50.3397 307.918C52.0359 311.051 51.7275 314.632 49.7229 317.019Z" fill="#FFC107"/>
<path d="M48.4893 365.957C45.2511 366.404 42.0129 365.211 40.4709 362.824C38.9289 359.989 39.2373 356.706 41.0877 354.618C43.4007 352.23 46.6389 351.634 49.2603 352.529C52.3443 354.021 54.0405 356.706 53.8863 359.541C53.4237 362.674 51.2649 365.211 48.4893 365.957Z" fill="#FFC107"/>
<path d="M52.1901 404.898C49.7229 407.434 46.0221 408.33 43.0923 407.136C39.6999 405.644 37.8495 402.511 38.0037 399.527C38.4663 395.946 40.9335 393.26 44.0175 392.514C47.5641 391.768 51.1107 393.26 52.8069 395.797C54.5031 398.93 54.1947 402.511 52.1901 404.898Z" fill="#FFC107"/>
<path d="M57.2787 439.214C54.0405 439.662 50.8023 438.468 49.2603 436.081C47.7183 433.246 48.0267 429.964 49.8771 427.875C52.1901 425.488 55.4283 424.891 58.0497 425.786C61.1337 427.278 62.8299 429.964 62.6757 432.798C62.2131 435.932 60.0543 438.468 57.2787 439.214Z" fill="#FFC107"/>
<path d="M47.5641 472.336C45.0969 474.873 41.3961 475.768 38.4663 474.574C35.0739 473.082 33.2235 469.949 33.3777 466.965C33.8403 463.384 36.3075 460.699 39.3915 459.953C42.9381 459.207 46.4847 460.699 48.1809 463.235C49.8771 466.368 49.5687 469.949 47.5641 472.336Z" fill="#FFC107"/>
<path d="M42.4755 479.946C42.4755 482.93 40.6251 485.466 38.3121 486.361C35.3823 487.256 32.4525 486.361 30.7563 484.422C28.9059 482.034 28.9059 479.05 30.2937 476.962C31.9899 474.574 34.9197 473.53 37.5411 474.127C40.3167 475.171 42.3213 477.409 42.4755 479.946Z" fill="#FFC107"/>
<path d="M53.1153 505.906C56.0451 504.414 59.4375 504.713 61.5963 506.503C64.0635 508.741 64.6803 511.874 63.7551 514.411C62.2131 517.395 59.4375 519.036 56.5077 518.887C53.2695 518.439 50.6481 516.35 49.8771 513.665C49.4145 510.532 50.6481 507.398 53.1153 505.906Z" fill="#FFC107"/>
<path d="M43.0923 563.647C43.0923 566.631 41.2419 569.167 38.9289 570.062C35.9991 570.958 33.0693 570.062 31.3731 568.123C29.5227 565.736 29.5227 562.752 30.9105 560.663C32.6067 558.276 35.5365 557.231 38.1579 557.828C40.9335 558.872 42.9381 561.11 43.0923 563.647Z" fill="#FFC107"/>
<path d="M75.6285 21.0065C79.1751 20.2605 82.7217 21.7525 84.4179 24.2889C86.1141 27.4221 85.8057 31.0029 83.8011 33.3901C81.3339 35.9265 77.6331 36.8217 74.7033 35.6281C71.3109 34.1361 69.4605 31.0029 69.6147 28.0189C70.0773 24.4381 72.5445 21.7525 75.6285 21.0065Z" fill="#FFC107"/>
<path d="M94.7493 66.0649C91.5111 66.5125 88.2729 65.3189 86.7309 62.9317C85.1889 60.0969 85.4973 56.8145 87.3477 54.7257C89.6607 52.3385 92.8989 51.7417 95.5203 52.6369C98.6043 54.1289 100.301 56.8145 100.146 59.6493C99.6837 62.7825 97.5249 65.3189 94.7493 66.0649Z" fill="#FFC107"/>
<path d="M96.2913 86.2068C93.0531 86.6544 89.8149 85.4608 88.2729 83.0736C86.7309 80.2388 87.0393 76.9564 88.8897 74.8676C91.2027 72.4804 94.4409 71.8836 97.0623 72.7788C100.146 74.2708 101.843 76.9564 101.688 79.7912C101.226 82.9244 99.0669 85.4608 96.2913 86.2068Z" fill="#FFC107"/>
<path d="M83.0301 120.224C83.0301 123.208 81.1797 125.745 78.8667 126.64C75.9369 127.535 73.0071 126.64 71.3109 124.7C69.4605 122.313 69.4605 119.329 70.8483 117.24C72.5445 114.853 75.4743 113.809 78.0957 114.406C80.8713 115.45 82.8759 117.688 83.0301 120.224Z" fill="#FFC107"/>
<path d="M78.0957 150.363C74.8575 150.81 71.6193 149.617 70.0773 147.23C68.5353 144.395 68.8437 141.112 70.6941 139.024C73.0071 136.636 76.2453 136.04 78.8667 136.935C81.9507 138.427 83.6469 141.112 83.4927 143.947C83.0301 147.08 80.8713 149.617 78.0957 150.363Z" fill="#FFC107"/>
<path d="M83.3385 183.038C80.1003 183.485 76.8621 182.292 75.3201 179.904C73.7781 177.07 74.0865 173.787 75.9369 171.698C78.2499 169.311 81.4881 168.714 84.1095 169.61C87.1935 171.102 88.8897 173.787 88.7355 176.622C88.2729 179.755 86.1141 182.292 83.3385 183.038Z" fill="#FFC107"/>
<path d="M81.7965 216.906C87.0393 215.563 92.2821 217.354 95.0577 221.084C97.9875 225.56 97.8333 230.782 95.0577 234.512C91.6653 238.54 86.2683 240.032 81.7965 238.689C76.8621 236.75 73.6239 232.274 73.6239 227.798C73.9323 222.576 77.3247 218.398 81.7965 216.906Z" fill="#FFC107"/>
<path d="M78.2499 250.625C75.7827 253.162 72.0819 254.057 69.1521 252.863C65.7597 251.371 63.9093 248.238 64.0635 245.254C64.5261 241.673 66.9933 238.988 70.0773 238.242C73.6239 237.496 77.1705 238.988 78.8667 241.524C80.5629 244.657 80.2545 248.238 78.2499 250.625Z" fill="#FFC107"/>
<path d="M86.7309 307.47C84.2637 310.007 80.5629 310.902 77.6331 309.708C74.2407 308.216 72.3903 305.083 72.5445 302.099C73.0071 298.518 75.4743 295.833 78.5583 295.087C82.1049 294.341 85.6515 295.833 87.3477 298.369C89.0439 301.502 88.7355 305.083 86.7309 307.47Z" fill="#FFC107"/>
<path d="M77.7873 319.705C74.5491 320.152 71.3109 318.959 69.7689 316.572C68.2269 313.737 68.5353 310.454 70.3857 308.366C72.6987 305.978 75.9369 305.382 78.5583 306.277C81.6423 307.769 83.3385 310.454 83.1843 313.289C82.7217 316.422 80.5629 318.959 77.7873 319.705Z" fill="#FFC107"/>
<path d="M100.917 345.815C100.917 348.799 99.0669 351.335 96.7539 352.23C93.8241 353.126 90.8943 352.23 89.1981 350.291C87.3477 347.904 87.3477 344.92 88.7355 342.831C90.4317 340.444 93.3615 339.399 95.9829 339.996C98.7585 341.04 100.763 343.278 100.917 345.815Z" fill="#FFC107"/>
<path d="M87.5019 394.454C91.0485 393.708 94.5951 395.2 96.2913 397.736C97.9875 400.87 97.6791 404.45 95.6745 406.838C93.2073 409.374 89.5065 410.269 86.5767 409.076C83.1843 407.584 81.3339 404.45 81.4881 401.466C81.9507 397.886 84.4179 395.2 87.5019 394.454Z" fill="#FFC107"/>
<path d="M79.4835 419.669C79.4835 422.653 77.6331 425.189 75.3201 426.084C72.3903 426.98 69.4605 426.084 67.7643 424.145C65.9139 421.758 65.9139 418.774 67.3017 416.685C68.9979 414.298 71.9277 413.253 74.5491 413.85C77.3247 414.894 79.3293 417.132 79.4835 419.669Z" fill="#FFC107"/>
<path d="M82.7217 445.182C80.2545 447.718 76.5537 448.614 73.6239 447.42C70.2315 445.928 68.3811 442.795 68.5353 439.811C68.9979 436.23 71.4651 433.544 74.5491 432.798C78.0957 432.052 81.6423 433.544 83.3385 436.081C85.0347 439.214 84.7263 442.795 82.7217 445.182Z" fill="#FFC107"/>
<path d="M85.4973 504.564C82.2591 505.011 79.0209 503.818 77.4789 501.43C75.9369 498.596 76.2453 495.313 78.0957 493.224C80.4087 490.837 83.6469 490.24 86.2683 491.136C89.3523 492.628 91.0485 495.313 90.8943 498.148C90.4317 501.281 88.2729 503.818 85.4973 504.564Z" fill="#FFC107"/>
<path d="M98.1417 533.061C95.6745 535.597 91.9737 536.492 89.0439 535.299C85.6515 533.807 83.8011 530.674 83.9553 527.69C84.4179 524.109 86.8851 521.423 89.9691 520.677C93.5157 519.931 97.0623 521.423 98.7585 523.96C100.455 527.093 100.146 530.674 98.1417 533.061Z" fill="#FFC107"/>
<path d="M84.1095 557.977C89.3523 556.634 94.5951 558.425 97.3707 562.155C100.3 566.631 100.146 571.853 97.3707 575.583C93.9783 579.611 88.5813 581.103 84.1095 579.76C79.1751 577.821 75.9369 573.345 75.9369 568.869C76.2453 563.647 79.6377 559.469 84.1095 557.977Z" fill="#FFC107"/>
<path d="M127.44 23.8412C132.682 22.4984 137.925 24.2888 140.701 28.0188C143.631 32.4948 143.476 37.7168 140.701 41.4468C137.308 45.4752 131.911 46.9672 127.44 45.6244C122.505 43.6848 119.267 39.2088 119.267 34.7328C119.575 29.5108 122.968 25.3332 127.44 23.8412Z" fill="#FFC107"/>
<path d="M110.324 40.8501C115.566 39.5073 120.809 41.2977 123.585 45.0277C126.515 49.5037 126.36 54.7257 123.585 58.4557C120.192 62.4841 114.795 63.9761 110.324 62.6333C105.389 60.6937 102.151 56.2177 102.151 51.7417C102.459 46.5197 105.852 42.3421 110.324 40.8501Z" fill="#FFC107"/>
<path d="M122.66 82.4769C125.589 80.9849 128.982 81.2833 131.141 83.0737C133.608 85.3117 134.225 88.4449 133.299 90.9813C131.757 93.9653 128.982 95.6065 126.052 95.4573C122.814 95.0097 120.192 92.9209 119.421 90.2353C118.959 87.1021 120.192 83.9689 122.66 82.4769Z" fill="#FFC107"/>
<path d="M133.454 118.434C136.383 116.942 139.776 117.24 141.935 119.031C144.402 121.269 145.019 124.402 144.093 126.938C142.551 129.922 139.776 131.564 136.846 131.414C133.608 130.967 130.986 128.878 130.215 126.192C129.753 123.059 130.986 119.926 133.454 118.434Z" fill="#FFC107"/>
<path d="M134.687 163.791C134.687 166.775 132.837 169.311 130.524 170.206C127.594 171.102 124.664 170.206 122.968 168.267C121.117 165.88 121.117 162.896 122.505 160.807C124.201 158.42 127.131 157.375 129.753 157.972C132.528 159.016 134.533 161.254 134.687 163.791Z" fill="#FFC107"/>
<path d="M142.089 190.498C142.089 193.482 140.238 196.018 137.925 196.913C134.996 197.808 132.066 196.913 130.37 194.974C128.519 192.586 128.519 189.602 129.907 187.514C131.603 185.126 134.533 184.082 137.154 184.679C139.93 185.723 141.935 187.961 142.089 190.498Z" fill="#FFC107"/>
<path d="M126.669 233.766C124.202 236.302 120.501 237.197 117.571 236.004C114.179 234.512 112.328 231.378 112.482 228.394C112.945 224.814 115.412 222.128 118.496 221.382C122.043 220.636 125.589 222.128 127.286 224.664C128.982 227.798 128.673 231.378 126.669 233.766Z" fill="#FFC107"/>
<path d="M135.921 276.138C132.682 276.586 129.444 275.392 127.902 273.005C126.36 270.17 126.669 266.888 128.519 264.799C130.832 262.412 134.07 261.815 136.692 262.71C139.776 264.202 141.472 266.888 141.318 269.723C140.855 272.856 138.696 275.392 135.921 276.138Z" fill="#FFC107"/>
<path d="M116.492 292.252C113.253 292.7 110.015 291.506 108.473 289.119C106.931 286.284 107.24 283.002 109.09 280.913C111.403 278.526 114.641 277.929 117.263 278.824C120.347 280.316 122.043 283.002 121.889 285.836C121.426 288.97 119.267 291.506 116.492 292.252Z" fill="#FFC107"/>
<path d="M128.365 319.556C133.608 318.213 138.85 320.003 141.626 323.733C144.556 328.209 144.402 333.431 141.626 337.161C138.234 341.19 132.837 342.682 128.365 341.339C123.43 339.399 120.192 334.923 120.192 330.447C120.501 325.225 123.893 321.048 128.365 319.556Z" fill="#FFC107"/>
<path d="M122.043 354.021C119.576 356.557 115.875 357.452 112.945 356.259C109.553 354.767 107.702 351.634 107.856 348.65C108.319 345.069 110.786 342.383 113.87 341.637C117.417 340.891 120.963 342.383 122.66 344.92C124.356 348.053 124.047 351.634 122.043 354.021Z" fill="#FFC107"/>
<path d="M109.398 382.369C112.328 380.877 115.721 381.175 117.879 382.966C120.347 385.204 120.963 388.337 120.038 390.873C118.496 393.857 115.721 395.498 112.791 395.349C109.553 394.902 106.931 392.813 106.16 390.127C105.697 386.994 106.931 383.861 109.398 382.369Z" fill="#FFC107"/>
<path d="M141.472 418.177C138.234 418.624 134.995 417.431 133.453 415.044C131.911 412.209 132.22 408.926 134.07 406.838C136.383 404.45 139.621 403.854 142.243 404.749C145.327 406.241 147.023 408.926 146.869 411.761C146.406 414.894 144.247 417.431 141.472 418.177Z" fill="#FFC107"/>
<path d="M108.627 456.223C113.87 454.88 119.113 456.671 121.889 460.401C124.818 464.877 124.664 470.099 121.889 473.829C118.496 477.857 113.099 479.349 108.627 478.006C103.693 476.067 100.455 471.591 100.455 467.115C100.763 461.893 104.156 457.715 108.627 456.223Z" fill="#FFC107"/>
<path d="M135.612 495.91C133.145 498.446 129.444 499.342 126.515 498.148C123.122 496.656 121.272 493.523 121.426 490.539C121.889 486.958 124.356 484.272 127.44 483.526C130.986 482.78 134.533 484.272 136.229 486.809C137.925 489.942 137.617 493.523 135.612 495.91Z" fill="#FFC107"/>
<path d="M113.253 518.738C113.253 521.722 111.403 524.258 109.09 525.153C106.16 526.048 103.23 525.153 101.534 523.214C99.6837 520.826 99.6837 517.842 101.072 515.754C102.768 513.366 105.698 512.322 108.319 512.919C111.095 513.963 113.099 516.201 113.253 518.738Z" fill="#FFC107"/>
<path d="M122.814 564.244C119.576 564.691 116.337 563.498 114.795 561.111C113.253 558.276 113.562 554.993 115.412 552.905C117.725 550.517 120.963 549.921 123.585 550.816C126.669 552.308 128.365 554.993 128.211 557.828C127.748 560.961 125.589 563.498 122.814 564.244Z" fill="#FFC107"/>
<path d="M152.112 44.8785C149.645 47.4149 145.944 48.3101 143.014 47.1165C139.622 45.6245 137.771 42.4913 137.925 39.5073C138.388 35.9265 140.855 33.2409 143.939 32.4949C147.486 31.7489 151.032 33.2409 152.729 35.7773C154.425 38.9105 154.116 42.4913 152.112 44.8785Z" fill="#FFC107"/>
<path d="M153.654 68.8997C153.654 71.8837 151.803 74.4201 149.49 75.3153C146.561 76.2105 143.631 75.3153 141.935 73.3757C140.084 70.9885 140.084 68.0045 141.472 65.9157C143.168 63.5285 146.098 62.4841 148.719 63.0809C151.495 64.1253 153.5 66.3633 153.654 68.8997Z" fill="#FFC107"/>
<path d="M139.776 66.6616C143.322 65.9156 146.869 67.4076 148.565 69.944C150.261 73.0772 149.953 76.658 147.948 79.0452C145.481 81.5816 141.78 82.4768 138.851 81.2832C135.458 79.7912 133.608 76.658 133.762 73.674C134.225 70.0932 136.692 67.4076 139.776 66.6616Z" fill="#FFC107"/>
<path d="M146.715 122.612C143.476 123.059 140.238 121.866 138.696 119.478C137.154 116.644 137.463 113.361 139.313 111.272C141.626 108.885 144.864 108.288 147.486 109.184C150.57 110.676 152.266 113.361 152.112 116.196C151.649 119.329 149.49 121.866 146.715 122.612Z" fill="#FFC107"/>
<path d="M151.957 153.794C148.719 154.242 145.481 153.048 143.939 150.661C142.397 147.826 142.705 144.544 144.556 142.455C146.869 140.068 150.107 139.471 152.728 140.366C155.812 141.858 157.509 144.544 157.354 147.379C156.892 150.512 154.733 153.048 151.957 153.794Z" fill="#FFC107"/>
<path d="M147.486 186.32C151.032 185.574 154.579 187.066 156.275 189.602C157.971 192.736 157.663 196.316 155.658 198.704C153.191 201.24 149.49 202.135 146.561 200.942C143.168 199.45 141.318 196.316 141.472 193.332C141.935 189.752 144.402 187.066 147.486 186.32Z" fill="#FFC107"/>
<path d="M163.06 218.398C165.99 216.906 169.382 217.204 171.541 218.995C174.008 221.233 174.625 224.366 173.7 226.902C172.158 229.886 169.382 231.528 166.452 231.378C163.214 230.931 160.593 228.842 159.822 226.156C159.359 223.023 160.593 219.89 163.06 218.398Z" fill="#FFC107"/>
<path d="M160.284 263.606C157.817 266.142 154.116 267.037 151.187 265.844C147.794 264.352 145.944 261.218 146.098 258.234C146.561 254.654 149.028 251.968 152.112 251.222C155.658 250.476 159.205 251.968 160.901 254.504C162.597 257.638 162.289 261.218 160.284 263.606Z" fill="#FFC107"/>
<path d="M164.139 302.248C164.139 305.232 162.289 307.769 159.976 308.664C157.046 309.559 154.116 308.664 152.42 306.724C150.57 304.337 150.57 301.353 151.958 299.264C153.654 296.877 156.584 295.833 159.205 296.43C161.981 297.474 163.985 299.712 164.139 302.248Z" fill="#FFC107"/>
<path d="M170.153 308.664C173.7 307.918 177.246 309.41 178.942 311.946C180.639 315.08 180.33 318.66 178.326 321.048C175.858 323.584 172.158 324.479 169.228 323.286C165.835 321.794 163.985 318.66 164.139 315.676C164.602 312.096 167.069 309.41 170.153 308.664Z" fill="#FFC107"/>
<path d="M149.49 350.888C153.037 350.142 156.584 351.634 158.28 354.17C159.976 357.303 159.668 360.884 157.663 363.271C155.196 365.808 151.495 366.703 148.565 365.509C145.173 364.017 143.322 360.884 143.477 357.9C143.939 354.319 146.406 351.634 149.49 350.888Z" fill="#FFC107"/>
<path d="M151.341 385.651C148.874 388.188 145.173 389.083 142.243 387.889C138.851 386.397 137 383.264 137.154 380.28C137.617 376.699 140.084 374.014 143.168 373.268C146.715 372.522 150.261 374.014 151.958 376.55C153.654 379.683 153.345 383.264 151.341 385.651Z" fill="#FFC107"/>
<path d="M148.565 418.177C152.112 417.431 155.658 418.923 157.355 421.459C159.051 424.592 158.742 428.173 156.738 430.56C154.271 433.097 150.57 433.992 147.64 432.798C144.248 431.306 142.397 428.173 142.551 425.189C143.014 421.608 145.481 418.923 148.565 418.177Z" fill="#FFC107"/>
<path d="M168.611 464.877C166.144 467.413 162.443 468.308 159.513 467.115C156.121 465.623 154.27 462.489 154.425 459.505C154.887 455.925 157.354 453.239 160.438 452.493C163.985 451.747 167.532 453.239 169.228 455.775C170.924 458.909 170.616 462.489 168.611 464.877Z" fill="#FFC107"/>
<path d="M157.663 495.015C161.21 494.269 164.756 495.761 166.452 498.297C168.149 501.43 167.84 505.011 165.836 507.398C163.368 509.935 159.668 510.83 156.738 509.636C153.345 508.144 151.495 505.011 151.649 502.027C152.112 498.446 154.579 495.761 157.663 495.015Z" fill="#FFC107"/>
<path d="M175.55 530.525C173.083 533.061 169.382 533.956 166.452 532.763C163.06 531.271 161.21 528.137 161.364 525.153C161.826 521.573 164.294 518.887 167.378 518.141C170.924 517.395 174.471 518.887 176.167 521.423C177.863 524.557 177.555 528.137 175.55 530.525Z" fill="#FFC107"/>
<path d="M172.004 546.041C172.004 549.025 170.153 551.562 167.84 552.457C164.91 553.352 161.981 552.457 160.284 550.517C158.434 548.13 158.434 545.146 159.822 543.057C161.518 540.67 164.448 539.626 167.069 540.222C169.845 541.267 171.849 543.505 172.004 546.041Z" fill="#FFC107"/>
<path d="M191.124 1.90885C194.054 0.416847 197.447 0.715247 199.605 2.50565C202.073 4.74365 202.689 7.87685 201.764 10.4132C200.222 13.3972 197.447 15.0384 194.517 14.8892C191.279 14.4416 188.657 12.3528 187.886 9.66725C187.424 6.53405 188.657 3.40085 191.124 1.90885Z" fill="#FFC107"/>
<path d="M175.242 52.6368C178.171 51.1448 181.564 51.4432 183.723 53.2336C186.19 55.4716 186.807 58.6048 185.881 61.1412C184.339 64.1252 181.564 65.7664 178.634 65.6172C175.396 65.1696 172.774 63.0808 172.003 60.3952C171.541 57.262 172.774 54.1288 175.242 52.6368Z" fill="#FFC107"/>
<path d="M205.311 71.4361C210.554 70.0933 215.796 71.8837 218.572 75.6137C221.502 80.0897 221.348 85.3117 218.572 89.0417C215.18 93.0701 209.783 94.5621 205.311 93.2193C200.376 91.2797 197.138 86.8037 197.138 82.3277C197.447 77.1057 200.839 72.9281 205.311 71.4361Z" fill="#FFC107"/>
<path d="M184.339 105.901C187.886 105.155 191.433 106.647 193.129 109.184C194.825 112.317 194.517 115.898 192.512 118.285C190.045 120.821 186.344 121.716 183.414 120.523C180.022 119.031 178.171 115.898 178.326 112.914C178.788 109.333 181.255 106.647 184.339 105.901Z" fill="#FFC107"/>
<path d="M181.872 144.842C179.405 147.379 175.704 148.274 172.775 147.08C169.382 145.588 167.532 142.455 167.686 139.471C168.149 135.89 170.616 133.205 173.7 132.459C177.246 131.713 180.793 133.205 182.489 135.741C184.185 138.874 183.877 142.455 181.872 144.842Z" fill="#FFC107"/>
<path d="M196.059 176.622C196.059 179.606 194.208 182.142 191.895 183.038C188.965 183.933 186.036 183.038 184.339 181.098C182.489 178.711 182.489 175.727 183.877 173.638C185.573 171.251 188.503 170.206 191.124 170.803C193.9 171.848 195.904 174.086 196.059 176.622Z" fill="#FFC107"/>
<path d="M211.479 212.878C211.479 215.862 209.628 218.398 207.315 219.293C204.386 220.188 201.456 219.293 199.76 217.354C197.909 214.966 197.909 211.982 199.297 209.894C200.993 207.506 203.923 206.462 206.544 207.059C209.32 208.103 211.325 210.341 211.479 212.878Z" fill="#FFC107"/>
<path d="M193.129 264.799C190.662 267.336 186.961 268.231 184.031 267.037C180.639 265.545 178.788 262.412 178.943 259.428C179.405 255.847 181.872 253.162 184.956 252.416C188.503 251.67 192.05 253.162 193.746 255.698C195.442 258.831 195.134 262.412 193.129 264.799Z" fill="#FFC107"/>
<path d="M203.152 266.44C208.395 265.098 213.638 266.888 216.413 270.618C219.343 275.094 219.189 280.316 216.413 284.046C213.021 288.074 207.624 289.566 203.152 288.224C198.218 286.284 194.979 281.808 194.979 277.332C195.288 272.11 198.68 267.932 203.152 266.44Z" fill="#FFC107"/>
<path d="M176.475 312.096C181.718 310.753 186.961 312.543 189.737 316.273C192.666 320.749 192.512 325.971 189.737 329.701C186.344 333.73 180.947 335.222 176.475 333.879C171.541 331.939 168.303 327.463 168.303 322.987C168.611 317.765 172.004 313.588 176.475 312.096Z" fill="#FFC107"/>
<path d="M205.002 338.206C207.932 336.714 211.325 337.012 213.483 338.802C215.951 341.04 216.567 344.174 215.642 346.71C214.1 349.694 211.325 351.335 208.395 351.186C205.157 350.738 202.535 348.65 201.764 345.964C201.302 342.831 202.535 339.698 205.002 338.206Z" fill="#FFC107"/>
<path d="M205.619 375.506C209.166 374.76 212.712 376.252 214.408 378.788C216.105 381.921 215.796 385.502 213.792 387.889C211.324 390.426 207.624 391.321 204.694 390.127C201.301 388.635 199.451 385.502 199.605 382.518C200.068 378.937 202.535 376.252 205.619 375.506Z" fill="#FFC107"/>
<path d="M207.007 414.596C203.769 415.044 200.53 413.85 198.988 411.463C197.446 408.628 197.755 405.346 199.605 403.257C201.918 400.87 205.156 400.273 207.778 401.168C210.862 402.66 212.558 405.346 212.404 408.181C211.941 411.314 209.783 413.85 207.007 414.596Z" fill="#FFC107"/>
<path d="M188.811 457.864C191.741 456.372 195.134 456.67 197.292 458.461C199.76 460.699 200.376 463.832 199.451 466.368C197.909 469.352 195.134 470.994 192.204 470.844C188.966 470.397 186.344 468.308 185.573 465.622C185.111 462.489 186.344 459.356 188.811 457.864Z" fill="#FFC107"/>
<path d="M195.904 482.184C199.451 481.438 202.998 482.93 204.694 485.466C206.39 488.599 206.082 492.18 204.077 494.567C201.61 497.104 197.909 497.999 194.979 496.805C191.587 495.313 189.736 492.18 189.891 489.196C190.353 485.615 192.82 482.93 195.904 482.184Z" fill="#FFC107"/>
<path d="M196.059 500.983C199.605 500.237 203.152 501.729 204.848 504.265C206.544 507.398 206.236 510.979 204.231 513.366C201.764 515.903 198.063 516.798 195.134 515.604C191.741 514.112 189.891 510.979 190.045 507.995C190.508 504.414 192.975 501.729 196.059 500.983Z" fill="#FFC107"/>
<path d="M194.979 544.848C194.979 547.832 193.129 550.368 190.816 551.263C187.886 552.158 184.956 551.263 183.26 549.324C181.41 546.936 181.41 543.952 182.797 541.864C184.494 539.476 187.424 538.432 190.045 539.029C192.821 540.073 194.825 542.311 194.979 544.848Z" fill="#FFC107"/>
<path d="M234.3 22.3492C237.23 20.8572 240.622 21.1556 242.781 22.946C245.248 25.184 245.865 28.3172 244.94 30.8536C243.398 33.8376 240.622 35.4788 237.693 35.3296C234.454 34.882 231.833 32.7932 231.062 30.1076C230.599 26.9744 231.833 23.8412 234.3 22.3492Z" fill="#FFC107"/>
<path d="M231.062 51.8909C234.609 51.1449 238.155 52.6369 239.851 55.1733C241.548 58.3065 241.239 61.8873 239.235 64.2745C236.767 66.8109 233.067 67.7061 230.137 66.5125C226.744 65.0205 224.894 61.8873 225.048 58.9033C225.511 55.3225 227.978 52.6369 231.062 51.8909Z" fill="#FFC107"/>
<path d="M240.314 78.896C243.861 78.15 247.407 79.642 249.104 82.1784C250.8 85.3116 250.491 88.8924 248.487 91.2796C246.02 93.816 242.319 94.7112 239.389 93.5176C235.997 92.0256 234.146 88.8924 234.3 85.9084C234.763 82.3276 237.23 79.642 240.314 78.896Z" fill="#FFC107"/>
<path d="M212.712 124.104C209.474 124.551 206.236 123.358 204.694 120.97C203.152 118.136 203.46 114.853 205.311 112.764C207.624 110.377 210.862 109.78 213.483 110.676C216.567 112.168 218.263 114.853 218.109 117.688C217.647 120.821 215.488 123.358 212.712 124.104Z" fill="#FFC107"/>
<path d="M224.123 135.89C227.67 135.144 231.216 136.636 232.913 139.173C234.609 142.306 234.3 145.887 232.296 148.274C229.829 150.81 226.128 151.706 223.198 150.512C219.806 149.02 217.955 145.887 218.109 142.903C218.572 139.322 221.039 136.636 224.123 135.89Z" fill="#FFC107"/>
<path d="M228.749 203.926C226.282 206.462 222.581 207.357 219.651 206.164C216.259 204.672 214.408 201.538 214.563 198.554C215.025 194.974 217.492 192.288 220.576 191.542C224.123 190.796 227.67 192.288 229.366 194.824C231.062 197.958 230.754 201.538 228.749 203.926Z" fill="#FFC107"/>
<path d="M233.838 215.414C231.371 217.95 227.67 218.846 224.74 217.652C221.348 216.16 219.497 213.027 219.651 210.043C220.114 206.462 222.581 203.776 225.665 203.03C229.212 202.284 232.758 203.776 234.455 206.313C236.151 209.446 235.842 213.027 233.838 215.414Z" fill="#FFC107"/>
<path d="M224.586 268.38C222.119 270.916 218.418 271.812 215.488 270.618C212.096 269.126 210.245 265.993 210.399 263.009C210.862 259.428 213.329 256.742 216.413 255.996C219.96 255.25 223.506 256.742 225.203 259.279C226.899 262.412 226.59 265.993 224.586 268.38Z" fill="#FFC107"/>
<path d="M241.085 292.103C246.328 290.76 251.571 292.55 254.346 296.28C257.276 300.756 257.122 305.978 254.346 309.708C250.954 313.737 245.557 315.229 241.085 313.886C236.151 311.946 232.912 307.47 232.912 302.994C233.221 297.772 236.613 293.595 241.085 292.103Z" fill="#FFC107"/>
<path d="M230.291 307.918C235.534 306.575 240.777 308.366 243.552 312.096C246.482 316.572 246.328 321.794 243.552 325.524C240.16 329.552 234.763 331.044 230.291 329.701C225.357 327.762 222.118 323.286 222.118 318.81C222.427 313.588 225.819 309.41 230.291 307.918Z" fill="#FFC107"/>
<path d="M234.763 369.538C234.763 372.522 232.913 375.058 230.6 375.953C227.67 376.848 224.74 375.953 223.044 374.014C221.193 371.626 221.193 368.642 222.581 366.554C224.277 364.166 227.207 363.122 229.829 363.719C232.604 364.763 234.609 367.001 234.763 369.538Z" fill="#FFC107"/>
<path d="M246.791 399.079C244.323 401.616 240.623 402.511 237.693 401.317C234.3 399.825 232.45 396.692 232.604 393.708C233.067 390.127 235.534 387.442 238.618 386.696C242.165 385.95 245.711 387.442 247.407 389.978C249.104 393.111 248.795 396.692 246.791 399.079Z" fill="#FFC107"/>
<path d="M225.203 421.758C230.445 420.415 235.688 422.205 238.464 425.935C241.394 430.411 241.239 435.633 238.464 439.363C235.071 443.392 229.674 444.884 225.203 443.541C220.268 441.601 217.03 437.125 217.03 432.649C217.338 427.427 220.731 423.25 225.203 421.758Z" fill="#FFC107"/>
<path d="M229.983 461.296C227.515 463.832 223.815 464.727 220.885 463.534C217.492 462.042 215.642 458.908 215.796 455.924C216.259 452.344 218.726 449.658 221.81 448.912C225.357 448.166 228.903 449.658 230.599 452.194C232.296 455.328 231.987 458.908 229.983 461.296Z" fill="#FFC107"/>
<path d="M212.096 463.981C217.338 462.638 222.581 464.429 225.357 468.159C228.287 472.635 228.132 477.857 225.357 481.587C221.964 485.615 216.567 487.107 212.096 485.764C207.161 483.825 203.923 479.349 203.923 474.873C204.231 469.651 207.624 465.473 212.096 463.981Z" fill="#FFC107"/>
<path d="M229.058 518.29C226.59 520.826 222.89 521.722 219.96 520.528C216.567 519.036 214.717 515.903 214.871 512.919C215.334 509.338 217.801 506.652 220.885 505.906C224.432 505.16 227.978 506.652 229.674 509.189C231.371 512.322 231.062 515.903 229.058 518.29Z" fill="#FFC107"/>
<path d="M221.964 550.219C224.894 548.727 228.287 549.025 230.445 550.816C232.913 553.054 233.529 556.187 232.604 558.723C231.062 561.707 228.287 563.348 225.357 563.199C222.119 562.752 219.497 560.663 218.726 557.977C218.264 554.844 219.497 551.711 221.964 550.219Z" fill="#FFC107"/>
<path d="M277.476 6.98163C280.406 5.48963 283.799 5.78803 285.957 7.57843C288.425 9.81643 289.041 12.9496 288.116 15.486C286.574 18.47 283.799 20.1112 280.869 19.962C277.631 19.5144 275.009 17.4256 274.238 14.74C273.776 11.6068 275.009 8.47363 277.476 6.98163Z" fill="#FFC107"/>
<path d="M273.005 66.5125C275.934 65.0205 279.327 65.3189 281.486 67.1093C283.953 69.3473 284.57 72.4805 283.644 75.0169C282.102 78.0009 279.327 79.6421 276.397 79.4929C273.159 79.0453 270.537 76.9565 269.766 74.2709C269.304 71.1377 270.537 68.0045 273.005 66.5125Z" fill="#FFC107"/>
<path d="M272.079 96.054C272.079 99.038 270.229 101.574 267.916 102.47C264.986 103.365 262.056 102.47 260.36 100.53C258.51 98.1428 258.51 95.1588 259.898 93.07C261.594 90.6828 264.524 89.6384 267.145 90.2352C269.921 91.2796 271.925 93.5176 272.079 96.054Z" fill="#FFC107"/>
<path d="M266.991 122.612C264.524 125.148 260.823 126.043 257.893 124.85C254.501 123.358 252.65 120.224 252.804 117.24C253.267 113.66 255.734 110.974 258.818 110.228C262.365 109.482 265.911 110.974 267.608 113.51C269.304 116.644 268.995 120.224 266.991 122.612Z" fill="#FFC107"/>
<path d="M242.781 142.604C248.024 141.262 253.267 143.052 256.043 146.782C258.972 151.258 258.818 156.48 256.043 160.21C252.65 164.238 247.253 165.73 242.781 164.388C237.847 162.448 234.609 157.972 234.609 153.496C234.917 148.274 238.31 144.096 242.781 142.604Z" fill="#FFC107"/>
<path d="M267.762 197.51C271.308 196.764 274.855 198.256 276.551 200.792C278.247 203.926 277.939 207.506 275.934 209.894C273.467 212.43 269.766 213.325 266.836 212.132C263.444 210.64 261.594 207.506 261.748 204.522C262.21 200.942 264.678 198.256 267.762 197.51Z" fill="#FFC107"/>
<path d="M250.029 208.7C253.575 207.954 257.122 209.446 258.818 211.982C260.514 215.116 260.206 218.696 258.201 221.084C255.734 223.62 252.033 224.515 249.104 223.322C245.711 221.83 243.861 218.696 244.015 215.712C244.478 212.132 246.945 209.446 250.029 208.7Z" fill="#FFC107"/>
<path d="M269.766 248.238C266.528 248.686 263.29 247.492 261.748 245.105C260.206 242.27 260.514 238.988 262.365 236.899C264.678 234.512 267.916 233.915 270.537 234.81C273.621 236.302 275.318 238.988 275.163 241.822C274.701 244.956 272.542 247.492 269.766 248.238Z" fill="#FFC107"/>
<path d="M257.739 286.881C257.739 289.865 255.888 292.401 253.575 293.296C250.646 294.192 247.716 293.296 246.02 291.357C244.169 288.97 244.169 285.986 245.557 283.897C247.253 281.51 250.183 280.465 252.804 281.062C255.58 282.106 257.585 284.344 257.739 286.881Z" fill="#FFC107"/>
<path d="M274.701 342.831C271.462 343.278 268.224 342.085 266.682 339.698C265.14 336.863 265.449 333.58 267.299 331.492C269.612 329.104 272.85 328.508 275.472 329.403C278.556 330.895 280.252 333.58 280.098 336.415C279.635 339.548 277.476 342.085 274.701 342.831Z" fill="#FFC107"/>
<path d="M258.664 329.254C263.907 327.911 269.15 329.701 271.925 333.431C274.855 337.907 274.701 343.129 271.925 346.859C268.533 350.888 263.136 352.38 258.664 351.037C253.73 349.097 250.491 344.621 250.491 340.145C250.8 334.923 254.192 330.746 258.664 329.254Z" fill="#FFC107"/>
<path d="M249.875 377.893C255.117 376.55 260.36 378.34 263.136 382.07C266.066 386.546 265.911 391.768 263.136 395.498C259.743 399.527 254.346 401.019 249.875 399.676C244.94 397.736 241.702 393.26 241.702 388.784C242.01 383.562 245.403 379.385 249.875 377.893Z" fill="#FFC107"/>
<path d="M246.636 412.209C249.566 410.717 252.959 411.015 255.117 412.806C257.585 415.044 258.201 418.177 257.276 420.713C255.734 423.697 252.959 425.338 250.029 425.189C246.791 424.742 244.169 422.653 243.398 419.967C242.936 416.834 244.169 413.701 246.636 412.209Z" fill="#FFC107"/>
<path d="M280.098 451.299C280.098 454.283 278.247 456.82 275.934 457.715C273.005 458.61 270.075 457.715 268.379 455.775C266.528 453.388 266.528 450.404 267.916 448.315C269.612 445.928 272.542 444.884 275.163 445.48C277.939 446.525 279.944 448.763 280.098 451.299Z" fill="#FFC107"/>
<path d="M268.995 488.45C272.542 487.704 276.089 489.196 277.785 491.732C279.481 494.866 279.173 498.446 277.168 500.834C274.701 503.37 271 504.265 268.07 503.072C264.678 501.58 262.827 498.446 262.982 495.462C263.444 491.882 265.911 489.196 268.995 488.45Z" fill="#FFC107"/>
<path d="M245.711 508.741C248.641 507.249 252.033 507.548 254.192 509.338C256.659 511.576 257.276 514.709 256.351 517.246C254.809 520.23 252.033 521.871 249.104 521.722C245.865 521.274 243.244 519.185 242.473 516.5C242.01 513.366 243.244 510.233 245.711 508.741Z" fill="#FFC107"/>
<path d="M250.8 547.981C253.729 546.489 257.122 546.787 259.281 548.578C261.748 550.816 262.365 553.949 261.439 556.485C259.897 559.469 257.122 561.11 254.192 560.961C250.954 560.514 248.332 558.425 247.561 555.739C247.099 552.606 248.332 549.473 250.8 547.981Z" fill="#FFC107"/>
<path d="M317.106 42.7897C314.638 45.3261 310.938 46.2213 308.008 45.0277C304.615 43.5357 302.765 40.4025 302.919 37.4185C303.382 33.8377 305.849 31.1521 308.933 30.4061C312.48 29.6601 316.026 31.1521 317.722 33.6885C319.419 36.8217 319.11 40.4025 317.106 42.7897Z" fill="#FFC107"/>
<path d="M291.971 43.3864C294.901 41.8944 298.293 42.1928 300.452 43.9832C302.919 46.2212 303.536 49.3544 302.611 51.8908C301.069 54.8748 298.293 56.516 295.364 56.3668C292.125 55.9192 289.504 53.8304 288.733 51.1448C288.27 48.0116 289.504 44.8784 291.971 43.3864Z" fill="#FFC107"/>
<path d="M298.602 96.5016C295.363 96.9492 292.125 95.7556 290.583 93.3684C289.041 90.5336 289.35 87.2512 291.2 85.1624C293.513 82.7752 296.751 82.1784 299.373 83.0736C302.457 84.5656 304.153 87.2512 303.999 90.086C303.536 93.2192 301.377 95.7556 298.602 96.5016Z" fill="#FFC107"/>
<path d="M292.434 96.2033C297.676 94.8605 302.919 96.6509 305.695 100.381C308.625 104.857 308.47 110.079 305.695 113.809C302.302 117.837 296.905 119.329 292.434 117.986C287.499 116.047 284.261 111.571 284.261 107.095C284.569 101.873 287.962 97.6953 292.434 96.2033Z" fill="#FFC107"/>
<path d="M279.173 131.862C284.415 130.519 289.658 132.31 292.434 136.04C295.364 140.516 295.209 145.738 292.434 149.468C289.041 153.496 283.644 154.988 279.173 153.645C274.238 151.706 271 147.23 271 142.754C271.308 137.532 274.701 133.354 279.173 131.862Z" fill="#FFC107"/>
<path d="M312.171 196.466C309.704 199.002 306.003 199.897 303.074 198.704C299.681 197.212 297.831 194.078 297.985 191.094C298.448 187.514 300.915 184.828 303.999 184.082C307.545 183.336 311.092 184.828 312.788 187.364C314.484 190.498 314.176 194.078 312.171 196.466Z" fill="#FFC107"/>
<path d="M302.457 210.192C306.003 209.446 309.55 210.938 311.246 213.474C312.942 216.608 312.634 220.188 310.629 222.576C308.162 225.112 304.461 226.007 301.532 224.814C298.139 223.322 296.289 220.188 296.443 217.204C296.906 213.624 299.373 210.938 302.457 210.192Z" fill="#FFC107"/>
<path d="M304.616 257.488C304.616 260.472 302.765 263.009 300.452 263.904C297.522 264.799 294.593 263.904 292.896 261.964C291.046 259.577 291.046 256.593 292.434 254.504C294.13 252.117 297.06 251.073 299.681 251.67C302.457 252.714 304.461 254.952 304.616 257.488Z" fill="#FFC107"/>
<path d="M316.797 284.494C313.559 284.941 310.321 283.748 308.779 281.36C307.237 278.526 307.545 275.243 309.396 273.154C311.709 270.767 314.947 270.17 317.568 271.066C320.652 272.558 322.349 275.243 322.194 278.078C321.732 281.211 319.573 283.748 316.797 284.494Z" fill="#FFC107"/>
<path d="M317.106 333.431C314.638 335.968 310.938 336.863 308.008 335.669C304.615 334.177 302.765 331.044 302.919 328.06C303.382 324.479 305.849 321.794 308.933 321.048C312.48 320.302 316.026 321.794 317.722 324.33C319.419 327.463 319.11 331.044 317.106 333.431Z" fill="#FFC107"/>
<path d="M284.878 354.021C290.121 352.678 295.363 354.468 298.139 358.198C301.069 362.674 300.915 367.896 298.139 371.626C294.747 375.655 289.35 377.147 284.878 375.804C279.943 373.864 276.705 369.388 276.705 364.912C277.014 359.69 280.406 355.513 284.878 354.021Z" fill="#FFC107"/>
<path d="M290.429 396.841C293.976 396.095 297.522 397.587 299.218 400.124C300.915 403.257 300.606 406.838 298.602 409.225C296.134 411.761 292.434 412.656 289.504 411.463C286.111 409.971 284.261 406.838 284.415 403.854C284.878 400.273 287.345 397.587 290.429 396.841Z" fill="#FFC107"/>
<path d="M300.452 425.488C305.695 424.145 310.938 425.935 313.713 429.665C316.643 434.141 316.489 439.363 313.713 443.093C310.321 447.122 304.924 448.614 300.452 447.271C295.518 445.331 292.279 440.855 292.279 436.379C292.588 431.157 295.98 426.98 300.452 425.488Z" fill="#FFC107"/>
<path d="M285.649 453.09C289.195 452.344 292.742 453.836 294.438 456.372C296.134 459.505 295.826 463.086 293.821 465.473C291.354 468.01 287.653 468.905 284.724 467.711C281.331 466.219 279.481 463.086 279.635 460.102C280.098 456.521 282.565 453.836 285.649 453.09Z" fill="#FFC107"/>
<path d="M309.704 480.542C313.251 479.796 316.797 481.288 318.494 483.825C320.19 486.958 319.881 490.539 317.877 492.926C315.41 495.462 311.709 496.358 308.779 495.164C305.387 493.672 303.536 490.539 303.69 487.555C304.153 483.974 306.62 481.288 309.704 480.542Z" fill="#FFC107"/>
<path d="M295.98 539.626C292.742 540.073 289.504 538.88 287.962 536.493C286.42 533.658 286.728 530.375 288.579 528.287C290.892 525.899 294.13 525.303 296.751 526.198C299.835 527.69 301.532 530.375 301.377 533.21C300.915 536.343 298.756 538.88 295.98 539.626Z" fill="#FFC107"/>
<path d="M289.504 545.892C289.504 548.876 287.653 551.412 285.34 552.308C282.411 553.203 279.481 552.308 277.785 550.368C275.934 547.981 275.934 544.997 277.322 542.908C279.018 540.521 281.948 539.476 284.569 540.073C287.345 541.118 289.35 543.356 289.504 545.892Z" fill="#FFC107"/>
<path d="M322.04 27.422C318.802 27.8696 315.564 26.676 314.022 24.2888C312.48 21.454 312.788 18.1716 314.639 16.0828C316.952 13.6956 320.19 13.0988 322.811 13.994C325.895 15.486 327.591 18.1716 327.437 21.0064C326.975 24.1396 324.816 26.676 322.04 27.422Z" fill="#FFC107"/>
<path d="M328.054 42.342C328.054 45.326 326.204 47.8624 323.891 48.7576C320.961 49.6528 318.031 48.7576 316.335 46.818C314.484 44.4308 314.484 41.4468 315.872 39.358C317.568 36.9708 320.498 35.9264 323.12 36.5232C325.895 37.5676 327.9 39.8056 328.054 42.342Z" fill="#FFC107"/>
<path d="M345.324 85.3117C345.324 88.2957 343.474 90.8321 341.161 91.7273C338.231 92.6225 335.301 91.7273 333.605 89.7877C331.755 87.4005 331.755 84.4165 333.143 82.3277C334.839 79.9405 337.769 78.8961 340.39 79.4929C343.166 80.5373 345.17 82.7753 345.324 85.3117Z" fill="#FFC107"/>
<path d="M339.156 122.761C342.703 122.015 346.249 123.507 347.946 126.043C349.642 129.176 349.333 132.757 347.329 135.144C344.862 137.681 341.161 138.576 338.231 137.382C334.839 135.89 332.988 132.757 333.142 129.773C333.605 126.192 336.072 123.507 339.156 122.761Z" fill="#FFC107"/>
<path d="M339.927 163.492C342.857 162 346.25 162.299 348.408 164.089C350.876 166.327 351.492 169.46 350.567 171.997C349.025 174.981 346.25 176.622 343.32 176.473C340.082 176.025 337.46 173.936 336.689 171.251C336.227 168.118 337.46 164.984 339.927 163.492Z" fill="#FFC107"/>
<path d="M331.292 191.542C334.222 190.05 337.614 190.348 339.773 192.139C342.24 194.377 342.857 197.51 341.932 200.046C340.39 203.03 337.614 204.672 334.684 204.522C331.446 204.075 328.825 201.986 328.054 199.3C327.591 196.167 328.825 193.034 331.292 191.542Z" fill="#FFC107"/>
<path d="M328.208 219.89C325.741 222.426 322.04 223.322 319.11 222.128C315.718 220.636 313.867 217.503 314.022 214.519C314.484 210.938 316.951 208.252 320.035 207.506C323.582 206.76 327.129 208.252 328.825 210.789C330.521 213.922 330.213 217.503 328.208 219.89Z" fill="#FFC107"/>
<path d="M332.834 240.629C338.077 239.286 343.32 241.076 346.095 244.806C349.025 249.282 348.871 254.504 346.095 258.234C342.703 262.263 337.306 263.755 332.834 262.412C327.9 260.472 324.661 255.996 324.661 251.52C324.97 246.298 328.362 242.121 332.834 240.629Z" fill="#FFC107"/>
<path d="M343.011 292.103C346.558 291.357 350.104 292.849 351.801 295.385C353.497 298.518 353.188 302.099 351.184 304.486C348.717 307.023 345.016 307.918 342.086 306.724C338.694 305.232 336.843 302.099 336.997 299.115C337.46 295.534 339.927 292.849 343.011 292.103Z" fill="#FFC107"/>
<path d="M313.251 307.172C316.18 305.68 319.573 305.978 321.732 307.769C324.199 310.007 324.816 313.14 323.89 315.676C322.348 318.66 319.573 320.302 316.643 320.152C313.405 319.705 310.783 317.616 310.012 314.93C309.55 311.797 310.783 308.664 313.251 307.172Z" fill="#FFC107"/>
<path d="M349.642 360.884C349.642 363.868 347.791 366.404 345.478 367.3C342.549 368.195 339.619 367.3 337.923 365.36C336.072 362.973 336.072 359.989 337.46 357.9C339.156 355.513 342.086 354.468 344.707 355.065C347.483 356.11 349.488 358.348 349.642 360.884Z" fill="#FFC107"/>
<path d="M336.998 381.175C339.927 379.683 343.32 379.982 345.479 381.772C347.946 384.01 348.563 387.143 347.637 389.68C346.095 392.664 343.32 394.305 340.39 394.156C337.152 393.708 334.53 391.619 333.759 388.934C333.297 385.8 334.53 382.667 336.998 381.175Z" fill="#FFC107"/>
<path d="M344.399 412.358C341.161 412.806 337.923 411.612 336.381 409.225C334.839 406.39 335.147 403.108 336.997 401.019C339.31 398.632 342.549 398.035 345.17 398.93C348.254 400.422 349.95 403.108 349.796 405.942C349.333 409.076 347.175 411.612 344.399 412.358Z" fill="#FFC107"/>
<path d="M323.736 436.678C327.283 435.932 330.83 437.424 332.526 439.96C334.222 443.093 333.914 446.674 331.909 449.061C329.442 451.598 325.741 452.493 322.811 451.299C319.419 449.807 317.568 446.674 317.723 443.69C318.185 440.109 320.652 437.424 323.736 436.678Z" fill="#FFC107"/>
<path d="M343.936 464.578C349.179 463.235 354.422 465.026 357.198 468.756C360.127 473.232 359.973 478.454 357.198 482.184C353.805 486.212 348.408 487.704 343.936 486.361C339.002 484.422 335.764 479.946 335.764 475.47C336.072 470.248 339.465 466.07 343.936 464.578Z" fill="#FFC107"/>
<path d="M354.268 519.782C351.801 522.318 348.1 523.214 345.17 522.02C341.778 520.528 339.927 517.395 340.081 514.411C340.544 510.83 343.011 508.144 346.095 507.398C349.642 506.652 353.188 508.144 354.885 510.681C356.581 513.814 356.272 517.395 354.268 519.782Z" fill="#FFC107"/>
<path d="M315.718 552.755C320.961 551.412 326.203 553.203 328.979 556.933C331.909 561.409 331.755 566.631 328.979 570.361C325.587 574.389 320.19 575.881 315.718 574.538C310.783 572.599 307.545 568.123 307.545 563.647C307.854 558.425 311.246 554.247 315.718 552.755Z" fill="#FFC107"/>
<path d="M392.664 44.2817C390.197 46.8181 386.496 47.7133 383.566 46.5197C380.174 45.0277 378.323 41.8945 378.477 38.9105C378.94 35.3297 381.407 32.6441 384.491 31.8981C388.038 31.1521 391.584 32.6441 393.281 35.1805C394.977 38.3137 394.668 41.8945 392.664 44.2817Z" fill="#FFC107"/>
<path d="M378.631 41.5961C383.874 40.2533 389.117 42.0437 391.893 45.7737C394.822 50.2497 394.668 55.4717 391.893 59.2017C388.5 63.2301 383.103 64.7221 378.631 63.3793C373.697 61.4397 370.459 56.9637 370.459 52.4877C370.767 47.2657 374.16 43.0881 378.631 41.5961Z" fill="#FFC107"/>
<path d="M360.127 80.2389C363.057 78.7469 366.45 79.0453 368.608 80.8357C371.076 83.0737 371.692 86.2069 370.767 88.7433C369.225 91.7273 366.45 93.3685 363.52 93.2193C360.282 92.7717 357.66 90.6829 356.889 87.9973C356.427 84.8641 357.66 81.7309 360.127 80.2389Z" fill="#FFC107"/>
<path d="M365.062 104.26C370.305 102.917 375.548 104.708 378.323 108.438C381.253 112.914 381.099 118.136 378.323 121.866C374.931 125.894 369.534 127.386 365.062 126.043C360.128 124.104 356.889 119.628 356.889 115.152C357.198 109.93 360.59 105.752 365.062 104.26Z" fill="#FFC107"/>
<path d="M370.613 168.565C367.375 169.013 364.137 167.819 362.595 165.432C361.053 162.597 361.361 159.315 363.211 157.226C365.524 154.839 368.763 154.242 371.384 155.137C374.468 156.629 376.164 159.315 376.01 162.15C375.547 165.283 373.389 167.819 370.613 168.565Z" fill="#FFC107"/>
<path d="M379.248 183.187C382.795 182.441 386.342 183.933 388.038 186.469C389.734 189.602 389.426 193.183 387.421 195.57C384.954 198.107 381.253 199.002 378.323 197.808C374.931 196.316 373.08 193.183 373.235 190.199C373.697 186.618 376.164 183.933 379.248 183.187Z" fill="#FFC107"/>
<path d="M379.557 227.499C376.319 227.947 373.08 226.753 371.538 224.366C369.996 221.531 370.305 218.249 372.155 216.16C374.468 213.773 377.706 213.176 380.328 214.071C383.412 215.563 385.108 218.249 384.954 221.084C384.491 224.217 382.332 226.753 379.557 227.499Z" fill="#FFC107"/>
<path d="M351.03 246.895C353.959 245.403 357.352 245.702 359.511 247.492C361.978 249.73 362.595 252.863 361.669 255.4C360.127 258.384 357.352 260.025 354.422 259.876C351.184 259.428 348.562 257.339 347.791 254.654C347.329 251.52 348.562 248.387 351.03 246.895Z" fill="#FFC107"/>
<path d="M370.305 294.042C375.547 292.7 380.79 294.49 383.566 298.22C386.496 302.696 386.341 307.918 383.566 311.648C380.173 315.676 374.776 317.168 370.305 315.826C365.37 313.886 362.132 309.41 362.132 304.934C362.44 299.712 365.833 295.534 370.305 294.042Z" fill="#FFC107"/>
<path d="M373.389 307.769C378.631 306.426 383.874 308.216 386.65 311.946C389.58 316.422 389.425 321.644 386.65 325.374C383.257 329.403 377.86 330.895 373.389 329.552C368.454 327.612 365.216 323.136 365.216 318.66C365.524 313.438 368.917 309.261 373.389 307.769Z" fill="#FFC107"/>
<path d="M378.169 343.577C381.715 342.831 385.262 344.323 386.958 346.859C388.654 349.992 388.346 353.573 386.341 355.96C383.874 358.497 380.173 359.392 377.244 358.198C373.851 356.706 372.001 353.573 372.155 350.589C372.618 347.008 375.085 344.323 378.169 343.577Z" fill="#FFC107"/>
<path d="M389.271 387.74C386.804 390.276 383.103 391.172 380.174 389.978C376.781 388.486 374.931 385.353 375.085 382.369C375.548 378.788 378.015 376.102 381.099 375.356C384.645 374.61 388.192 376.102 389.888 378.639C391.584 381.772 391.276 385.353 389.271 387.74Z" fill="#FFC107"/>
<path d="M372.464 404.898C372.464 407.882 370.613 410.418 368.3 411.314C365.37 412.209 362.441 411.314 360.744 409.374C358.894 406.987 358.894 404.003 360.282 401.914C361.978 399.527 364.908 398.482 367.529 399.079C370.305 400.124 372.309 402.362 372.464 404.898Z" fill="#FFC107"/>
<path d="M375.702 462.788C379.248 462.042 382.795 463.534 384.491 466.07C386.187 469.203 385.879 472.784 383.874 475.171C381.407 477.708 377.706 478.603 374.777 477.409C371.384 475.917 369.534 472.784 369.688 469.8C370.151 466.219 372.618 463.534 375.702 462.788Z" fill="#FFC107"/>
<path d="M374.777 506.354C371.538 506.802 368.3 505.608 366.758 503.221C365.216 500.386 365.525 497.104 367.375 495.015C369.688 492.628 372.926 492.031 375.548 492.926C378.632 494.418 380.328 497.104 380.174 499.939C379.711 503.072 377.552 505.608 374.777 506.354Z" fill="#FFC107"/>
<path d="M367.683 502.922C371.23 502.176 374.777 503.668 376.473 506.205C378.169 509.338 377.861 512.919 375.856 515.306C373.389 517.842 369.688 518.738 366.758 517.544C363.366 516.052 361.515 512.919 361.67 509.935C362.132 506.354 364.599 503.668 367.683 502.922Z" fill="#FFC107"/>
<path d="M388.192 541.864C388.192 544.848 386.342 547.384 384.029 548.279C381.099 549.174 378.169 548.279 376.473 546.34C374.622 543.952 374.622 540.968 376.01 538.88C377.706 536.492 380.636 535.448 383.258 536.045C386.033 537.089 388.038 539.327 388.192 541.864Z" fill="#FFC107"/>
<path d="M405 12.3528C408.546 11.6068 412.093 13.0988 413.789 15.6352C415.485 18.7684 415.177 22.3492 413.172 24.7364C410.705 27.2728 407.004 28.168 404.075 26.9744C400.682 25.4824 398.832 22.3492 398.986 19.3652C399.449 15.7844 401.916 13.0988 405 12.3528Z" fill="#FFC107"/>
<path d="M388.963 59.6493C394.206 58.3065 399.448 60.0969 402.224 63.8269C405.154 68.3029 405 73.5249 402.224 77.2549C398.832 81.2833 393.435 82.7752 388.963 81.4324C384.028 79.4928 380.79 75.0169 380.79 70.5409C381.099 65.3189 384.491 61.1413 388.963 59.6493Z" fill="#FFC107"/>
<path d="M390.659 83.2229C393.589 81.7309 396.981 82.0293 399.14 83.8197C401.607 86.0577 402.224 89.1909 401.299 91.7273C399.757 94.7113 396.981 96.3525 394.051 96.2033C390.813 95.7557 388.192 93.6669 387.421 90.9813C386.958 87.8481 388.192 84.7149 390.659 83.2229Z" fill="#FFC107"/>
<path d="M418.107 116.644C414.868 117.091 411.63 115.898 410.088 113.51C408.546 110.676 408.855 107.393 410.705 105.304C413.018 102.917 416.256 102.32 418.878 103.216C421.962 104.708 423.658 107.393 423.504 110.228C423.041 113.361 420.882 115.898 418.107 116.644Z" fill="#FFC107"/>
<path d="M404.691 170.952C402.224 173.489 398.523 174.384 395.594 173.19C392.201 171.698 390.351 168.565 390.505 165.581C390.968 162 393.435 159.315 396.519 158.569C400.065 157.823 403.612 159.315 405.308 161.851C407.004 164.984 406.696 168.565 404.691 170.952Z" fill="#FFC107"/>
<path d="M413.172 194.974C413.172 197.958 411.322 200.494 409.009 201.389C406.079 202.284 403.149 201.389 401.453 199.45C399.603 197.062 399.603 194.078 400.99 191.99C402.687 189.602 405.616 188.558 408.238 189.155C411.013 190.199 413.018 192.437 413.172 194.974Z" fill="#FFC107"/>
<path d="M398.061 221.83C403.304 220.487 408.546 222.277 411.322 226.007C414.252 230.483 414.098 235.705 411.322 239.435C407.93 243.464 402.533 244.956 398.061 243.613C393.126 241.673 389.888 237.197 389.888 232.721C390.197 227.499 393.589 223.322 398.061 221.83Z" fill="#FFC107"/>
<path d="M396.519 267.186C394.052 269.723 390.351 270.618 387.421 269.424C384.029 267.932 382.178 264.799 382.332 261.815C382.795 258.234 385.262 255.549 388.346 254.803C391.893 254.057 395.439 255.549 397.136 258.085C398.832 261.218 398.523 264.799 396.519 267.186Z" fill="#FFC107"/>
<path d="M409.163 272.856C412.71 272.11 416.256 273.602 417.953 276.138C419.649 279.272 419.34 282.852 417.336 285.24C414.869 287.776 411.168 288.671 408.238 287.478C404.846 285.986 402.995 282.852 403.149 279.868C403.612 276.288 406.079 273.602 409.163 272.856Z" fill="#FFC107"/>
<path d="M388.192 310.156C391.738 309.41 395.285 310.902 396.981 313.438C398.677 316.572 398.369 320.152 396.364 322.54C393.897 325.076 390.196 325.971 387.267 324.778C383.874 323.286 382.024 320.152 382.178 317.168C382.641 313.588 385.108 310.902 388.192 310.156Z" fill="#FFC107"/>
<path d="M387.729 362.078C390.659 360.586 394.052 360.884 396.21 362.674C398.678 364.912 399.294 368.046 398.369 370.582C396.827 373.566 394.052 375.207 391.122 375.058C387.884 374.61 385.262 372.522 384.491 369.836C384.029 366.703 385.262 363.57 387.729 362.078Z" fill="#FFC107"/>
<path d="M392.355 402.212C389.117 402.66 385.879 401.466 384.337 399.079C382.795 396.244 383.103 392.962 384.954 390.873C387.267 388.486 390.505 387.889 393.126 388.784C396.21 390.276 397.907 392.962 397.752 395.797C397.29 398.93 395.131 401.466 392.355 402.212Z" fill="#FFC107"/>
<path d="M422.116 421.012C422.116 423.996 420.265 426.532 417.952 427.427C415.023 428.322 412.093 427.427 410.397 425.488C408.546 423.1 408.546 420.116 409.934 418.028C411.63 415.64 414.56 414.596 417.181 415.193C419.957 416.237 421.962 418.475 422.116 421.012Z" fill="#FFC107"/>
<path d="M399.294 445.928C399.294 448.912 397.444 451.448 395.131 452.344C392.201 453.239 389.271 452.344 387.575 450.404C385.725 448.017 385.725 445.033 387.113 442.944C388.809 440.557 391.739 439.512 394.36 440.109C397.136 441.154 399.14 443.392 399.294 445.928Z" fill="#FFC107"/>
<path d="M422.579 500.834C419.34 501.281 416.102 500.088 414.56 497.7C413.018 494.866 413.327 491.583 415.177 489.494C417.49 487.107 420.728 486.51 423.35 487.406C426.434 488.898 428.13 491.583 427.976 494.418C427.513 497.551 425.354 500.088 422.579 500.834Z" fill="#FFC107"/>
<path d="M406.542 520.23C410.088 519.484 413.635 520.976 415.331 523.512C417.027 526.645 416.719 530.226 414.714 532.613C412.247 535.15 408.546 536.045 405.617 534.851C402.224 533.359 400.374 530.226 400.528 527.242C400.991 523.661 403.458 520.976 406.542 520.23Z" fill="#FFC107"/>
<path d="M406.542 549.921C410.088 549.175 413.635 550.667 415.331 553.203C417.027 556.336 416.719 559.917 414.714 562.304C412.247 564.841 408.546 565.736 405.617 564.542C402.224 563.05 400.374 559.917 400.528 556.933C400.991 553.352 403.458 550.667 406.542 549.921Z" fill="#FFC107"/>
<path d="M455.732 23.3936C459.278 22.6476 462.825 24.1396 464.521 26.676C466.217 29.8092 465.909 33.39 463.904 35.7772C461.437 38.3136 457.736 39.2088 454.806 38.0152C451.414 36.5232 449.564 33.39 449.718 30.406C450.18 26.8252 452.648 24.1396 455.732 23.3936Z" fill="#FFC107"/>
<path d="M444.629 53.0844C447.559 51.5924 450.951 51.8908 453.11 53.6812C455.577 55.9192 456.194 59.0524 455.269 61.5888C453.727 64.5728 450.951 66.214 448.021 66.0648C444.783 65.6172 442.162 63.5284 441.391 60.8428C440.928 57.7096 442.162 54.5764 444.629 53.0844Z" fill="#FFC107"/>
<path d="M427.667 88.4448C431.214 87.6988 434.76 89.1908 436.457 91.7272C438.153 94.8604 437.844 98.4412 435.84 100.828C433.373 103.365 429.672 104.26 426.742 103.066C423.35 101.574 421.499 98.4412 421.653 95.4572C422.116 91.8764 424.583 89.1908 427.667 88.4448Z" fill="#FFC107"/>
<path d="M435.531 139.322C435.531 142.306 433.681 144.842 431.368 145.738C428.438 146.633 425.508 145.738 423.812 143.798C421.962 141.411 421.962 138.427 423.35 136.338C425.046 133.951 427.976 132.906 430.597 133.503C433.373 134.548 435.377 136.786 435.531 139.322Z" fill="#FFC107"/>
<path d="M446.171 133.354C449.718 132.608 453.264 134.1 454.96 136.636C456.657 139.77 456.348 143.35 454.344 145.738C451.876 148.274 448.176 149.169 445.246 147.976C441.853 146.484 440.003 143.35 440.157 140.366C440.62 136.786 443.087 134.1 446.171 133.354Z" fill="#FFC107"/>
<path d="M427.513 194.974C431.059 194.228 434.606 195.72 436.302 198.256C437.998 201.389 437.69 204.97 435.685 207.357C433.218 209.894 429.517 210.789 426.588 209.595C423.195 208.103 421.345 204.97 421.499 201.986C421.962 198.405 424.429 195.72 427.513 194.974Z" fill="#FFC107"/>
<path d="M461.129 222.576C461.129 225.56 459.278 228.096 456.965 228.991C454.035 229.886 451.106 228.991 449.409 227.052C447.559 224.664 447.559 221.68 448.947 219.592C450.643 217.204 453.573 216.16 456.194 216.757C458.97 217.801 460.974 220.039 461.129 222.576Z" fill="#FFC107"/>
<path d="M458.353 271.662C455.115 272.11 451.876 270.916 450.334 268.529C448.792 265.694 449.101 262.412 450.951 260.323C453.264 257.936 456.502 257.339 459.124 258.234C462.208 259.726 463.904 262.412 463.75 265.247C463.287 268.38 461.128 270.916 458.353 271.662Z" fill="#FFC107"/>
<path d="M460.358 284.643C460.358 287.627 458.507 290.163 456.194 291.058C453.264 291.954 450.335 291.058 448.638 289.119C446.788 286.732 446.788 283.748 448.176 281.659C449.872 279.272 452.802 278.227 455.423 278.824C458.199 279.868 460.203 282.106 460.358 284.643Z" fill="#FFC107"/>
<path d="M435.223 324.181C435.223 327.165 433.373 329.701 431.06 330.596C428.13 331.492 425.2 330.596 423.504 328.657C421.653 326.27 421.653 323.286 423.041 321.197C424.737 318.81 427.667 317.765 430.289 318.362C433.064 319.406 435.069 321.644 435.223 324.181Z" fill="#FFC107"/>
<path d="M444.167 340.742C447.713 339.996 451.26 341.488 452.956 344.024C454.652 347.158 454.344 350.738 452.339 353.126C449.872 355.662 446.171 356.557 443.241 355.364C439.849 353.872 437.999 350.738 438.153 347.754C438.615 344.174 441.083 341.488 444.167 340.742Z" fill="#FFC107"/>
<path d="M445.554 399.825C445.554 402.809 443.704 405.346 441.391 406.241C438.461 407.136 435.531 406.241 433.835 404.301C431.985 401.914 431.985 398.93 433.373 396.841C435.069 394.454 437.999 393.41 440.62 394.006C443.396 395.051 445.4 397.289 445.554 399.825Z" fill="#FFC107"/>
<path d="M443.55 427.278C446.48 425.786 449.872 426.084 452.031 427.875C454.498 430.113 455.115 433.246 454.19 435.782C452.648 438.766 449.872 440.408 446.942 440.258C443.704 439.811 441.083 437.722 440.312 435.036C439.849 431.903 441.083 428.77 443.55 427.278Z" fill="#FFC107"/>
<path d="M435.994 452.194C441.237 450.852 446.479 452.642 449.255 456.372C452.185 460.848 452.031 466.07 449.255 469.8C445.863 473.828 440.466 475.32 435.994 473.978C431.059 472.038 427.821 467.562 427.821 463.086C428.13 457.864 431.522 453.686 435.994 452.194Z" fill="#FFC107"/>
<path d="M460.049 500.983C457.582 503.519 453.881 504.414 450.951 503.221C447.559 501.729 445.709 498.596 445.863 495.612C446.325 492.031 448.793 489.345 451.877 488.599C455.423 487.853 458.97 489.345 460.666 491.882C462.362 495.015 462.054 498.596 460.049 500.983Z" fill="#FFC107"/>
<path d="M456.194 517.395C452.956 517.842 449.718 516.649 448.176 514.262C446.634 511.427 446.942 508.144 448.793 506.056C451.106 503.668 454.344 503.072 456.965 503.967C460.049 505.459 461.745 508.144 461.591 510.979C461.129 514.112 458.97 516.649 456.194 517.395Z" fill="#FFC107"/>
<path d="M431.214 558.425C428.747 560.961 425.046 561.857 422.116 560.663C418.724 559.171 416.873 556.038 417.027 553.054C417.49 549.473 419.957 546.787 423.041 546.041C426.588 545.295 430.134 546.787 431.831 549.324C433.527 552.457 433.218 556.038 431.214 558.425Z" fill="#FFC107"/>
<path d="M478.707 11.756C483.95 10.4132 489.193 12.2036 491.969 15.9336C494.898 20.4096 494.744 25.6316 491.969 29.3616C488.576 33.39 483.179 34.882 478.707 33.5392C473.773 31.5996 470.535 27.1236 470.535 22.6476C470.843 17.4256 474.236 13.248 478.707 11.756Z" fill="#FFC107"/>
<path d="M477.474 46.3704C481.02 45.6244 484.567 47.1164 486.263 49.6528C487.959 52.786 487.651 56.3668 485.646 58.754C483.179 61.2904 479.478 62.1856 476.549 60.992C473.156 59.5 471.306 56.3668 471.46 53.3828C471.923 49.802 474.39 47.1164 477.474 46.3704Z" fill="#FFC107"/>
<path d="M465.138 84.118C468.068 82.626 471.46 82.9244 473.619 84.7148C476.086 86.9528 476.703 90.086 475.778 92.6224C474.236 95.6064 471.46 97.2476 468.53 97.0984C465.292 96.6508 462.671 94.562 461.9 91.8764C461.437 88.7432 462.671 85.61 465.138 84.118Z" fill="#FFC107"/>
<path d="M485.029 133.503C487.959 132.011 491.352 132.31 493.51 134.1C495.978 136.338 496.594 139.471 495.669 142.008C494.127 144.992 491.352 146.633 488.422 146.484C485.184 146.036 482.562 143.947 481.791 141.262C481.329 138.128 482.562 134.995 485.029 133.503Z" fill="#FFC107"/>
<path d="M454.652 134.398C459.895 133.056 465.138 134.846 467.913 138.576C470.843 143.052 470.689 148.274 467.913 152.004C464.521 156.032 459.124 157.524 454.652 156.182C449.718 154.242 446.48 149.766 446.48 145.29C446.788 140.068 450.18 135.89 454.652 134.398Z" fill="#FFC107"/>
<path d="M455.269 193.631C460.512 192.288 465.755 194.078 468.53 197.808C471.46 202.284 471.306 207.506 468.53 211.236C465.138 215.265 459.741 216.757 455.269 215.414C450.335 213.474 447.096 208.998 447.096 204.522C447.405 199.3 450.797 195.123 455.269 193.631Z" fill="#FFC107"/>
<path d="M476.703 219.293C474.235 221.83 470.535 222.725 467.605 221.531C464.212 220.039 462.362 216.906 462.516 213.922C462.979 210.341 465.446 207.656 468.53 206.91C472.077 206.164 475.623 207.656 477.319 210.192C479.016 213.325 478.707 216.906 476.703 219.293Z" fill="#FFC107"/>
<path d="M469.918 238.838C469.918 241.822 468.067 244.359 465.754 245.254C462.825 246.149 459.895 245.254 458.199 243.314C456.348 240.927 456.348 237.943 457.736 235.854C459.432 233.467 462.362 232.423 464.983 233.02C467.759 234.064 469.764 236.302 469.918 238.838Z" fill="#FFC107"/>
<path d="M469.61 272.856C473.156 272.11 476.703 273.602 478.399 276.138C480.095 279.272 479.787 282.852 477.782 285.24C475.315 287.776 471.614 288.671 468.684 287.478C465.292 285.986 463.442 282.852 463.596 279.868C464.058 276.288 466.526 273.602 469.61 272.856Z" fill="#FFC107"/>
<path d="M481.637 302.696C485.184 301.95 488.73 303.442 490.426 305.978C492.123 309.112 491.814 312.692 489.81 315.08C487.342 317.616 483.642 318.511 480.712 317.318C477.319 315.826 475.469 312.692 475.623 309.708C476.086 306.128 478.553 303.442 481.637 302.696Z" fill="#FFC107"/>
<path d="M496.286 353.722C496.286 356.706 494.436 359.243 492.123 360.138C489.193 361.033 486.263 360.138 484.567 358.198C482.716 355.811 482.716 352.827 484.104 350.738C485.8 348.351 488.73 347.307 491.352 347.904C494.127 348.948 496.132 351.186 496.286 353.722Z" fill="#FFC107"/>
<path d="M485.646 393.41C482.408 393.857 479.17 392.664 477.628 390.276C476.086 387.442 476.394 384.159 478.245 382.07C480.558 379.683 483.796 379.086 486.417 379.982C489.501 381.474 491.197 384.159 491.043 386.994C490.581 390.127 488.422 392.664 485.646 393.41Z" fill="#FFC107"/>
<path d="M476.24 423.996C481.483 422.653 486.726 424.443 489.501 428.173C492.431 432.649 492.277 437.871 489.501 441.601C486.109 445.63 480.712 447.122 476.24 445.779C471.306 443.839 468.068 439.363 468.068 434.887C468.376 429.665 471.768 425.488 476.24 423.996Z" fill="#FFC107"/>
<path d="M480.095 453.985C476.857 454.432 473.619 453.239 472.077 450.852C470.535 448.017 470.843 444.734 472.693 442.646C475.006 440.258 478.245 439.662 480.866 440.557C483.95 442.049 485.646 444.734 485.492 447.569C485.029 450.702 482.871 453.239 480.095 453.985Z" fill="#FFC107"/>
<path d="M458.507 496.208C462.054 495.462 465.6 496.954 467.296 499.491C468.993 502.624 468.684 506.205 466.68 508.592C464.212 511.128 460.512 512.024 457.582 510.83C454.189 509.338 452.339 506.205 452.493 503.221C452.956 499.64 455.423 496.954 458.507 496.208Z" fill="#FFC107"/>
<path d="M463.442 535C460.203 535.448 456.965 534.254 455.423 531.867C453.881 529.032 454.189 525.75 456.04 523.661C458.353 521.274 461.591 520.677 464.213 521.572C467.297 523.064 468.993 525.75 468.839 528.585C468.376 531.718 466.217 534.254 463.442 535Z" fill="#FFC107"/>
<path d="M477.011 536.343C482.254 535.001 487.497 536.791 490.272 540.521C493.202 544.997 493.048 550.219 490.272 553.949C486.88 557.977 481.483 559.469 477.011 558.127C472.077 556.187 468.839 551.711 468.839 547.235C469.147 542.013 472.539 537.835 477.011 536.343Z" fill="#FFC107"/>
<path d="M470.38 565.139C475.623 563.796 480.866 565.586 483.642 569.316C486.571 573.792 486.417 579.014 483.642 582.744C480.249 586.773 474.852 588.265 470.38 586.922C465.446 584.982 462.208 580.506 462.208 576.03C462.516 570.808 465.909 566.631 470.38 565.139Z" fill="#FFC107"/>
<path d="M502.146 10.1148C505.076 8.62284 508.468 8.92124 510.627 10.7116C513.094 12.9496 513.711 16.0828 512.786 18.6192C511.244 21.6032 508.468 23.2444 505.538 23.0952C502.3 22.6476 499.679 20.5588 498.908 17.8732C498.445 14.74 499.679 11.6068 502.146 10.1148Z" fill="#FFC107"/>
<path d="M501.837 52.3384C498.599 52.786 495.361 51.5924 493.819 49.2052C492.277 46.3704 492.585 43.088 494.436 40.9992C496.749 38.612 499.987 38.0152 502.608 38.9104C505.692 40.4024 507.388 43.088 507.234 45.9228C506.772 49.056 504.613 51.5924 501.837 52.3384Z" fill="#FFC107"/>
<path d="M516.332 73.5248C519.262 72.0328 522.654 72.3312 524.813 74.1216C527.28 76.3596 527.897 79.4928 526.972 82.0292C525.43 85.0132 522.654 86.6544 519.724 86.5052C516.486 86.0576 513.865 83.9688 513.094 81.2832C512.631 78.15 513.865 75.0168 516.332 73.5248Z" fill="#FFC107"/>
<path d="M522.038 129.922C525.584 129.176 529.131 130.668 530.827 133.205C532.523 136.338 532.215 139.919 530.21 142.306C527.743 144.842 524.042 145.738 521.112 144.544C517.72 143.052 515.87 139.919 516.024 136.935C516.486 133.354 518.954 130.668 522.038 129.922Z" fill="#FFC107"/>
<path d="M513.094 153.048C513.094 156.032 511.243 158.569 508.93 159.464C506.001 160.359 503.071 159.464 501.375 157.524C499.524 155.137 499.524 152.153 500.912 150.064C502.608 147.677 505.538 146.633 508.159 147.23C510.935 148.274 512.94 150.512 513.094 153.048Z" fill="#FFC107"/>
<path d="M519.108 166.178C522.654 165.432 526.201 166.924 527.897 169.46C529.593 172.594 529.285 176.174 527.28 178.562C524.813 181.098 521.112 181.993 518.183 180.8C514.79 179.308 512.94 176.174 513.094 173.19C513.557 169.61 516.024 166.924 519.108 166.178Z" fill="#FFC107"/>
<path d="M507.543 220.338C512.786 218.995 518.028 220.785 520.804 224.515C523.734 228.991 523.58 234.213 520.804 237.943C517.412 241.972 512.015 243.464 507.543 242.121C502.608 240.181 499.37 235.705 499.37 231.229C499.679 226.007 503.071 221.83 507.543 220.338Z" fill="#FFC107"/>
<path d="M523.271 254.355C528.514 253.012 533.757 254.803 536.532 258.533C539.462 263.009 539.308 268.231 536.532 271.961C533.14 275.989 527.743 277.481 523.271 276.138C518.337 274.199 515.099 269.723 515.099 265.247C515.407 260.025 518.799 255.847 523.271 254.355Z" fill="#FFC107"/>
<path d="M501.991 297.922C498.753 298.369 495.515 297.176 493.973 294.788C492.431 291.954 492.739 288.671 494.59 286.582C496.903 284.195 500.141 283.598 502.762 284.494C505.846 285.986 507.543 288.671 507.388 291.506C506.926 294.639 504.767 297.176 501.991 297.922Z" fill="#FFC107"/>
<path d="M522.346 328.209C519.108 328.657 515.87 327.463 514.328 325.076C512.786 322.241 513.094 318.959 514.944 316.87C517.257 314.483 520.496 313.886 523.117 314.781C526.201 316.273 527.897 318.959 527.743 321.794C527.28 324.927 525.122 327.463 522.346 328.209Z" fill="#FFC107"/>
<path d="M511.398 363.271C514.944 362.525 518.491 364.017 520.187 366.554C521.883 369.687 521.575 373.268 519.57 375.655C517.103 378.191 513.402 379.086 510.472 377.893C507.08 376.401 505.23 373.268 505.384 370.284C505.846 366.703 508.314 364.017 511.398 363.271Z" fill="#FFC107"/>
<path d="M502.3 386.994C505.846 386.248 509.393 387.74 511.089 390.276C512.785 393.41 512.477 396.99 510.472 399.378C508.005 401.914 504.304 402.809 501.375 401.616C497.982 400.124 496.132 396.99 496.286 394.006C496.749 390.426 499.216 387.74 502.3 386.994Z" fill="#FFC107"/>
<path d="M514.482 415.64C519.725 414.298 524.967 416.088 527.743 419.818C530.673 424.294 530.519 429.516 527.743 433.246C524.351 437.274 518.954 438.766 514.482 437.424C509.547 435.484 506.309 431.008 506.309 426.532C506.618 421.31 510.01 417.132 514.482 415.64Z" fill="#FFC107"/>
<path d="M490.426 447.122C493.356 445.63 496.749 445.928 498.908 447.718C501.375 449.956 501.991 453.09 501.066 455.626C499.524 458.61 496.749 460.251 493.819 460.102C490.581 459.654 487.959 457.566 487.188 454.88C486.726 451.747 487.959 448.614 490.426 447.122Z" fill="#FFC107"/>
<path d="M516.795 481.288C522.038 479.946 527.28 481.736 530.056 485.466C532.986 489.942 532.832 495.164 530.056 498.894C526.664 502.922 521.267 504.414 516.795 503.072C511.86 501.132 508.622 496.656 508.622 492.18C508.931 486.958 512.323 482.78 516.795 481.288Z" fill="#FFC107"/>
<path d="M518.645 511.427C518.645 514.411 516.795 516.947 514.482 517.842C511.552 518.738 508.622 517.842 506.926 515.903C505.075 513.516 505.075 510.532 506.463 508.443C508.159 506.056 511.089 505.011 513.711 505.608C516.486 506.652 518.491 508.89 518.645 511.427Z" fill="#FFC107"/>
<path d="M520.804 532.016C526.047 530.674 531.29 532.464 534.065 536.194C536.995 540.67 536.841 545.892 534.065 549.622C530.673 553.65 525.276 555.142 520.804 553.8C515.87 551.86 512.631 547.384 512.631 542.908C512.94 537.686 516.332 533.508 520.804 532.016Z" fill="#FFC107"/>
<path d="M493.819 564.094C499.062 562.752 504.305 564.542 507.08 568.272C510.01 572.748 509.856 577.97 507.08 581.7C503.688 585.728 498.291 587.22 493.819 585.878C488.885 583.938 485.646 579.462 485.646 574.986C485.955 569.764 489.347 565.586 493.819 564.094Z" fill="#FFC107"/>
<path d="M531.29 22.0508C536.532 20.708 541.775 22.4984 544.551 26.2284C547.481 30.7044 547.326 35.9264 544.551 39.6564C541.158 43.6848 535.761 45.1768 531.29 43.834C526.355 41.8944 523.117 37.4184 523.117 32.9424C523.425 27.7204 526.818 23.5428 531.29 22.0508Z" fill="#FFC107"/>
<path d="M553.649 60.8428C558.891 59.5 564.134 61.2904 566.91 65.0204C569.84 69.4964 569.685 74.7184 566.91 78.4484C563.517 82.4768 558.12 83.9688 553.649 82.626C548.714 80.6864 545.476 76.2104 545.476 71.7344C545.784 66.5124 549.177 62.3348 553.649 60.8428Z" fill="#FFC107"/>
<path d="M550.565 76.5088C554.111 75.7628 557.658 77.2548 559.354 79.7912C561.05 82.9244 560.742 86.5052 558.737 88.8924C556.27 91.4288 552.569 92.324 549.639 91.1304C546.247 89.6384 544.397 86.5052 544.551 83.5212C545.013 79.9404 547.481 77.2548 550.565 76.5088Z" fill="#FFC107"/>
<path d="M532.677 122.761C535.607 121.269 538.999 121.567 541.158 123.358C543.625 125.596 544.242 128.729 543.317 131.265C541.775 134.249 538.999 135.89 536.07 135.741C532.831 135.294 530.21 133.205 529.439 130.519C528.976 127.386 530.21 124.253 532.677 122.761Z" fill="#FFC107"/>
<path d="M556.116 164.388C559.045 162.896 562.438 163.194 564.597 164.984C567.064 167.222 567.681 170.356 566.755 172.892C565.213 175.876 562.438 177.517 559.508 177.368C556.27 176.92 553.648 174.832 552.877 172.146C552.415 169.013 553.648 165.88 556.116 164.388Z" fill="#FFC107"/>
<path d="M550.256 186.917C553.803 186.171 557.349 187.663 559.046 190.199C560.742 193.332 560.433 196.913 558.429 199.3C555.962 201.837 552.261 202.732 549.331 201.538C545.939 200.046 544.088 196.913 544.242 193.929C544.705 190.348 547.172 187.663 550.256 186.917Z" fill="#FFC107"/>
<path d="M546.247 218.846C551.49 217.503 556.732 219.293 559.508 223.023C562.438 227.499 562.284 232.721 559.508 236.451C556.116 240.48 550.719 241.972 546.247 240.629C541.312 238.689 538.074 234.213 538.074 229.737C538.383 224.515 541.775 220.338 546.247 218.846Z" fill="#FFC107"/>
<path d="M537.92 256.742C535.453 259.279 531.752 260.174 528.822 258.98C525.43 257.488 523.579 254.355 523.734 251.371C524.196 247.79 526.663 245.105 529.747 244.359C533.294 243.613 536.841 245.105 538.537 247.641C540.233 250.774 539.925 254.355 537.92 256.742Z" fill="#FFC107"/>
<path d="M560.279 286.881C557.812 289.417 554.111 290.312 551.181 289.119C547.789 287.627 545.939 284.494 546.093 281.51C546.555 277.929 549.023 275.243 552.107 274.497C555.653 273.751 559.2 275.243 560.896 277.78C562.592 280.913 562.284 284.494 560.279 286.881Z" fill="#FFC107"/>
<path d="M537.457 325.971C541.004 325.225 544.551 326.717 546.247 329.254C547.943 332.387 547.635 335.968 545.63 338.355C543.163 340.891 539.462 341.786 536.532 340.593C533.14 339.101 531.289 335.968 531.444 332.984C531.906 329.403 534.373 326.717 537.457 325.971Z" fill="#FFC107"/>
<path d="M527.28 357.751C530.827 357.005 534.373 358.497 536.07 361.033C537.766 364.166 537.457 367.747 535.453 370.134C532.986 372.671 529.285 373.566 526.355 372.372C522.963 370.88 521.112 367.747 521.266 364.763C521.729 361.182 524.196 358.497 527.28 357.751Z" fill="#FFC107"/>
<path d="M542.238 370.582C545.784 369.836 549.331 371.328 551.027 373.864C552.723 376.998 552.415 380.578 550.41 382.966C547.943 385.502 544.242 386.397 541.312 385.204C537.92 383.712 536.07 380.578 536.224 377.594C536.686 374.014 539.154 371.328 542.238 370.582Z" fill="#FFC107"/>
<path d="M534.682 425.04C538.228 424.294 541.775 425.786 543.471 428.322C545.167 431.456 544.859 435.036 542.854 437.424C540.387 439.96 536.686 440.855 533.757 439.662C530.364 438.17 528.514 435.036 528.668 432.052C529.131 428.472 531.598 425.786 534.682 425.04Z" fill="#FFC107"/>
<path d="M552.723 436.976C555.653 435.484 559.045 435.782 561.204 437.573C563.671 439.811 564.288 442.944 563.363 445.48C561.821 448.464 559.045 450.106 556.116 449.956C552.877 449.509 550.256 447.42 549.485 444.734C549.022 441.601 550.256 438.468 552.723 436.976Z" fill="#FFC107"/>
<path d="M536.841 460.4C542.084 459.058 547.326 460.848 550.102 464.578C553.032 469.054 552.878 474.276 550.102 478.006C546.71 482.034 541.313 483.526 536.841 482.184C531.906 480.244 528.668 475.768 528.668 471.292C528.977 466.07 532.369 461.892 536.841 460.4Z" fill="#FFC107"/>
<path d="M532.832 506.802C536.378 506.056 539.925 507.548 541.621 510.084C543.317 513.217 543.009 516.798 541.004 519.185C538.537 521.722 534.836 522.617 531.906 521.423C528.514 519.931 526.664 516.798 526.818 513.814C527.28 510.233 529.748 507.548 532.832 506.802Z" fill="#FFC107"/>
<path d="M570.148 562.155C567.681 564.691 563.98 565.586 561.05 564.393C557.658 562.901 555.807 559.768 555.962 556.784C556.424 553.203 558.891 550.517 561.975 549.771C565.522 549.025 569.069 550.517 570.765 553.054C572.461 556.187 572.153 559.768 570.148 562.155Z" fill="#FFC107"/>
<path d="M572.153 27.5712C572.153 30.5552 570.302 33.0916 567.989 33.9868C565.059 34.882 562.13 33.9868 560.433 32.0472C558.583 29.66 558.583 26.676 559.971 24.5872C561.667 22.2 564.597 21.1556 567.218 21.7524C569.994 22.7968 571.998 25.0348 572.153 27.5712Z" fill="#FFC107"/>
<path d="M597.133 53.2336C593.895 53.6812 590.657 52.4876 589.115 50.1004C587.573 47.2656 587.881 43.9832 589.731 41.8944C592.044 39.5072 595.283 38.9104 597.904 39.8056C600.988 41.2976 602.684 43.9832 602.53 46.818C602.067 49.9512 599.909 52.4876 597.133 53.2336Z" fill="#FFC107"/>
<path d="M564.597 71.2869C569.84 69.9441 575.082 71.7345 577.858 75.4645C580.788 79.9405 580.634 85.1625 577.858 88.8925C574.466 92.9209 569.069 94.4129 564.597 93.0701C559.662 91.1305 556.424 86.6545 556.424 82.1785C556.733 76.9565 560.125 72.7789 564.597 71.2869Z" fill="#FFC107"/>
<path d="M589.577 115.748C589.577 118.732 587.727 121.269 585.414 122.164C582.484 123.059 579.554 122.164 577.858 120.224C576.008 117.837 576.008 114.853 577.395 112.764C579.092 110.377 582.021 109.333 584.643 109.93C587.418 110.974 589.423 113.212 589.577 115.748Z" fill="#FFC107"/>
<path d="M586.031 162.746C588.96 161.254 592.353 161.553 594.512 163.343C596.979 165.581 597.596 168.714 596.67 171.251C595.128 174.235 592.353 175.876 589.423 175.727C586.185 175.279 583.563 173.19 582.792 170.505C582.33 167.372 583.563 164.238 586.031 162.746Z" fill="#FFC107"/>
<path d="M594.203 200.643C590.965 201.091 587.727 199.897 586.185 197.51C584.643 194.675 584.951 191.393 586.801 189.304C589.114 186.917 592.353 186.32 594.974 187.215C598.058 188.707 599.754 191.393 599.6 194.228C599.137 197.361 596.979 199.897 594.203 200.643Z" fill="#FFC107"/>
<path d="M580.942 242.419C577.704 242.867 574.465 241.673 572.923 239.286C571.381 236.451 571.69 233.169 573.54 231.08C575.853 228.693 579.091 228.096 581.713 228.991C584.797 230.483 586.493 233.169 586.339 236.004C585.876 239.137 583.717 241.673 580.942 242.419Z" fill="#FFC107"/>
<path d="M603.301 257.041C600.834 259.577 597.133 260.472 594.203 259.279C590.811 257.787 588.96 254.654 589.115 251.67C589.577 248.089 592.044 245.403 595.128 244.657C598.675 243.911 602.222 245.403 603.918 247.94C605.614 251.073 605.306 254.654 603.301 257.041Z" fill="#FFC107"/>
<path d="M582.792 289.417C582.792 292.401 580.942 294.938 578.629 295.833C575.699 296.728 572.769 295.833 571.073 293.893C569.223 291.506 569.223 288.522 570.611 286.433C572.307 284.046 575.237 283.002 577.858 283.598C580.634 284.643 582.638 286.881 582.792 289.417Z" fill="#FFC107"/>
<path d="M574.311 314.035C571.073 314.483 567.835 313.289 566.293 310.902C564.751 308.067 565.059 304.785 566.91 302.696C569.223 300.309 572.461 299.712 575.082 300.607C578.166 302.099 579.862 304.785 579.708 307.62C579.246 310.753 577.087 313.289 574.311 314.035Z" fill="#FFC107"/>
<path d="M585.568 376.998C582.33 377.445 579.092 376.252 577.55 373.864C576.008 371.03 576.316 367.747 578.166 365.658C580.479 363.271 583.718 362.674 586.339 363.57C589.423 365.062 591.119 367.747 590.965 370.582C590.502 373.715 588.344 376.252 585.568 376.998Z" fill="#FFC107"/>
<path d="M562.438 385.95C567.681 384.607 572.923 386.397 575.699 390.127C578.629 394.603 578.475 399.825 575.699 403.555C572.307 407.584 566.91 409.076 562.438 407.733C557.503 405.793 554.265 401.317 554.265 396.841C554.574 391.619 557.966 387.442 562.438 385.95Z" fill="#FFC107"/>
<path d="M584.488 430.859C584.488 433.843 582.638 436.379 580.325 437.274C577.395 438.17 574.465 437.274 572.769 435.335C570.919 432.948 570.919 429.964 572.307 427.875C574.003 425.488 576.933 424.443 579.554 425.04C582.33 426.084 584.334 428.322 584.488 430.859Z" fill="#FFC107"/>
<path d="M571.073 459.953C574.003 458.461 577.395 458.759 579.554 460.55C582.021 462.788 582.638 465.921 581.713 468.457C580.171 471.441 577.395 473.082 574.466 472.933C571.227 472.486 568.606 470.397 567.835 467.711C567.372 464.578 568.606 461.445 571.073 459.953Z" fill="#FFC107"/>
<path d="M573.54 476.365C576.47 474.873 579.862 475.171 582.021 476.962C584.488 479.2 585.105 482.333 584.18 484.869C582.638 487.853 579.862 489.494 576.933 489.345C573.694 488.898 571.073 486.809 570.302 484.123C569.839 480.99 571.073 477.857 573.54 476.365Z" fill="#FFC107"/>
<path d="M575.853 517.842C581.096 516.5 586.339 518.29 589.114 522.02C592.044 526.496 591.89 531.718 589.114 535.448C585.722 539.476 580.325 540.968 575.853 539.626C570.919 537.686 567.681 533.21 567.681 528.734C567.989 523.512 571.381 519.334 575.853 517.842Z" fill="#FFC107"/>
<path d="M598.212 565.139C594.974 565.586 591.736 564.393 590.194 562.006C588.652 559.171 588.96 555.888 590.811 553.8C593.124 551.412 596.362 550.816 598.983 551.711C602.067 553.203 603.764 555.888 603.609 558.723C603.147 561.856 600.988 564.393 598.212 565.139Z" fill="#FFC107"/>
<path d="M610.548 43.0881C608.081 45.6245 604.38 46.5197 601.45 45.3261C598.058 43.8341 596.208 40.7009 596.362 37.7169C596.824 34.1361 599.292 31.4505 602.376 30.7045C605.922 29.9585 609.469 31.4505 611.165 33.9869C612.861 37.1201 612.553 40.7009 610.548 43.0881Z" fill="#FFC107"/>
<path d="M613.478 63.0808C616.408 61.5888 619.8 61.8872 621.959 63.6776C624.426 65.9156 625.043 69.0488 624.118 71.5852C622.576 74.5692 619.8 76.2104 616.871 76.0612C613.632 75.6136 611.011 73.5248 610.24 70.8392C609.777 67.706 611.011 64.5728 613.478 63.0808Z" fill="#FFC107"/>
<path d="M622.73 72.7789C627.973 71.4361 633.216 73.2265 635.991 76.9565C638.921 81.4325 638.767 86.6545 635.991 90.3845C632.599 94.4129 627.202 95.9049 622.73 94.5621C617.796 92.6225 614.557 88.1465 614.557 83.6705C614.866 78.4485 618.258 74.2709 622.73 72.7789Z" fill="#FFC107"/>
<path d="M621.342 144.096C618.875 146.633 615.174 147.528 612.245 146.334C608.852 144.842 607.002 141.709 607.156 138.725C607.619 135.144 610.086 132.459 613.17 131.713C616.716 130.967 620.263 132.459 621.959 134.995C623.655 138.128 623.347 141.709 621.342 144.096Z" fill="#FFC107"/>
<path d="M621.805 146.931C627.048 145.588 632.29 147.379 635.066 151.109C637.996 155.585 637.842 160.807 635.066 164.537C631.674 168.565 626.277 170.057 621.805 168.714C616.87 166.775 613.632 162.299 613.632 157.823C613.941 152.601 617.333 148.423 621.805 146.931Z" fill="#FFC107"/>
<path d="M629.515 183.933C634.758 182.59 640.001 184.38 642.776 188.11C645.706 192.586 645.552 197.808 642.776 201.538C639.384 205.567 633.987 207.059 629.515 205.716C624.581 203.776 621.342 199.3 621.342 194.824C621.651 189.602 625.043 185.425 629.515 183.933Z" fill="#FFC107"/>
<path d="M631.982 204.821C635.529 204.075 639.075 205.567 640.772 208.103C642.468 211.236 642.159 214.817 640.155 217.204C637.688 219.741 633.987 220.636 631.057 219.442C627.665 217.95 625.814 214.817 625.968 211.833C626.431 208.252 628.898 205.567 631.982 204.821Z" fill="#FFC107"/>
<path d="M620.725 257.936C624.272 257.19 627.819 258.682 629.515 261.218C631.211 264.352 630.903 267.932 628.898 270.32C626.431 272.856 622.73 273.751 619.8 272.558C616.408 271.066 614.557 267.932 614.712 264.948C615.174 261.368 617.641 258.682 620.725 257.936Z" fill="#FFC107"/>
<path d="M607.156 298.668C607.156 301.652 605.306 304.188 602.993 305.083C600.063 305.978 597.133 305.083 595.437 303.144C593.586 300.756 593.586 297.772 594.974 295.684C596.67 293.296 599.6 292.252 602.222 292.849C604.997 293.893 607.002 296.131 607.156 298.668Z" fill="#FFC107"/>
<path d="M606.693 311.35C611.936 310.007 617.179 311.797 619.955 315.527C622.884 320.003 622.73 325.225 619.955 328.955C616.562 332.984 611.165 334.476 606.693 333.133C601.759 331.193 598.521 326.717 598.521 322.241C598.829 317.019 602.222 312.842 606.693 311.35Z" fill="#FFC107"/>
<path d="M604.689 376.102C601.45 376.55 598.212 375.356 596.67 372.969C595.128 370.134 595.437 366.852 597.287 364.763C599.6 362.376 602.838 361.779 605.46 362.674C608.544 364.166 610.24 366.852 610.086 369.687C609.623 372.82 607.464 375.356 604.689 376.102Z" fill="#FFC107"/>
<path d="M623.81 372.82C629.052 371.477 634.295 373.268 637.071 376.998C640.001 381.474 639.846 386.696 637.071 390.426C633.678 394.454 628.281 395.946 623.81 394.603C618.875 392.664 615.637 388.188 615.637 383.712C615.945 378.49 619.338 374.312 623.81 372.82Z" fill="#FFC107"/>
<path d="M639.23 424.742C639.23 427.726 637.379 430.262 635.066 431.157C632.136 432.052 629.207 431.157 627.51 429.218C625.66 426.83 625.66 423.846 627.048 421.758C628.744 419.37 631.674 418.326 634.295 418.923C637.071 419.967 639.075 422.205 639.23 424.742Z" fill="#FFC107"/>
<path d="M638.15 465.324C635.683 467.86 631.982 468.756 629.052 467.562C625.66 466.07 623.81 462.937 623.964 459.953C624.426 456.372 626.894 453.686 629.978 452.94C633.524 452.194 637.071 453.686 638.767 456.223C640.463 459.356 640.155 462.937 638.15 465.324Z" fill="#FFC107"/>
<path d="M620.417 486.809C623.347 485.317 626.739 485.615 628.898 487.406C631.365 489.644 631.982 492.777 631.057 495.313C629.515 498.297 626.739 499.938 623.809 499.789C620.571 499.342 617.95 497.253 617.179 494.567C616.716 491.434 617.95 488.301 620.417 486.809Z" fill="#FFC107"/>
<path d="M606.539 502.326C611.782 500.983 617.025 502.773 619.8 506.503C622.73 510.979 622.576 516.201 619.8 519.931C616.408 523.96 611.011 525.452 606.539 524.109C601.605 522.169 598.367 517.693 598.367 513.217C598.675 507.995 602.067 503.818 606.539 502.326Z" fill="#FFC107"/>
<path d="M631.365 571.704C628.127 572.151 624.889 570.958 623.347 568.57C621.805 565.736 622.113 562.453 623.964 560.364C626.277 557.977 629.515 557.38 632.136 558.276C635.22 559.768 636.917 562.453 636.762 565.288C636.3 568.421 634.141 570.958 631.365 571.704Z" fill="#FFC107"/>
<path d="M653.416 14.2925C653.416 17.2765 651.565 19.8129 649.252 20.7081C646.323 21.6033 643.393 20.7081 641.697 18.7685C639.846 16.3813 639.846 13.3973 641.234 11.3085C642.93 8.92125 645.86 7.87685 648.481 8.47365C651.257 9.51805 653.262 11.7561 653.416 14.2925Z" fill="#FFC107"/>
<path d="M638.458 57.1129C641.388 55.6209 644.781 55.9193 646.939 57.7097C649.407 59.9477 650.023 63.0809 649.098 65.6173C647.556 68.6013 644.781 70.2425 641.851 70.0933C638.613 69.6457 635.991 67.5569 635.22 64.8713C634.758 61.7381 635.991 58.6049 638.458 57.1129Z" fill="#FFC107"/>
<path d="M667.294 83.9688C667.294 86.9528 665.443 89.4892 663.13 90.3844C660.201 91.2796 657.271 90.3844 655.575 88.4448C653.724 86.0576 653.724 83.0736 655.112 80.9848C656.808 78.5976 659.738 77.5532 662.359 78.15C665.135 79.1944 667.14 81.4324 667.294 83.9688Z" fill="#FFC107"/>
<path d="M675.466 129.176C675.466 132.16 673.616 134.697 671.303 135.592C668.373 136.487 665.443 135.592 663.747 133.652C661.897 131.265 661.897 128.281 663.285 126.192C664.981 123.805 667.911 122.761 670.532 123.358C673.308 124.402 675.312 126.64 675.466 129.176Z" fill="#FFC107"/>
<path d="M657.579 146.484C657.579 149.468 655.729 152.004 653.416 152.899C650.486 153.794 647.556 152.899 645.86 150.96C644.01 148.572 644.01 145.588 645.398 143.5C647.094 141.112 650.024 140.068 652.645 140.665C655.421 141.709 657.425 143.947 657.579 146.484Z" fill="#FFC107"/>
<path d="M666.369 190.05C671.611 188.707 676.854 190.498 679.63 194.228C682.56 198.704 682.405 203.926 679.63 207.656C676.237 211.684 670.84 213.176 666.369 211.833C661.434 209.894 658.196 205.418 658.196 200.942C658.504 195.72 661.897 191.542 666.369 190.05Z" fill="#FFC107"/>
<path d="M662.051 238.988C658.813 239.435 655.575 238.242 654.033 235.854C652.491 233.02 652.799 229.737 654.65 227.648C656.963 225.261 660.201 224.664 662.822 225.56C665.906 227.052 667.602 229.737 667.448 232.572C666.986 235.705 664.827 238.242 662.051 238.988Z" fill="#FFC107"/>
<path d="M642.005 257.041C639.538 259.577 635.837 260.472 632.907 259.279C629.515 257.787 627.665 254.654 627.819 251.67C628.281 248.089 630.749 245.403 633.833 244.657C637.379 243.911 640.926 245.403 642.622 247.94C644.318 251.073 644.01 254.654 642.005 257.041Z" fill="#FFC107"/>
<path d="M641.388 297.026C638.921 299.563 635.22 300.458 632.291 299.264C628.898 297.772 627.048 294.639 627.202 291.655C627.665 288.074 630.132 285.389 633.216 284.643C636.762 283.897 640.309 285.389 642.005 287.925C643.701 291.058 643.393 294.639 641.388 297.026Z" fill="#FFC107"/>
<path d="M662.822 315.975C662.822 318.959 660.972 321.495 658.659 322.39C655.729 323.286 652.799 322.39 651.103 320.451C649.253 318.064 649.253 315.08 650.64 312.991C652.337 310.604 655.266 309.559 657.888 310.156C660.663 311.2 662.668 313.438 662.822 315.975Z" fill="#FFC107"/>
<path d="M656.037 334.625C659.584 333.879 663.131 335.371 664.827 337.907C666.523 341.04 666.215 344.621 664.21 347.008C661.743 349.545 658.042 350.44 655.112 349.246C651.72 347.754 649.869 344.621 650.024 341.637C650.486 338.056 652.953 335.371 656.037 334.625Z" fill="#FFC107"/>
<path d="M642.468 398.632C640.001 401.168 636.3 402.063 633.37 400.87C629.978 399.378 628.127 396.244 628.281 393.26C628.744 389.68 631.211 386.994 634.295 386.248C637.842 385.502 641.388 386.994 643.085 389.53C644.781 392.664 644.472 396.244 642.468 398.632Z" fill="#FFC107"/>
<path d="M651.257 429.814C651.257 432.798 649.407 435.335 647.094 436.23C644.164 437.125 641.234 436.23 639.538 434.29C637.688 431.903 637.688 428.919 639.075 426.83C640.772 424.443 643.701 423.399 646.323 423.996C649.098 425.04 651.103 427.278 651.257 429.814Z" fill="#FFC107"/>
<path d="M647.248 449.807C652.491 448.464 657.734 450.255 660.509 453.985C663.439 458.461 663.285 463.683 660.509 467.413C657.117 471.441 651.72 472.933 647.248 471.59C642.314 469.651 639.075 465.175 639.075 460.699C639.384 455.477 642.776 451.299 647.248 449.807Z" fill="#FFC107"/>
<path d="M667.757 480.095C665.289 482.631 661.589 483.526 658.659 482.333C655.266 480.841 653.416 477.708 653.57 474.724C654.033 471.143 656.5 468.457 659.584 467.711C663.131 466.965 666.677 468.457 668.373 470.994C670.07 474.127 669.761 477.708 667.757 480.095Z" fill="#FFC107"/>
<path d="M654.804 515.306C651.565 515.754 648.327 514.56 646.785 512.173C645.243 509.338 645.552 506.056 647.402 503.967C649.715 501.58 652.953 500.983 655.575 501.878C658.659 503.37 660.355 506.056 660.201 508.89C659.738 512.024 657.579 514.56 654.804 515.306Z" fill="#FFC107"/>
<path d="M632.29 547.235C637.533 545.892 642.776 547.682 645.552 551.412C648.481 555.888 648.327 561.11 645.552 564.84C642.159 568.869 636.762 570.361 632.29 569.018C627.356 567.078 624.118 562.602 624.118 558.126C624.426 552.904 627.819 548.727 632.29 547.235Z" fill="#FFC107"/>
<path d="M643.393 566.631C646.94 565.885 650.486 567.377 652.182 569.913C653.879 573.046 653.57 576.627 651.566 579.014C649.098 581.551 645.398 582.446 642.468 581.252C639.075 579.76 637.225 576.627 637.379 573.643C637.842 570.062 640.309 567.377 643.393 566.631Z" fill="#FFC107"/>
<path d="M677.625 344.621C677.625 347.605 675.775 350.142 673.462 351.037C670.532 351.932 667.602 351.037 665.906 349.097C664.056 346.71 664.056 343.726 665.444 341.637C667.14 339.25 670.07 338.206 672.691 338.802C675.467 339.847 677.471 342.085 677.625 344.621Z" fill="#FFC107"/>
<path d="M672.382 393.26C677.625 391.918 682.868 393.708 685.644 397.438C688.573 401.914 688.419 407.136 685.644 410.866C682.251 414.894 676.854 416.386 672.382 415.044C667.448 413.104 664.21 408.628 664.21 404.152C664.518 398.93 667.911 394.752 672.382 393.26Z" fill="#FFC107"/>
<path d="M669.915 496.208C675.158 494.866 680.401 496.656 683.176 500.386C686.106 504.862 685.952 510.084 683.176 513.814C679.784 517.842 674.387 519.334 669.915 517.992C664.981 516.052 661.743 511.576 661.743 507.1C662.051 501.878 665.443 497.7 669.915 496.208Z" fill="#FFC107"/>
</svg>
